<svg xmlns="http://www.w3.org/2000/svg" width="140" height="20" viewBox="0 0 140 20">
  <g id="Group_2" data-name="Group 2" transform="translate(-69 -726)">
    <circle id="Ellipse_271" data-name="Ellipse 271" cx="1" cy="1" r="1" transform="translate(69 726)" fill="#fff"/>
    <circle id="Ellipse_272" data-name="Ellipse 272" cx="1" cy="1" r="1" transform="translate(69 732)" fill="#fff"/>
    <circle id="Ellipse_273" data-name="Ellipse 273" cx="1" cy="1" r="1" transform="translate(69 738)" fill="#fff"/>
    <circle id="Ellipse_274" data-name="Ellipse 274" cx="1" cy="1" r="1" transform="translate(75 726)" fill="#fff"/>
    <circle id="Ellipse_275" data-name="Ellipse 275" cx="1" cy="1" r="1" transform="translate(75 732)" fill="#fff"/>
    <circle id="Ellipse_276" data-name="Ellipse 276" cx="1" cy="1" r="1" transform="translate(75 738)" fill="#fff"/>
    <circle id="Ellipse_277" data-name="Ellipse 277" cx="1" cy="1" r="1" transform="translate(81 726)" fill="#fff"/>
    <circle id="Ellipse_278" data-name="Ellipse 278" cx="1" cy="1" r="1" transform="translate(81 732)" fill="#fff"/>
    <circle id="Ellipse_279" data-name="Ellipse 279" cx="1" cy="1" r="1" transform="translate(81 738)" fill="#fff"/>
    <circle id="Ellipse_280" data-name="Ellipse 280" cx="1" cy="1" r="1" transform="translate(87 726)" fill="#fff"/>
    <circle id="Ellipse_281" data-name="Ellipse 281" cx="1" cy="1" r="1" transform="translate(87 732)" fill="#fff"/>
    <circle id="Ellipse_282" data-name="Ellipse 282" cx="1" cy="1" r="1" transform="translate(87 738)" fill="#fff"/>
    <circle id="Ellipse_283" data-name="Ellipse 283" cx="1" cy="1" r="1" transform="translate(93 726)" fill="#fff"/>
    <circle id="Ellipse_284" data-name="Ellipse 284" cx="1" cy="1" r="1" transform="translate(93 732)" fill="#fff"/>
    <circle id="Ellipse_285" data-name="Ellipse 285" cx="1" cy="1" r="1" transform="translate(93 738)" fill="#fff"/>
    <circle id="Ellipse_286" data-name="Ellipse 286" cx="1" cy="1" r="1" transform="translate(99 726)" fill="#fff"/>
    <circle id="Ellipse_287" data-name="Ellipse 287" cx="1" cy="1" r="1" transform="translate(99 732)" fill="#fff"/>
    <circle id="Ellipse_288" data-name="Ellipse 288" cx="1" cy="1" r="1" transform="translate(99 738)" fill="#fff"/>
    <circle id="Ellipse_289" data-name="Ellipse 289" cx="1" cy="1" r="1" transform="translate(105 726)" fill="#fff"/>
    <circle id="Ellipse_290" data-name="Ellipse 290" cx="1" cy="1" r="1" transform="translate(105 732)" fill="#fff"/>
    <circle id="Ellipse_291" data-name="Ellipse 291" cx="1" cy="1" r="1" transform="translate(105 738)" fill="#fff"/>
    <circle id="Ellipse_292" data-name="Ellipse 292" cx="1" cy="1" r="1" transform="translate(111 726)" fill="#fff"/>
    <circle id="Ellipse_293" data-name="Ellipse 293" cx="1" cy="1" r="1" transform="translate(111 732)" fill="#fff"/>
    <circle id="Ellipse_294" data-name="Ellipse 294" cx="1" cy="1" r="1" transform="translate(111 738)" fill="#fff"/>
    <circle id="Ellipse_295" data-name="Ellipse 295" cx="1" cy="1" r="1" transform="translate(117 726)" fill="#fff"/>
    <circle id="Ellipse_296" data-name="Ellipse 296" cx="1" cy="1" r="1" transform="translate(117 732)" fill="#fff"/>
    <circle id="Ellipse_297" data-name="Ellipse 297" cx="1" cy="1" r="1" transform="translate(117 738)" fill="#fff"/>
    <circle id="Ellipse_298" data-name="Ellipse 298" cx="1" cy="1" r="1" transform="translate(123 726)" fill="#fff"/>
    <circle id="Ellipse_299" data-name="Ellipse 299" cx="1" cy="1" r="1" transform="translate(123 732)" fill="#fff"/>
    <circle id="Ellipse_300" data-name="Ellipse 300" cx="1" cy="1" r="1" transform="translate(123 738)" fill="#fff"/>
    <circle id="Ellipse_301" data-name="Ellipse 301" cx="1" cy="1" r="1" transform="translate(129 726)" fill="#fff"/>
    <circle id="Ellipse_302" data-name="Ellipse 302" cx="1" cy="1" r="1" transform="translate(129 732)" fill="#fff"/>
    <circle id="Ellipse_303" data-name="Ellipse 303" cx="1" cy="1" r="1" transform="translate(129 738)" fill="#fff"/>
    <circle id="Ellipse_304" data-name="Ellipse 304" cx="1" cy="1" r="1" transform="translate(135 726)" fill="#fff"/>
    <circle id="Ellipse_305" data-name="Ellipse 305" cx="1" cy="1" r="1" transform="translate(135 732)" fill="#fff"/>
    <circle id="Ellipse_306" data-name="Ellipse 306" cx="1" cy="1" r="1" transform="translate(135 738)" fill="#fff"/>
    <circle id="Ellipse_307" data-name="Ellipse 307" cx="1" cy="1" r="1" transform="translate(141 726)" fill="#fff"/>
    <circle id="Ellipse_308" data-name="Ellipse 308" cx="1" cy="1" r="1" transform="translate(141 732)" fill="#fff"/>
    <circle id="Ellipse_309" data-name="Ellipse 309" cx="1" cy="1" r="1" transform="translate(141 738)" fill="#fff"/>
    <circle id="Ellipse_310" data-name="Ellipse 310" cx="1" cy="1" r="1" transform="translate(147 726)" fill="#fff"/>
    <circle id="Ellipse_311" data-name="Ellipse 311" cx="1" cy="1" r="1" transform="translate(147 732)" fill="#fff"/>
    <circle id="Ellipse_312" data-name="Ellipse 312" cx="1" cy="1" r="1" transform="translate(147 738)" fill="#fff"/>
    <circle id="Ellipse_313" data-name="Ellipse 313" cx="1" cy="1" r="1" transform="translate(153 726)" fill="#fff"/>
    <circle id="Ellipse_314" data-name="Ellipse 314" cx="1" cy="1" r="1" transform="translate(153 732)" fill="#fff"/>
    <circle id="Ellipse_315" data-name="Ellipse 315" cx="1" cy="1" r="1" transform="translate(153 738)" fill="#fff"/>
    <circle id="Ellipse_316" data-name="Ellipse 316" cx="1" cy="1" r="1" transform="translate(159 726)" fill="#fff"/>
    <circle id="Ellipse_317" data-name="Ellipse 317" cx="1" cy="1" r="1" transform="translate(159 732)" fill="#fff"/>
    <circle id="Ellipse_318" data-name="Ellipse 318" cx="1" cy="1" r="1" transform="translate(159 738)" fill="#fff"/>
    <circle id="Ellipse_319" data-name="Ellipse 319" cx="1" cy="1" r="1" transform="translate(165 726)" fill="#fff"/>
    <circle id="Ellipse_320" data-name="Ellipse 320" cx="1" cy="1" r="1" transform="translate(165 732)" fill="#fff"/>
    <circle id="Ellipse_321" data-name="Ellipse 321" cx="1" cy="1" r="1" transform="translate(165 738)" fill="#fff"/>
    <circle id="Ellipse_322" data-name="Ellipse 322" cx="1" cy="1" r="1" transform="translate(171 726)" fill="#fff"/>
    <circle id="Ellipse_323" data-name="Ellipse 323" cx="1" cy="1" r="1" transform="translate(171 732)" fill="#fff"/>
    <circle id="Ellipse_324" data-name="Ellipse 324" cx="1" cy="1" r="1" transform="translate(171 738)" fill="#fff"/>
    <circle id="Ellipse_325" data-name="Ellipse 325" cx="1" cy="1" r="1" transform="translate(177 726)" fill="#fff"/>
    <circle id="Ellipse_326" data-name="Ellipse 326" cx="1" cy="1" r="1" transform="translate(177 732)" fill="#fff"/>
    <circle id="Ellipse_327" data-name="Ellipse 327" cx="1" cy="1" r="1" transform="translate(177 738)" fill="#fff"/>
    <circle id="Ellipse_328" data-name="Ellipse 328" cx="1" cy="1" r="1" transform="translate(183 726)" fill="#fff"/>
    <circle id="Ellipse_329" data-name="Ellipse 329" cx="1" cy="1" r="1" transform="translate(183 732)" fill="#fff"/>
    <circle id="Ellipse_330" data-name="Ellipse 330" cx="1" cy="1" r="1" transform="translate(183 738)" fill="#fff"/>
    <circle id="Ellipse_331" data-name="Ellipse 331" cx="1" cy="1" r="1" transform="translate(189 726)" fill="#fff"/>
    <circle id="Ellipse_332" data-name="Ellipse 332" cx="1" cy="1" r="1" transform="translate(189 732)" fill="#fff"/>
    <circle id="Ellipse_333" data-name="Ellipse 333" cx="1" cy="1" r="1" transform="translate(189 738)" fill="#fff"/>
    <circle id="Ellipse_334" data-name="Ellipse 334" cx="1" cy="1" r="1" transform="translate(195 726)" fill="#fff"/>
    <circle id="Ellipse_335" data-name="Ellipse 335" cx="1" cy="1" r="1" transform="translate(195 732)" fill="#fff"/>
    <circle id="Ellipse_336" data-name="Ellipse 336" cx="1" cy="1" r="1" transform="translate(195 738)" fill="#fff"/>
    <circle id="Ellipse_337" data-name="Ellipse 337" cx="1" cy="1" r="1" transform="translate(201 726)" fill="#fff"/>
    <circle id="Ellipse_338" data-name="Ellipse 338" cx="1" cy="1" r="1" transform="translate(201 732)" fill="#fff"/>
    <circle id="Ellipse_339" data-name="Ellipse 339" cx="1" cy="1" r="1" transform="translate(201 738)" fill="#fff"/>
    <circle id="Ellipse_340" data-name="Ellipse 340" cx="1" cy="1" r="1" transform="translate(207 726)" fill="#fff"/>
    <circle id="Ellipse_341" data-name="Ellipse 341" cx="1" cy="1" r="1" transform="translate(207 732)" fill="#fff"/>
    <circle id="Ellipse_342" data-name="Ellipse 342" cx="1" cy="1" r="1" transform="translate(207 738)" fill="#fff"/>
    <circle id="Ellipse_343" data-name="Ellipse 343" cx="1" cy="1" r="1" transform="translate(69 744)" fill="#fff"/>
    <circle id="Ellipse_344" data-name="Ellipse 344" cx="1" cy="1" r="1" transform="translate(75 744)" fill="#fff"/>
    <circle id="Ellipse_345" data-name="Ellipse 345" cx="1" cy="1" r="1" transform="translate(81 744)" fill="#fff"/>
    <circle id="Ellipse_346" data-name="Ellipse 346" cx="1" cy="1" r="1" transform="translate(87 744)" fill="#fff"/>
    <circle id="Ellipse_347" data-name="Ellipse 347" cx="1" cy="1" r="1" transform="translate(93 744)" fill="#fff"/>
    <circle id="Ellipse_348" data-name="Ellipse 348" cx="1" cy="1" r="1" transform="translate(99 744)" fill="#fff"/>
    <circle id="Ellipse_349" data-name="Ellipse 349" cx="1" cy="1" r="1" transform="translate(105 744)" fill="#fff"/>
    <circle id="Ellipse_350" data-name="Ellipse 350" cx="1" cy="1" r="1" transform="translate(111 744)" fill="#fff"/>
    <circle id="Ellipse_351" data-name="Ellipse 351" cx="1" cy="1" r="1" transform="translate(117 744)" fill="#fff"/>
    <circle id="Ellipse_352" data-name="Ellipse 352" cx="1" cy="1" r="1" transform="translate(123 744)" fill="#fff"/>
    <circle id="Ellipse_353" data-name="Ellipse 353" cx="1" cy="1" r="1" transform="translate(129 744)" fill="#fff"/>
    <circle id="Ellipse_354" data-name="Ellipse 354" cx="1" cy="1" r="1" transform="translate(135 744)" fill="#fff"/>
    <circle id="Ellipse_355" data-name="Ellipse 355" cx="1" cy="1" r="1" transform="translate(141 744)" fill="#fff"/>
    <circle id="Ellipse_356" data-name="Ellipse 356" cx="1" cy="1" r="1" transform="translate(147 744)" fill="#fff"/>
    <circle id="Ellipse_357" data-name="Ellipse 357" cx="1" cy="1" r="1" transform="translate(153 744)" fill="#fff"/>
    <circle id="Ellipse_358" data-name="Ellipse 358" cx="1" cy="1" r="1" transform="translate(159 744)" fill="#fff"/>
    <circle id="Ellipse_359" data-name="Ellipse 359" cx="1" cy="1" r="1" transform="translate(165 744)" fill="#fff"/>
    <circle id="Ellipse_360" data-name="Ellipse 360" cx="1" cy="1" r="1" transform="translate(171 744)" fill="#fff"/>
    <circle id="Ellipse_361" data-name="Ellipse 361" cx="1" cy="1" r="1" transform="translate(177 744)" fill="#fff"/>
    <circle id="Ellipse_362" data-name="Ellipse 362" cx="1" cy="1" r="1" transform="translate(183 744)" fill="#fff"/>
    <circle id="Ellipse_363" data-name="Ellipse 363" cx="1" cy="1" r="1" transform="translate(189 744)" fill="#fff"/>
    <circle id="Ellipse_364" data-name="Ellipse 364" cx="1" cy="1" r="1" transform="translate(195 744)" fill="#fff"/>
    <circle id="Ellipse_365" data-name="Ellipse 365" cx="1" cy="1" r="1" transform="translate(201 744)" fill="#fff"/>
    <circle id="Ellipse_366" data-name="Ellipse 366" cx="1" cy="1" r="1" transform="translate(207 744)" fill="#fff"/>
    <circle id="Ellipse_367" data-name="Ellipse 367" cx="1" cy="1" r="1" transform="translate(69 738)" fill="#fff"/>
    <circle id="Ellipse_368" data-name="Ellipse 368" cx="1" cy="1" r="1" transform="translate(75 738)" fill="#fff"/>
    <circle id="Ellipse_369" data-name="Ellipse 369" cx="1" cy="1" r="1" transform="translate(81 738)" fill="#fff"/>
    <circle id="Ellipse_370" data-name="Ellipse 370" cx="1" cy="1" r="1" transform="translate(87 738)" fill="#fff"/>
    <circle id="Ellipse_371" data-name="Ellipse 371" cx="1" cy="1" r="1" transform="translate(93 738)" fill="#fff"/>
    <circle id="Ellipse_372" data-name="Ellipse 372" cx="1" cy="1" r="1" transform="translate(99 738)" fill="#fff"/>
    <circle id="Ellipse_373" data-name="Ellipse 373" cx="1" cy="1" r="1" transform="translate(105 738)" fill="#fff"/>
    <circle id="Ellipse_374" data-name="Ellipse 374" cx="1" cy="1" r="1" transform="translate(111 738)" fill="#fff"/>
    <circle id="Ellipse_375" data-name="Ellipse 375" cx="1" cy="1" r="1" transform="translate(117 738)" fill="#fff"/>
    <circle id="Ellipse_376" data-name="Ellipse 376" cx="1" cy="1" r="1" transform="translate(123 738)" fill="#fff"/>
    <circle id="Ellipse_377" data-name="Ellipse 377" cx="1" cy="1" r="1" transform="translate(129 738)" fill="#fff"/>
    <circle id="Ellipse_378" data-name="Ellipse 378" cx="1" cy="1" r="1" transform="translate(135 738)" fill="#fff"/>
    <circle id="Ellipse_379" data-name="Ellipse 379" cx="1" cy="1" r="1" transform="translate(141 738)" fill="#fff"/>
    <circle id="Ellipse_380" data-name="Ellipse 380" cx="1" cy="1" r="1" transform="translate(147 738)" fill="#fff"/>
    <circle id="Ellipse_381" data-name="Ellipse 381" cx="1" cy="1" r="1" transform="translate(153 738)" fill="#fff"/>
    <circle id="Ellipse_382" data-name="Ellipse 382" cx="1" cy="1" r="1" transform="translate(159 738)" fill="#fff"/>
    <circle id="Ellipse_383" data-name="Ellipse 383" cx="1" cy="1" r="1" transform="translate(165 738)" fill="#fff"/>
    <circle id="Ellipse_384" data-name="Ellipse 384" cx="1" cy="1" r="1" transform="translate(171 738)" fill="#fff"/>
    <circle id="Ellipse_385" data-name="Ellipse 385" cx="1" cy="1" r="1" transform="translate(177 738)" fill="#fff"/>
    <circle id="Ellipse_386" data-name="Ellipse 386" cx="1" cy="1" r="1" transform="translate(183 738)" fill="#fff"/>
    <circle id="Ellipse_387" data-name="Ellipse 387" cx="1" cy="1" r="1" transform="translate(189 738)" fill="#fff"/>
    <circle id="Ellipse_388" data-name="Ellipse 388" cx="1" cy="1" r="1" transform="translate(195 738)" fill="#fff"/>
    <circle id="Ellipse_389" data-name="Ellipse 389" cx="1" cy="1" r="1" transform="translate(201 738)" fill="#fff"/>
    <circle id="Ellipse_390" data-name="Ellipse 390" cx="1" cy="1" r="1" transform="translate(207 738)" fill="#fff"/>
  </g>
</svg>
