<svg xmlns="http://www.w3.org/2000/svg" xmlns:xlink="http://www.w3.org/1999/xlink" width="375" height="812" viewBox="0 0 375 812">
  <defs>
    <clipPath id="clip-iPhone_X_XS_4">
      <rect width="375" height="812"/>
    </clipPath>
  </defs>
  <g id="iPhone_X_XS_4" data-name="iPhone X/XS – 4" clip-path="url(#clip-iPhone_X_XS_4)">
    <rect width="375" height="812" fill="#a2ffaa"/>
    <text id="START_THAT_RUN" data-name="START THAT RUN" transform="translate(46 60)" fill="#00c7af" font-size="33" font-family="HelveticaNeue-Bold, Helvetica Neue" font-weight="700"><tspan x="0" y="0">START THAT RUN</tspan></text>
    <text id="Previous_Runs" data-name="Previous Runs" transform="translate(32 114)" fill="#07b162" font-size="47" font-family="HelveticaNeue-Bold, Helvetica Neue" font-weight="700"><tspan x="0" y="0">Previous Runs</tspan></text>
    <rect id="Rectangle_6" data-name="Rectangle 6" width="330" height="43" rx="6" transform="translate(22 147)" fill="#07b162"/>
    <text id="Date" transform="translate(155 178)" fill="#fff" font-size="28" font-family="HelveticaNeue-Bold, Helvetica Neue" font-weight="700"><tspan x="0" y="0">Date</tspan></text>
    <rect id="Rectangle_14" data-name="Rectangle 14" width="330" height="43" rx="6" transform="translate(22 218)" fill="#07b162"/>
    <text id="Date-2" data-name="Date" transform="translate(155 250)" fill="#fff" font-size="28" font-family="HelveticaNeue-Bold, Helvetica Neue" font-weight="700"><tspan x="0" y="0">Date</tspan></text>
    <rect id="Rectangle_15" data-name="Rectangle 15" width="330" height="44" rx="6" transform="translate(22 289)" fill="#07b162"/>
    <text id="Date-3" data-name="Date" transform="translate(155 321)" fill="#fff" font-size="28" font-family="HelveticaNeue-Bold, Helvetica Neue" font-weight="700"><tspan x="0" y="0">Date</tspan></text>
    <rect id="Rectangle_16" data-name="Rectangle 16" width="330" height="44" rx="6" transform="translate(22 360)" fill="#07b162"/>
    <text id="Date-4" data-name="Date" transform="translate(155 392)" fill="#fff" font-size="28" font-family="HelveticaNeue-Bold, Helvetica Neue" font-weight="700"><tspan x="0" y="0">Date</tspan></text>
    <rect id="Rectangle_17" data-name="Rectangle 17" width="330" height="44" rx="6" transform="translate(22 431)" fill="#07b162"/>
    <text id="Date-5" data-name="Date" transform="translate(155 463)" fill="#fff" font-size="28" font-family="HelveticaNeue-Bold, Helvetica Neue" font-weight="700"><tspan x="0" y="0">Date</tspan></text>
    <rect id="Rectangle_18" data-name="Rectangle 18" width="330" height="44" rx="6" transform="translate(22 502)" fill="#07b162"/>
    <text id="Date-6" data-name="Date" transform="translate(155 534)" fill="#fff" font-size="28" font-family="HelveticaNeue-Bold, Helvetica Neue" font-weight="700"><tspan x="0" y="0">Date</tspan></text>
    <rect id="Rectangle_19" data-name="Rectangle 19" width="330" height="43" rx="6" transform="translate(22 574)" fill="#07b162"/>
    <text id="Date-7" data-name="Date" transform="translate(155 605)" fill="#fff" font-size="28" font-family="HelveticaNeue-Bold, Helvetica Neue" font-weight="700"><tspan x="0" y="0">Date</tspan></text>
    <rect id="Rectangle_20" data-name="Rectangle 20" width="330" height="43" rx="6" transform="translate(22 645)" fill="#07b162"/>
    <text id="Date-8" data-name="Date" transform="translate(155 677)" fill="#fff" font-size="28" font-family="HelveticaNeue-Bold, Helvetica Neue" font-weight="700"><tspan x="0" y="0">Date</tspan></text>
    <rect id="Rectangle_21" data-name="Rectangle 21" width="330" height="44" rx="6" transform="translate(22 716)" fill="#07b162"/>
    <text id="Date-9" data-name="Date" transform="translate(155 748)" fill="#fff" font-size="28" font-family="HelveticaNeue-Bold, Helvetica Neue" font-weight="700"><tspan x="0" y="0">Date</tspan></text>
    <g id="Rectangle_23" data-name="Rectangle 23" transform="translate(11 9)" fill="none" stroke="#07b162" stroke-width="2">
      <rect width="356" height="795" rx="9" stroke="none"/>
      <rect x="1" y="1" width="354" height="793" rx="8" fill="none"/>
    </g>
  </g>
</svg>
