<svg xmlns="http://www.w3.org/2000/svg" width="359" height="796" viewBox="0 0 359 796">
  <g id="Group_1" data-name="Group 1" transform="translate(-8 -8)">
    <g id="Rectangle_5" data-name="Rectangle 5" transform="translate(8 8)" fill="#2e2e2e" stroke="#000" stroke-width="2">
      <rect width="359" height="796" rx="22" stroke="none"/>
      <rect x="1" y="1" width="357" height="794" rx="21" fill="none"/>
    </g>
    <rect id="Rectangle_3" data-name="Rectangle 3" width="330" height="159" rx="7" transform="translate(23 457)" fill="#ff0e0e"/>
    <g id="undraw_online_posts_h475" transform="translate(-399 195.878)">
      <circle id="Ellipse_2" data-name="Ellipse 2" cx="10.864" cy="10.864" r="10.864" transform="translate(495.56 256.27)" fill="#83462e"/>
      <path id="Path_3" data-name="Path 3" d="M859.169,399.7s-.164,6.706.491,6.869-9,2.78-9,2.78l-.981-9.159Z" transform="translate(-347.025 -125.339)" fill="#4894f8"/>
      <path id="Path_4" data-name="Path 4" d="M646.426,558.568s-7.2,0-7.36-.818-1.636,6.706-1.636,6.706l2.944.981s5.561-2.453,6.051-2.453S646.426,558.568,646.426,558.568Z" transform="translate(-210.499 -226.959)" fill="#4895f9"/>
      <path id="Path_5" data-name="Path 5" d="M629.328,545.641s1.308-4.416,2.944-4.58c0,0-5.561-3.6-5.724-4.743s-2.126-4.089-2.944-3.108-.818,16.519.654,18.155,8.014-2.3,8.014-2.3S628.183,547.276,629.328,545.641Z" transform="translate(-201.252 -211.087)" fill="#4593fa"/>
      <path id="Path_6" data-name="Path 6" d="M679.762,664.793l1.308,7.033-6.052.982v-8.014Z" transform="translate(-162.876 -267.598)" fill="#4895f9"/>
      <path id="Path_7" data-name="Path 7" d="M876.283,756.592s.981-3.108,1.636-2.617,1.636,3.6,1.472,4.416-1.308,7.2-.818,8.341-2.453,7.033-6.215,6.542-3.435-3.762-3.435-3.762l1.308-5.07.491-8.014S874.975,755.774,876.283,756.592Z" transform="translate(-359.397 -353.182)" fill="#4895f9"/>
      <circle id="Ellipse_3" data-name="Ellipse 3" cx="4.495" cy="4.495" r="4.495" transform="translate(505.729 251.204)" fill="#83462e"/>
      <path id="Path_8" data-name="Path 8" d="M880.43,332.456a4.5,4.5,0,0,0-4.027-4.471,4.55,4.55,0,0,1,.468-.024,4.5,4.5,0,1,1-.468,8.966,4.5,4.5,0,0,0,4.027-4.471Z" transform="translate(-364.213 -79.191)" fill="#83462e"/>
      <circle id="Ellipse_4" data-name="Ellipse 4" cx="6.869" cy="6.869" r="6.869" transform="translate(499.55 265.206)" fill="#4895f9"/>
      <path id="Path_9" data-name="Path 9" d="M741.993,525.616s-.327,8.178-1.635,12.43-6.026,34.537-5.044,36.827,6.026,27.614,4.881,29.086-6.542.981-6.542.981l-7.334-30.721s1.446-33.883-10.657-34.7-31.893-1.308-31.893-1.308-12.757,3.762-18.482,3.6a20.359,20.359,0,0,0-9,1.472l-.981-6.706,25.351-5.561s23.225-8.014,35.982-5.888A98.184,98.184,0,0,0,741.993,525.616Z" transform="translate(-221.999 -205.782)" fill="#f8ee00"/>
      <path id="Path_10" data-name="Path 10" d="M841.642,412.082s1.963-1.145,2.453,0,3.925,2.126,5.234,1.145,4.58.327,4.58.327l3.6,10.631s-1.8,9.159-3.435,14.229-2.29,15.538-1.636,16.519-13.084,4.907-19.79,2.453-8.178-5.234-8.178-5.234,7.36-10.467,4.907-15.374-.491-10.467-.491-10.467l-.981-5.561,5.561-3.108s.327-2.944,1.635-2.944S841.642,412.082,841.642,412.082Z" transform="translate(-330.807 -132.973)"/>
      <path id="Path_11" data-name="Path 11" d="M833.414,437.754H830.96a5.491,5.491,0,0,0-1.635,5.07c.654,3.108,3.6,13.41,3.6,13.41l2.447-6.377Z" transform="translate(-333.864 -149.814)"/>
      <path id="Path_12" data-name="Path 12" d="M816.508,511.375s-4.895,5.3-1.3,8.08,4.485-6.379,4.485-6.379Z" transform="translate(-324.003 -197.169)" fill="#4895f9"/>
      <path id="Path_13" data-name="Path 13" d="M823.28,480.388l-1.145,4.58-1.963,3.6s-6.706,4.416-6.706,6.052c0,0,2.944-3.762,6.706,0l3.353-8.1Z" transform="translate(-323.73 -177.237)"/>
      <ellipse id="Ellipse_5" data-name="Ellipse 5" cx="7.492" cy="4.495" rx="7.492" ry="4.495" transform="translate(497.668 260.335)" fill="#83462e"/>
      <path id="Path_14" data-name="Path 14" d="M884.391,371.168s-5.234-2.944-7.36-.818,6.379,5.4,6.379,5.4Z" transform="translate(-364.397 -105.961)" fill="#4895f9"/>
      <path id="Path_15" data-name="Path 15" d="M893.456,388.105l1.145-.818s1.308-1.963,2.453-1.308,7.851-2.453,7.851-2.453-2.453,1.145-2.453-.818-.327-1.636-1.963-1.636-1.636.818-2.29-.327-.327-1.8-1.472-1.145a2.3,2.3,0,0,1-2.78-.327c-.327-.491-6.215-1.308-6.215-1.308s2.29-6.706,2.78-7.2,13.084,5.07,13.084,5.07,15.865,4.416,11.776,9.486-18.809,12.757-18.809,12.757Z" transform="translate(-371.5 -106.707)"/>
    </g>
    <g id="Rectangle_6" data-name="Rectangle 6" transform="translate(8 8)" fill="none" stroke="#000" stroke-width="2">
      <rect width="359" height="796" rx="22" stroke="none"/>
      <rect x="1" y="1" width="357" height="794" rx="21" fill="none"/>
    </g>
    <path id="Path_88" data-name="Path 88" d="M7,0H323a7,7,0,0,1,7,7V153a7,7,0,0,1-7,7H7a7,7,0,0,1-7-7V7A7,7,0,0,1,7,0Z" transform="translate(23 634)" fill="#ff9600"/>
    <g id="undraw_by_the_road_4rfk" transform="translate(-390.616 361.384)">
      <path id="Path_50" data-name="Path 50" d="M673.636,293.053l1.377-2.409-6.883-1.377-.688,3.442,1.032,2.753Z" transform="translate(-27.341 -8.742)" fill="#cb0007"/>
      <circle id="Ellipse_8" data-name="Ellipse 8" cx="8.949" cy="8.949" r="8.949" transform="translate(633.388 264.864)" fill="#ff00a2"/>
      <path id="Path_52" data-name="Path 52" d="M656.6,279.613l-7.228,12.047,10.67,6.2,5.506-12.735Z" transform="translate(-21.835 -5.8)" fill="#ff00a2"/>
      <path id="Path_53" data-name="Path 53" d="M802.79,399.646,793.5,395.86s-14.112,2.409-15.488,6.884-1.377,40.614-1.377,40.614-3.442,8.949,1.377,9.293c0,0-1.377,2.065,0,2.409s15.488,0,21,1.721,16.521,3.1,16.521,1.377v-3.1a6.434,6.434,0,0,0,1.033-6.539c-1.377-4.13-3.1-13.079-3.1-13.079s10.326-22.716,9.293-25.47S809.113,398.7,809.113,398.7Z" transform="translate(-168.714 -111.722)" fill="#fff"/>
      <path id="Path_54" data-name="Path 54" d="M628.085,361.423l.344,2.753,4.818-5.851h-1.721Z" transform="translate(-15.348 -29.787)" fill="#ff00a2"/>
      <path id="Path_55" data-name="Path 55" d="M809.5,395.17l-9.981-2.409s-2.065-1.721-2.065-3.786,3.1-5.163,5.163-7.228a1.905,1.905,0,0,1,1.384-.575c2.044-.017,4.523,2.664,4.523,2.664l-2.75,4.588-.124.2Z" transform="translate(-175.421 -107.246)" fill="#fff"/>
      <path id="Path_56" data-name="Path 56" d="M822.471,394.556l5.9-1.913s1.893,7.4-.172,7.744-13.423-.688-13.423-.688Z" transform="translate(-180.701 -110.741)" fill="#fff"/>
      <path id="Path_57" data-name="Path 57" d="M771.266,478.533,766.792,504s-1.721,3.1-1.033,4.474,1.033,1.377,0,2.065-2.409,0-2.065,1.721a17.563,17.563,0,0,1,.344,3.1L754.4,548.4s-6.2,2.753-1.721,4.474,8.949,3.1,9.981,1.377a4.332,4.332,0,0,0,0-3.786l15.832-37.86s2.409-3.442,2.409-5.507,7.916-16.865,7.916-16.865.344,14.8.688,15.832-.688,3.1-.688,4.474-.688,1.377,0,2.065.688,8.6.688,8.6-4.13,30.632-1.721,30.977,9.293-.344,9.293-1.721a1.717,1.717,0,0,0-1.033-1.721l4.474-26.158a5.477,5.477,0,0,1,.344-3.1c.688-1.377.688-1.377.688-2.065s-.344-1.033,0-1.377a1.7,1.7,0,0,0,.344-1.032s-.688-2.065-.344-2.409,7.916-26.158,5.507-29.256S771.266,478.533,771.266,478.533Z" transform="translate(-161.283 -136.915)" fill="#1a1314"/>
      <path id="Path_58" data-name="Path 58" d="M802.049,582.836l-2.409,5.507s-5.507,6.2-1.377,7.572,5.507,1.033,5.507,1.033,1.721.344,1.721,1.033,13.767,5.851,14.8,1.377-10.67-12.735-10.67-12.735v-4.13Z" transform="translate(-175.2 -168.596)" fill="#2a977e"/>
      <path id="Path_59" data-name="Path 59" d="M756.3,585.449l.521,5.988s3.236,7.631-1.118,7.615-5.548-.783-5.548-.783-1.741-.224-1.961.428-14.916,1.14-14.463-3.43,14.183-8.653,14.183-8.653l1.321-3.913Z" transform="translate(-156 -168.66)" fill="#2a977e"/>
      <path id="Path_60" data-name="Path 60" d="M813.112,377.659c.553-.037.921-.64,1.074-1.213a5.961,5.961,0,0,1,.5-1.694c.856-1.35,3.08-.8,3.984-2.118.556-.808.439-2.123,1.242-2.637a1.95,1.95,0,0,1,1.71.047,18.691,18.691,0,0,1,5.891,3.509l.719-.585.9,1.795c.348-.42,1.019-.094,1.311.372s.434,1.063.85,1.4a1.47,1.47,0,0,0,2.1-.7,4.338,4.338,0,0,0,.2-2.63,18.838,18.838,0,0,0-2.185-6.306l.821-.493-1.062-.152.406-.922-1.112-.013.439-.788c-1.5.513-3.04-.427-4.469-1.127a12.762,12.762,0,0,0-7.67-1.3,9.7,9.7,0,0,0-6.558,4.26,8.714,8.714,0,0,0-1.219,6.489C811.5,374.789,813.745,375.09,813.112,377.659Z" transform="translate(-179.492 -101.396)" fill="#1a1314"/>
      <path id="Path_61" data-name="Path 61" d="M777.1,403.775s-2.065-.344-3.442,2.409-11.7,24.781-6.539,31.665S777.1,446.8,777.1,446.8l1.033.344,5.163-5.507-1.721-2.409s0-2.409-1.377-2.753-1.377.688-1.721-.688,1.377-.344-.344-1.721-.344-2.065-.344-2.065Z" transform="translate(-165.74 -114.129)" fill="#fff"/>
      <path id="Path_62" data-name="Path 62" d="M676.316,367.116l-.344,2.753-4.819-5.851h1.721Z" transform="translate(-28.473 -31.522)" fill="#ff00a2"/>
      <path id="Path_63" data-name="Path 63" d="M831.951,414s4.819-2.409,6.2.344,10.842,23.4,5.679,30.288-9.981,8.949-9.981,8.949l-1.033.344-5.163-5.507,1.721-2.409s0-2.409,1.377-2.753,1.377.688,1.721-.688-1.377-.344.344-1.721.344-2.065.344-2.065Z" transform="translate(-184.623 -116.951)" fill="#fff"/>
      <path id="Path_64" data-name="Path 64" d="M629.148,321.939l-3.786,15.144,4.474,5.507-2.065-6.884Z" transform="translate(-14.518 -18.699)" opacity="0.2"/>
      <path id="Path_65" data-name="Path 65" d="M811.379,383.836l-2.75,4.588c-1.728-.6-1.872-4.609-1.773-7.252C808.9,381.155,811.379,383.836,811.379,383.836Z" transform="translate(-178.28 -107.245)" opacity="0.2"/>
    </g>
    <text id="ROUTE" transform="translate(27 746)" fill="#ffb64e" font-size="92" font-family="Arial-BoldMT, Arial" font-weight="700"><tspan x="0" y="0">ROUTE</tspan></text>
    <text id="VIEW" transform="translate(28 590)" fill="#ff8a69" font-size="125" font-family="Arial-BoldMT, Arial" font-weight="700"><tspan x="0" y="0">VIEW</tspan></text>
    <rect id="Rectangle_2" data-name="Rectangle 2" width="330" height="160" rx="7" transform="translate(23 275)" fill="#00e697"/>
    <text id="EDIT" transform="translate(29.5 400.5)" fill="#75facc" font-size="139" font-family="Arial-BoldMT, Arial" font-weight="700"><tspan x="0" y="0">EDIT</tspan></text>
    <text id="Let_s_Go_Run" data-name="Let’s Go Run" transform="translate(93 79)" font-size="41" font-family="Arial-BoldMT, Arial" font-weight="700"><tspan x="0" y="0">Let’s Go Run</tspan></text>
    <path id="Path_89" data-name="Path 89" d="M7,0H323a7,7,0,0,1,7,7V152a7,7,0,0,1-7,7H7a7,7,0,0,1-7-7V7A7,7,0,0,1,7,0Z" transform="translate(23 94)" fill="#0073e5"/>
    <g id="undraw_landscape_mode_53ej" transform="translate(-307 10)">
      <path id="Path_74" data-name="Path 74" d="M573.459,164.746c0,11.248-4.843,11.6-12.732,11.6s-15.837-.349-15.837-11.6,6.4-20.365,14.284-20.365S573.459,153.5,573.459,164.746Z" transform="translate(-195.481 -144.381)"/>
      <path id="Path_75" data-name="Path 75" d="M572.589,198.595s3.368,14.083,2.143,15.614,10.409,4.9,10.409,4.9l4.9-13.471-2.755-.306s-3.98-.918-2.755-8.572S572.589,198.595,572.589,198.595Z" transform="translate(-214.205 -177.771)" fill="#fff"/>
      <circle id="Ellipse_10" data-name="Ellipse 10" cx="9.95" cy="9.95" r="9.95" transform="translate(353.792 4.903)" fill="#fff"/>
      <path id="Path_76" data-name="Path 76" d="M508.184,348.852l-7.042,6.123s-21.431,7.96-16.533,20.206,14.083,30.31,14.083,30.31l2.449,5.817h6.123l3.98-1.837-.918-2.449s-2.143-3.368-2.143-5.2-3.674-22.962-6.123-24.493c0,0,12.246-11.94,21.125-12.552s11.328-2.755,16.226,0,24.186,7.96,24.186,7.96,10.409,18.982,15.614,22.349,9.491,14.7,9.491,14.7l8.572-1.531-4.286-8.879s-4.286-6.429-4.286-9.185-14.083-29.391-24.186-33.677-15-8.227-15-8.227L526.364,342Z" transform="translate(-154.239 -277.971)" fill="#ff9600"/>
      <path id="Path_77" data-name="Path 77" d="M503.561,538.214s-2.143-1.531-3.674,1.531-5.817,10.1-5.817,10.1-12.552,9.491-3.062,11.94c0,0,4.592.306,12.552-5.2s13.777-8.266,14.083-9.185-1.837-11.328-3.98-11.328-1.531,4.9-3.98,4.9a28.178,28.178,0,0,0-5.2.612Z" transform="translate(-156.658 -409.163)" fill="#3b30bc"/>
      <path id="Path_78" data-name="Path 78" d="M813.8,543.079a6.275,6.275,0,0,0-8.069-3.81c-.47.176-.789.36-.85.544-.306.919-3.077,1.372-3.375.839s-2.442-2.064-.911,3.753,6.123,18.37,8.572,20.513,11.022,1.837,11.634-.306a10.925,10.925,0,0,0-1.531-7.654,28.484,28.484,0,0,1-3.674-8.266A53.277,53.277,0,0,0,813.8,543.079Z" transform="translate(-367.969 -411.068)" fill="#3b30bc"/>
      <path id="Path_79" data-name="Path 79" d="M673,409.641s2.409,10.383,7.138,7.943-5.185-12.157-5.185-12.157Z" transform="translate(-282.08 -320.848)" fill="#fff"/>
      <path id="Path_80" data-name="Path 80" d="M591.732,391.687s2.409,10.383,7.138,7.943-5.185-12.157-5.185-12.157Z" transform="translate(-227.146 -308.712)" fill="#fff"/>
      <path id="Path_81" data-name="Path 81" d="M580.412,265.057c-3.542,1.09-5.872,1.209-6.99,2.305a2.146,2.146,0,0,0-.358.45c-.919,1.531-4.9,2.143-10.1.918a14.694,14.694,0,0,0-5.349-.392,35.8,35.8,0,0,1-6.9.392c-5.808-.291-8.585-19.306-9.9-24.4-.07-.279-.138-.514-.2-.7-1.225-3.674,5.2-7.348,6.123-8.266s3.674-4.592,6.209-4.975,6.344,4.975,6.344,4.975,5.97-7.195,5.358-9.032,5.817-.612,7.042-.918c.692-.174,3.582.582,5.967,1.274a5.094,5.094,0,0,1,3.665,4.494c.04.5.083,1.041.125,1.623C582.2,242.8,583.452,264.123,580.412,265.057Z" transform="translate(-192.484 -199.075)" fill="#ff00a2"/>
      <path id="Path_82" data-name="Path 82" d="M558.357,302.764a35.8,35.8,0,0,1-6.9.392c-5.808-.291-8.585-19.306-9.9-24.4.22-1.586.41-2.541.41-2.541l1.684,2.3s8.113,13.318,10.256,16.992C554.784,297,556.581,299.834,558.357,302.764Z" transform="translate(-193.228 -233.5)" opacity="0.1"/>
      <path id="Path_83" data-name="Path 83" d="M540.564,272.434l-2.755,1.225s-3.674,18.369,2.755,27.554a79.77,79.77,0,0,0,10.1,12.246,3.427,3.427,0,0,0,3.062,1.225s-1.225,3.062.918,3.062,10.1-3.062,7.96-3.98-4.286-2.449-3.674-3.98-7.042-13.165-9.185-16.839S540.564,272.434,540.564,272.434Z" transform="translate(-189.987 -230.945)" fill="#2c977f"/>
      <path id="Path_84" data-name="Path 84" d="M648.81,273.259c-3.542,1.09-5.872,1.209-6.99,2.305a26.579,26.579,0,0,1,.254-8.122c1.882-8.065,3.3-25.528,3.215-29.85-.01-.513.1.306.612.306v.306c2.266,0,2.9-.805,3.539,1.369.129.435.263.912.4,1.43C650.6,251,651.85,272.326,648.81,273.259Z" transform="translate(-260.882 -207.277)" opacity="0.1"/>
      <path id="Path_85" data-name="Path 85" d="M647.385,232.747h.938a5.1,5.1,0,0,1,4.9,3.665,104.392,104.392,0,0,1,2.737,12.562c1.837,11.328,3.98,39.494,3.674,40.107s3.674,3.674,1.837,4.286-5.2,1.837-6.736,2.143-4.592-2.755-4.592-2.755-6.429-19.288-4.286-28.473S647.385,232.747,647.385,232.747Z" transform="translate(-263.437 -204.117)" fill="#2c977f"/>
      <path id="Path_86" data-name="Path 86" d="M575.474,156.88c0,3.046-4.179,5.516-9.334,5.516s-9.9,1.632-9.9-1.414,4.745-9.617,9.9-9.617S575.474,153.834,575.474,156.88Z" transform="translate(-203.153 -149.102)"/>
      <path id="Path_87" data-name="Path 87" d="M545.149,213.129s-.381,10.254,9.808,9.688-1.377-8.765-1.377-8.765Z" transform="translate(-195.654 -190.855)"/>
    </g>
    <g id="undraw_fitness_stats_sht6" transform="translate(-217.359 130.59)">
      <path id="Path_28" data-name="Path 28" d="M646.185,408.64s-2.286-16.764-6.1-12.192,0,11.43,0,11.43l3.048,3.81,3.048-2.286Z" transform="translate(-168.622 -222.586)" fill="#efb039"/>
      <path id="Path_29" data-name="Path 29" d="M659.476,433.7s-7.62-8.382-9.144-6.858-6.1,2.286-5.334,5.334,16.764,12.954,16.764,12.954Z" transform="translate(-172.769 -242.308)" fill="#26cde3"/>
      <path id="Path_30" data-name="Path 30" d="M659.476,433.7s-7.62-8.382-9.144-6.858-6.1,2.286-5.334,5.334,16.764,12.954,16.764,12.954Z" transform="translate(-172.769 -242.308)" opacity="0.1"/>
      <path id="Path_31" data-name="Path 31" d="M792.714,443.924v6.1s.762,13.716-3.81,12.954-2.286-12.192-2.286-12.192l.762-6.858Z" transform="translate(-262.573 -253.297)" fill="#efb039"/>
      <path id="Path_32" data-name="Path 32" d="M772.763,565.443s6.858,10.668,9.144,11.43,14.478,7.62,16,14.478l10.668,13.716-5.334,6.858S778.859,586.017,772,583.731s-13.716-13.716-13.716-13.716Z" transform="translate(-244.908 -330.621)" fill="#efb039"/>
      <path id="Path_33" data-name="Path 33" d="M627.578,517.254s-14.478,2.286-12.192,11.43,24.384,28.194,24.384,28.194l.762,4.572,8.382,1.524,3.81-3.81-.762-2.286s-9.144-8.382-9.906-11.43-9.144-15.24-12.954-16l5.334-3.048Z" transform="translate(-153.825 -299.958)" fill="#efb039"/>
      <path id="Path_34" data-name="Path 34" d="M881.615,667.575s-3.048-4.572,1.524-3.81,7.62,1.524,7.62,4.572-3.81,24.384-8.382,22.86-.762-8.382-.762-8.382-2.286-6.1-3.81-6.858-1.524-4.572,0-4.572S882.377,669.1,881.615,667.575Z" transform="translate(-320.232 -393.129)" fill="#1600bf"/>
      <path id="Path_35" data-name="Path 35" d="M678.618,625.335s0-3.81,3.048,0,4.572,6.858,1.524,9.144-13.716,7.62-13.716,7.62-11.43,2.286-9.906-3.048c0,0,7.62-3.81,7.62-6.858s0-8.382,2.286-6.858S678.618,627.621,678.618,625.335Z" transform="translate(-182.005 -367.653)" fill="#1600bf"/>
      <path id="Path_36" data-name="Path 36" d="M681.342,471.161s10.668,1.524,9.906,16.764c0,0,13.716,13.716,9.906,18.288s-12.192,12.954-15.24,10.668-12.192-19.812-12.192-19.812-21.336,7.62-25.146,3.81-7.62-12.954-7.62-12.954l19.05-9.906Z" transform="translate(-170.251 -270.628)" fill="#ff1c1c"/>
      <circle id="Ellipse_6" data-name="Ellipse 6" cx="9.144" cy="9.144" r="9.144" transform="translate(472.229 138.81)" fill="#efb039"/>
      <path id="Path_37" data-name="Path 37" d="M675.814,328.69s5.334,8.382,6.858,9.144S672,346.216,672,346.216s0-9.906-3.81-12.192Z" transform="translate(-187.582 -179.974)" fill="#efb039"/>
      <path id="Path_38" data-name="Path 38" d="M676.576,349.679s12.192-3.81,14.478,2.286,7.62,17.526,6.858,25.146-2.286,6.1,0,8.382,3.81.762,3.048,3.81-1.524,3.048-.762,4.572-9.144,6.858-17.526,7.62l-8.382.762s0-13.716-1.524-16.764-4.572-9.144-4.572-11.43v-6.049a23.134,23.134,0,0,1,3.048-11.477h0S675.814,349.679,676.576,349.679Z" transform="translate(-187.582 -192.581)" fill="#26cde3"/>
      <path id="Path_39" data-name="Path 39" d="M704.713,360.117s28.194,2.286,31.242,9.906,4.572,22.86,1.524,22.86-6.858,1.524-7.62,0-3.81-16.764-4.572-16.764-23.622-2.286-23.622-2.286S691.759,361.641,704.713,360.117Z" transform="translate(-206.576 -199.971)" fill="#26cde3"/>
      <path id="Path_40" data-name="Path 40" d="M646.976,306.132s-2.427-4.217-5.46-.554-7.967-3.068-7.21-4.5,3.432.065,8.017-1.434,13.415-4.551,14.894,5.407-2.043,8.915-2.043,8.915-1.615-8.824-3.074-6.29l-1.459,2.535-1.266.312Z" transform="translate(-165.97 -160.445)" fill="#fff"/>
    </g>
    <text id="ADD" transform="translate(37 222)" fill="#85b0db" font-size="139" font-family="Arial-BoldMT, Arial" font-weight="700"><tspan x="0" y="0">ADD</tspan></text>
  </g>
</svg>
