<svg xmlns="http://www.w3.org/2000/svg" width="359" height="796" viewBox="0 0 359 796">
  <g id="Group_5" data-name="Group 5" transform="translate(-8 -8)">
    <g id="Rectangle_5" data-name="Rectangle 5" transform="translate(8 8)" fill="#ff9600" stroke="#000" stroke-width="2">
      <rect width="359" height="796" rx="22" stroke="none"/>
      <rect x="1" y="1" width="357" height="794" rx="21" fill="none"/>
    </g>
    <path id="Path_88" data-name="Path 88" d="M7,0H323a7,7,0,0,1,7,7V153a7,7,0,0,1-7,7H7a7,7,0,0,1-7-7V7A7,7,0,0,1,7,0Z" transform="translate(23 37)" fill="#ff9600"/>
    <g id="undraw_by_the_road_4rfk" transform="translate(-390.616 -235.616)">
      <path id="Path_50" data-name="Path 50" d="M673.636,293.053l1.377-2.409-6.883-1.377-.688,3.442,1.032,2.753Z" transform="translate(-27.341 -8.742)" fill="#cb0007"/>
      <circle id="Ellipse_8" data-name="Ellipse 8" cx="8.949" cy="8.949" r="8.949" transform="translate(633.388 264.864)" fill="#ff00a2"/>
      <path id="Path_52" data-name="Path 52" d="M656.6,279.613l-7.228,12.047,10.67,6.2,5.506-12.735Z" transform="translate(-21.835 -5.8)" fill="#ff00a2"/>
      <path id="Path_53" data-name="Path 53" d="M802.79,399.646,793.5,395.86s-14.112,2.409-15.488,6.884-1.377,40.614-1.377,40.614-3.442,8.949,1.377,9.293c0,0-1.377,2.065,0,2.409s15.488,0,21,1.721,16.521,3.1,16.521,1.377v-3.1a6.434,6.434,0,0,0,1.033-6.539c-1.377-4.13-3.1-13.079-3.1-13.079s10.326-22.716,9.293-25.47S809.113,398.7,809.113,398.7Z" transform="translate(-168.714 -111.722)" fill="#fff"/>
      <path id="Path_54" data-name="Path 54" d="M628.085,361.423l.344,2.753,4.818-5.851h-1.721Z" transform="translate(-15.348 -29.787)" fill="#ff00a2"/>
      <path id="Path_55" data-name="Path 55" d="M809.5,395.17l-9.981-2.409s-2.065-1.721-2.065-3.786,3.1-5.163,5.163-7.228a1.905,1.905,0,0,1,1.384-.575c2.044-.017,4.523,2.664,4.523,2.664l-2.75,4.588-.124.2Z" transform="translate(-175.421 -107.246)" fill="#fff"/>
      <path id="Path_56" data-name="Path 56" d="M822.471,394.556l5.9-1.913s1.893,7.4-.172,7.744-13.423-.688-13.423-.688Z" transform="translate(-180.701 -110.741)" fill="#fff"/>
      <path id="Path_57" data-name="Path 57" d="M771.266,478.533,766.792,504s-1.721,3.1-1.033,4.474,1.033,1.377,0,2.065-2.409,0-2.065,1.721a17.563,17.563,0,0,1,.344,3.1L754.4,548.4s-6.2,2.753-1.721,4.474,8.949,3.1,9.981,1.377a4.332,4.332,0,0,0,0-3.786l15.832-37.86s2.409-3.442,2.409-5.507,7.916-16.865,7.916-16.865.344,14.8.688,15.832-.688,3.1-.688,4.474-.688,1.377,0,2.065.688,8.6.688,8.6-4.13,30.632-1.721,30.977,9.293-.344,9.293-1.721a1.717,1.717,0,0,0-1.033-1.721l4.474-26.158a5.477,5.477,0,0,1,.344-3.1c.688-1.377.688-1.377.688-2.065s-.344-1.033,0-1.377a1.7,1.7,0,0,0,.344-1.032s-.688-2.065-.344-2.409,7.916-26.158,5.507-29.256S771.266,478.533,771.266,478.533Z" transform="translate(-161.283 -136.915)" fill="#1a1314"/>
      <path id="Path_58" data-name="Path 58" d="M802.049,582.836l-2.409,5.507s-5.507,6.2-1.377,7.572,5.507,1.033,5.507,1.033,1.721.344,1.721,1.033,13.767,5.851,14.8,1.377-10.67-12.735-10.67-12.735v-4.13Z" transform="translate(-175.2 -168.596)" fill="#2a977e"/>
      <path id="Path_59" data-name="Path 59" d="M756.3,585.449l.521,5.988s3.236,7.631-1.118,7.615-5.548-.783-5.548-.783-1.741-.224-1.961.428-14.916,1.14-14.463-3.43,14.183-8.653,14.183-8.653l1.321-3.913Z" transform="translate(-156 -168.66)" fill="#2a977e"/>
      <path id="Path_60" data-name="Path 60" d="M813.112,377.659c.553-.037.921-.64,1.074-1.213a5.961,5.961,0,0,1,.5-1.694c.856-1.35,3.08-.8,3.984-2.118.556-.808.439-2.123,1.242-2.637a1.95,1.95,0,0,1,1.71.047,18.691,18.691,0,0,1,5.891,3.509l.719-.585.9,1.795c.348-.42,1.019-.094,1.311.372s.434,1.063.85,1.4a1.47,1.47,0,0,0,2.1-.7,4.338,4.338,0,0,0,.2-2.63,18.838,18.838,0,0,0-2.185-6.306l.821-.493-1.062-.152.406-.922-1.112-.013.439-.788c-1.5.513-3.04-.427-4.469-1.127a12.762,12.762,0,0,0-7.67-1.3,9.7,9.7,0,0,0-6.558,4.26,8.714,8.714,0,0,0-1.219,6.489C811.5,374.789,813.745,375.09,813.112,377.659Z" transform="translate(-179.492 -101.396)" fill="#1a1314"/>
      <path id="Path_61" data-name="Path 61" d="M777.1,403.775s-2.065-.344-3.442,2.409-11.7,24.781-6.539,31.665S777.1,446.8,777.1,446.8l1.033.344,5.163-5.507-1.721-2.409s0-2.409-1.377-2.753-1.377.688-1.721-.688,1.377-.344-.344-1.721-.344-2.065-.344-2.065Z" transform="translate(-165.74 -114.129)" fill="#fff"/>
      <path id="Path_62" data-name="Path 62" d="M676.316,367.116l-.344,2.753-4.819-5.851h1.721Z" transform="translate(-28.473 -31.522)" fill="#ff00a2"/>
      <path id="Path_63" data-name="Path 63" d="M831.951,414s4.819-2.409,6.2.344,10.842,23.4,5.679,30.288-9.981,8.949-9.981,8.949l-1.033.344-5.163-5.507,1.721-2.409s0-2.409,1.377-2.753,1.377.688,1.721-.688-1.377-.344.344-1.721.344-2.065.344-2.065Z" transform="translate(-184.623 -116.951)" fill="#fff"/>
      <path id="Path_64" data-name="Path 64" d="M629.148,321.939l-3.786,15.144,4.474,5.507-2.065-6.884Z" transform="translate(-14.518 -18.699)" opacity="0.2"/>
      <path id="Path_65" data-name="Path 65" d="M811.379,383.836l-2.75,4.588c-1.728-.6-1.872-4.609-1.773-7.252C808.9,381.155,811.379,383.836,811.379,383.836Z" transform="translate(-178.28 -107.245)" opacity="0.2"/>
    </g>
    <text id="ROUTE" transform="translate(27 149)" fill="#ffb64e" font-size="92" font-family="Arial-BoldMT, Arial" font-weight="700"><tspan x="0" y="0">ROUTE</tspan></text>
    <line id="Line_1" data-name="Line 1" x2="352" transform="translate(11.5 718.5)" fill="none" stroke="rgba(255,250,250,0.5)" stroke-width="1"/>
    <rect id="Rectangle_7" data-name="Rectangle 7" width="327" height="60" rx="5" transform="translate(24 195)" fill="#ffb64e"/>
    <rect id="Rectangle_17" data-name="Rectangle 17" width="327" height="60" rx="5" transform="translate(24 270)" fill="#ffb64e"/>
    <rect id="Rectangle_18" data-name="Rectangle 18" width="327" height="60" rx="5" transform="translate(24 345)" fill="#ffb64e"/>
    <rect id="Rectangle_19" data-name="Rectangle 19" width="327" height="60" rx="5" transform="translate(24 420)" fill="#ffb64e"/>
    <rect id="Rectangle_20" data-name="Rectangle 20" width="327" height="60" rx="5" transform="translate(24 495)" fill="#ffb64e"/>
    <rect id="Rectangle_21" data-name="Rectangle 21" width="327" height="60" rx="5" transform="translate(24 570)" fill="#ffb64e"/>
    <rect id="Rectangle_22" data-name="Rectangle 22" width="327" height="60" rx="5" transform="translate(24 645)" fill="#ffb64e"/>
    <text id="Run_One" data-name="Run One" transform="translate(136 234)" fill="#ff00a1" font-size="25" font-family="Arial-BoldMT, Arial" font-weight="700"><tspan x="0" y="0">Run One</tspan></text>
    <text id="Run_One-2" data-name="Run One" transform="translate(136 309)" fill="#ff00a1" font-size="25" font-family="Arial-BoldMT, Arial" font-weight="700"><tspan x="0" y="0">Run One</tspan></text>
    <text id="Run_One-3" data-name="Run One" transform="translate(136 384)" fill="#ff00a1" font-size="25" font-family="Arial-BoldMT, Arial" font-weight="700"><tspan x="0" y="0">Run One</tspan></text>
    <text id="Run_One-4" data-name="Run One" transform="translate(136 459)" fill="#ff00a1" font-size="25" font-family="Arial-BoldMT, Arial" font-weight="700"><tspan x="0" y="0">Run One</tspan></text>
    <text id="Run_One-5" data-name="Run One" transform="translate(136 534)" fill="#ff00a1" font-size="25" font-family="Arial-BoldMT, Arial" font-weight="700"><tspan x="0" y="0">Run One</tspan></text>
    <text id="Run_One-6" data-name="Run One" transform="translate(136 609)" fill="#ff00a1" font-size="25" font-family="Arial-BoldMT, Arial" font-weight="700"><tspan x="0" y="0">Run One</tspan></text>
    <text id="Run_One-7" data-name="Run One" transform="translate(136 684)" fill="#ff00a1" font-size="25" font-family="Arial-BoldMT, Arial" font-weight="700"><tspan x="0" y="0">Run One</tspan></text>
    <path id="ic_home_24px" d="M13.657,27.771V19.028h5.829v8.743h7.286V16.114h4.371L16.571,3,2,16.114H6.371V27.771Z" transform="translate(20 742.457)" fill="#fff"/>
    <path id="ic_add_circle_24px" d="M16.571,2A14.571,14.571,0,1,0,31.143,16.571,14.577,14.577,0,0,0,16.571,2Zm7.286,16.028H18.029v5.829H15.114V18.028H9.286V15.114h5.829V9.286h2.914v5.829h5.829Z" transform="translate(90.486 743)" fill="#fff"/>
    <path id="ic_create_24px" d="M3,23.765V29.23H8.464L24.58,13.114,19.116,7.649ZM28.806,8.888a1.451,1.451,0,0,0,0-2.055L25.4,3.424a1.451,1.451,0,0,0-2.055,0L20.675,6.09l5.464,5.464,2.667-2.667Z" transform="translate(172.971 744.002)" fill="#fff"/>
    <path id="ic_visibility_24px" d="M17.029,4.5A17.233,17.233,0,0,0,1,15.429a17.219,17.219,0,0,0,32.057,0A17.233,17.233,0,0,0,17.029,4.5Zm0,18.214a7.286,7.286,0,1,1,7.286-7.286A7.288,7.288,0,0,1,17.029,22.714Zm0-11.657A4.371,4.371,0,1,0,21.4,15.429,4.366,4.366,0,0,0,17.029,11.057Z" transform="translate(242.543 744.957)" fill="#fff"/>
    <path id="ic_timeline_24px" d="M33.057,8.914a2.923,2.923,0,0,1-2.914,2.914,2.477,2.477,0,0,1-.743-.1L24.212,16.9a2.574,2.574,0,0,1,.1.758,2.914,2.914,0,0,1-5.829,0,2.574,2.574,0,0,1,.1-.758l-3.716-3.716a2.865,2.865,0,0,1-1.515,0l-6.63,6.645a2.477,2.477,0,0,1,.1.743,2.914,2.914,0,1,1-2.914-2.914,2.477,2.477,0,0,1,.743.1l6.645-6.63a2.574,2.574,0,0,1-.1-.758,2.914,2.914,0,0,1,5.829,0,2.574,2.574,0,0,1-.1.758l3.716,3.716a2.865,2.865,0,0,1,1.515,0l5.173-5.187a2.477,2.477,0,0,1-.1-.743,2.914,2.914,0,0,1,5.829,0Z" transform="translate(320.943 743.457)" fill="#ffb64e"/>
  </g>
</svg>
