<svg xmlns="http://www.w3.org/2000/svg" width="359" height="796" viewBox="0 0 359 796">
  <g id="Group_4" data-name="Group 4" transform="translate(-8 -8)">
    <g id="Rectangle_5" data-name="Rectangle 5" transform="translate(8 8)" fill="#ff0e0e" stroke="#000" stroke-width="2">
      <rect width="359" height="796" rx="22" stroke="none"/>
      <rect x="1" y="1" width="357" height="794" rx="21" fill="none"/>
    </g>
    <rect id="Rectangle_3" data-name="Rectangle 3" width="330" height="159" rx="7" transform="translate(23 32)" fill="#ff0e0e"/>
    <g id="undraw_online_posts_h475" transform="translate(-399 -229.122)">
      <circle id="Ellipse_2" data-name="Ellipse 2" cx="10.864" cy="10.864" r="10.864" transform="translate(495.56 256.27)" fill="#83462e"/>
      <path id="Path_3" data-name="Path 3" d="M859.169,399.7s-.164,6.706.491,6.869-9,2.78-9,2.78l-.981-9.159Z" transform="translate(-347.025 -125.339)" fill="#4894f8"/>
      <path id="Path_4" data-name="Path 4" d="M646.426,558.568s-7.2,0-7.36-.818-1.636,6.706-1.636,6.706l2.944.981s5.561-2.453,6.051-2.453S646.426,558.568,646.426,558.568Z" transform="translate(-210.499 -226.959)" fill="#4895f9"/>
      <path id="Path_5" data-name="Path 5" d="M629.328,545.641s1.308-4.416,2.944-4.58c0,0-5.561-3.6-5.724-4.743s-2.126-4.089-2.944-3.108-.818,16.519.654,18.155,8.014-2.3,8.014-2.3S628.183,547.276,629.328,545.641Z" transform="translate(-201.252 -211.087)" fill="#4593fa"/>
      <path id="Path_6" data-name="Path 6" d="M679.762,664.793l1.308,7.033-6.052.982v-8.014Z" transform="translate(-162.876 -267.598)" fill="#4895f9"/>
      <path id="Path_7" data-name="Path 7" d="M876.283,756.592s.981-3.108,1.636-2.617,1.636,3.6,1.472,4.416-1.308,7.2-.818,8.341-2.453,7.033-6.215,6.542-3.435-3.762-3.435-3.762l1.308-5.07.491-8.014S874.975,755.774,876.283,756.592Z" transform="translate(-359.397 -353.182)" fill="#4895f9"/>
      <circle id="Ellipse_3" data-name="Ellipse 3" cx="4.495" cy="4.495" r="4.495" transform="translate(505.729 251.204)" fill="#83462e"/>
      <path id="Path_8" data-name="Path 8" d="M880.43,332.456a4.5,4.5,0,0,0-4.027-4.471,4.55,4.55,0,0,1,.468-.024,4.5,4.5,0,1,1-.468,8.966,4.5,4.5,0,0,0,4.027-4.471Z" transform="translate(-364.213 -79.191)" fill="#83462e"/>
      <circle id="Ellipse_4" data-name="Ellipse 4" cx="6.869" cy="6.869" r="6.869" transform="translate(499.55 265.206)" fill="#4895f9"/>
      <path id="Path_9" data-name="Path 9" d="M741.993,525.616s-.327,8.178-1.635,12.43-6.026,34.537-5.044,36.827,6.026,27.614,4.881,29.086-6.542.981-6.542.981l-7.334-30.721s1.446-33.883-10.657-34.7-31.893-1.308-31.893-1.308-12.757,3.762-18.482,3.6a20.359,20.359,0,0,0-9,1.472l-.981-6.706,25.351-5.561s23.225-8.014,35.982-5.888A98.184,98.184,0,0,0,741.993,525.616Z" transform="translate(-221.999 -205.782)" fill="#f8ee00"/>
      <path id="Path_10" data-name="Path 10" d="M841.642,412.082s1.963-1.145,2.453,0,3.925,2.126,5.234,1.145,4.58.327,4.58.327l3.6,10.631s-1.8,9.159-3.435,14.229-2.29,15.538-1.636,16.519-13.084,4.907-19.79,2.453-8.178-5.234-8.178-5.234,7.36-10.467,4.907-15.374-.491-10.467-.491-10.467l-.981-5.561,5.561-3.108s.327-2.944,1.635-2.944S841.642,412.082,841.642,412.082Z" transform="translate(-330.807 -132.973)"/>
      <path id="Path_11" data-name="Path 11" d="M833.414,437.754H830.96a5.491,5.491,0,0,0-1.635,5.07c.654,3.108,3.6,13.41,3.6,13.41l2.447-6.377Z" transform="translate(-333.864 -149.814)"/>
      <path id="Path_12" data-name="Path 12" d="M816.508,511.375s-4.895,5.3-1.3,8.08,4.485-6.379,4.485-6.379Z" transform="translate(-324.003 -197.169)" fill="#4895f9"/>
      <path id="Path_13" data-name="Path 13" d="M823.28,480.388l-1.145,4.58-1.963,3.6s-6.706,4.416-6.706,6.052c0,0,2.944-3.762,6.706,0l3.353-8.1Z" transform="translate(-323.73 -177.237)"/>
      <ellipse id="Ellipse_5" data-name="Ellipse 5" cx="7.492" cy="4.495" rx="7.492" ry="4.495" transform="translate(497.668 260.335)" fill="#83462e"/>
      <path id="Path_14" data-name="Path 14" d="M884.391,371.168s-5.234-2.944-7.36-.818,6.379,5.4,6.379,5.4Z" transform="translate(-364.397 -105.961)" fill="#4895f9"/>
      <path id="Path_15" data-name="Path 15" d="M893.456,388.105l1.145-.818s1.308-1.963,2.453-1.308,7.851-2.453,7.851-2.453-2.453,1.145-2.453-.818-.327-1.636-1.963-1.636-1.636.818-2.29-.327-.327-1.8-1.472-1.145a2.3,2.3,0,0,1-2.78-.327c-.327-.491-6.215-1.308-6.215-1.308s2.29-6.706,2.78-7.2,13.084,5.07,13.084,5.07,15.865,4.416,11.776,9.486-18.809,12.757-18.809,12.757Z" transform="translate(-371.5 -106.707)"/>
    </g>
    <text id="VIEW" transform="translate(28 165)" fill="#ff8a69" font-size="125" font-family="Arial-BoldMT, Arial" font-weight="700"><tspan x="0" y="0">VIEW</tspan></text>
    <line id="Line_1" data-name="Line 1" x2="352" transform="translate(9.5 718.5)" fill="none" stroke="rgba(255,250,250,0.5)" stroke-width="1"/>
    <rect id="Rectangle_7" data-name="Rectangle 7" width="327" height="60" rx="5" transform="translate(24 195)" fill="#ff8a69"/>
    <rect id="Rectangle_17" data-name="Rectangle 17" width="327" height="60" rx="5" transform="translate(24 270)" fill="#ff8a69"/>
    <rect id="Rectangle_18" data-name="Rectangle 18" width="327" height="60" rx="5" transform="translate(24 345)" fill="#ff8a69"/>
    <rect id="Rectangle_19" data-name="Rectangle 19" width="327" height="60" rx="5" transform="translate(24 420)" fill="#ff8a69"/>
    <rect id="Rectangle_20" data-name="Rectangle 20" width="327" height="60" rx="5" transform="translate(24 495)" fill="#ff8a69"/>
    <rect id="Rectangle_21" data-name="Rectangle 21" width="327" height="60" rx="5" transform="translate(24 570)" fill="#ff8a69"/>
    <rect id="Rectangle_22" data-name="Rectangle 22" width="327" height="60" rx="5" transform="translate(24 645)" fill="#ff8a69"/>
    <line id="Line_8" data-name="Line 8" y2="523" transform="translate(187.5 195.5)" fill="none" stroke="#ff0e0e" stroke-width="1"/>
    <text id="Run_One" data-name="Run One" transform="translate(44 234)" font-size="25" font-family="Arial-BoldMT, Arial" font-weight="700"><tspan x="0" y="0">Run One</tspan></text>
    <text id="Run_One-2" data-name="Run One" transform="translate(44 309)" font-size="25" font-family="Arial-BoldMT, Arial" font-weight="700"><tspan x="0" y="0">Run One</tspan></text>
    <text id="Run_One-3" data-name="Run One" transform="translate(44 384)" font-size="25" font-family="Arial-BoldMT, Arial" font-weight="700"><tspan x="0" y="0">Run One</tspan></text>
    <text id="Run_One-4" data-name="Run One" transform="translate(44 459)" font-size="25" font-family="Arial-BoldMT, Arial" font-weight="700"><tspan x="0" y="0">Run One</tspan></text>
    <text id="Run_One-5" data-name="Run One" transform="translate(44 534)" font-size="25" font-family="Arial-BoldMT, Arial" font-weight="700"><tspan x="0" y="0">Run One</tspan></text>
    <text id="Run_One-6" data-name="Run One" transform="translate(44 609)" font-size="25" font-family="Arial-BoldMT, Arial" font-weight="700"><tspan x="0" y="0">Run One</tspan></text>
    <text id="Run_One-7" data-name="Run One" transform="translate(44 684)" font-size="25" font-family="Arial-BoldMT, Arial" font-weight="700"><tspan x="0" y="0">Run One</tspan></text>
    <text id="_01_01_01" data-name="01/01/01" transform="translate(217 234)" fill="#ff0e0e" font-size="25" font-family="ArialMT, Arial"><tspan x="0" y="0">01/01/01</tspan></text>
    <text id="_01_01_01-2" data-name="01/01/01" transform="translate(217 309)" fill="#ff0e0e" font-size="25" font-family="ArialMT, Arial"><tspan x="0" y="0">01/01/01</tspan></text>
    <text id="_01_01_01-3" data-name="01/01/01" transform="translate(217 384)" fill="#ff0e0e" font-size="25" font-family="ArialMT, Arial"><tspan x="0" y="0">01/01/01</tspan></text>
    <text id="_01_01_01-4" data-name="01/01/01" transform="translate(217 459)" fill="#ff0e0e" font-size="25" font-family="ArialMT, Arial"><tspan x="0" y="0">01/01/01</tspan></text>
    <text id="_01_01_01-5" data-name="01/01/01" transform="translate(217 534)" fill="#ff0e0e" font-size="25" font-family="ArialMT, Arial"><tspan x="0" y="0">01/01/01</tspan></text>
    <text id="_01_01_01-6" data-name="01/01/01" transform="translate(217 609)" fill="#ff0e0e" font-size="25" font-family="ArialMT, Arial"><tspan x="0" y="0">01/01/01</tspan></text>
    <text id="_01_01_01-7" data-name="01/01/01" transform="translate(217 684)" fill="#ff0e0e" font-size="25" font-family="ArialMT, Arial"><tspan x="0" y="0">01/01/01</tspan></text>
    <path id="ic_home_24px" d="M13.657,27.771V19.028h5.829v8.743h7.286V16.114h4.371L16.571,3,2,16.114H6.371V27.771Z" transform="translate(20 742.457)" fill="#fff"/>
    <path id="ic_add_circle_24px" d="M16.571,2A14.571,14.571,0,1,0,31.143,16.571,14.577,14.577,0,0,0,16.571,2Zm7.286,16.028H18.029v5.829H15.114V18.028H9.286V15.114h5.829V9.286h2.914v5.829h5.829Z" transform="translate(90.486 743)" fill="#fff"/>
    <path id="ic_create_24px" d="M3,23.765V29.23H8.464L24.58,13.114,19.116,7.649ZM28.806,8.888a1.451,1.451,0,0,0,0-2.055L25.4,3.424a1.451,1.451,0,0,0-2.055,0L20.675,6.09l5.464,5.464,2.667-2.667Z" transform="translate(172.971 744.002)" fill="#fff"/>
    <path id="ic_visibility_24px" d="M17.029,4.5A17.233,17.233,0,0,0,1,15.429a17.219,17.219,0,0,0,32.057,0A17.233,17.233,0,0,0,17.029,4.5Zm0,18.214a7.286,7.286,0,1,1,7.286-7.286A7.288,7.288,0,0,1,17.029,22.714Zm0-11.657A4.371,4.371,0,1,0,21.4,15.429,4.366,4.366,0,0,0,17.029,11.057Z" transform="translate(242.543 744.957)" fill="#ff8a69"/>
    <path id="ic_timeline_24px" d="M33.057,8.914a2.923,2.923,0,0,1-2.914,2.914,2.477,2.477,0,0,1-.743-.1L24.212,16.9a2.574,2.574,0,0,1,.1.758,2.914,2.914,0,0,1-5.829,0,2.574,2.574,0,0,1,.1-.758l-3.716-3.716a2.865,2.865,0,0,1-1.515,0l-6.63,6.645a2.477,2.477,0,0,1,.1.743,2.914,2.914,0,1,1-2.914-2.914,2.477,2.477,0,0,1,.743.1l6.645-6.63a2.574,2.574,0,0,1-.1-.758,2.914,2.914,0,0,1,5.829,0,2.574,2.574,0,0,1-.1.758l3.716,3.716a2.865,2.865,0,0,1,1.515,0l5.173-5.187a2.477,2.477,0,0,1-.1-.743,2.914,2.914,0,0,1,5.829,0Z" transform="translate(320.943 743.457)" fill="#fff"/>
  </g>
</svg>
