<svg xmlns="http://www.w3.org/2000/svg" width="70" height="118" viewBox="0 0 70 118">
  <g id="Group_5" data-name="Group 5" transform="translate(-246 -694)">
    <circle id="Ellipse_3081" data-name="Ellipse 3081" cx="2" cy="2" r="2" transform="translate(246 694)" fill="#fff"/>
    <circle id="Ellipse_3082" data-name="Ellipse 3082" cx="2" cy="2" r="2" transform="translate(252 694)" fill="#fff"/>
    <circle id="Ellipse_3083" data-name="Ellipse 3083" cx="2" cy="2" r="2" transform="translate(258 694)" fill="#fff"/>
    <circle id="Ellipse_3084" data-name="Ellipse 3084" cx="2" cy="2" r="2" transform="translate(246 700)" fill="#fff"/>
    <circle id="Ellipse_3085" data-name="Ellipse 3085" cx="2" cy="2" r="2" transform="translate(252 700)" fill="#fff"/>
    <circle id="Ellipse_3086" data-name="Ellipse 3086" cx="2" cy="2" r="2" transform="translate(258 700)" fill="#fff"/>
    <circle id="Ellipse_3087" data-name="Ellipse 3087" cx="2" cy="2" r="2" transform="translate(246 706)" fill="#fff"/>
    <circle id="Ellipse_3088" data-name="Ellipse 3088" cx="2" cy="2" r="2" transform="translate(252 706)" fill="#fff"/>
    <circle id="Ellipse_3089" data-name="Ellipse 3089" cx="2" cy="2" r="2" transform="translate(258 706)" fill="#fff"/>
    <circle id="Ellipse_3090" data-name="Ellipse 3090" cx="2" cy="2" r="2" transform="translate(246 712)" fill="#fff"/>
    <circle id="Ellipse_3091" data-name="Ellipse 3091" cx="2" cy="2" r="2" transform="translate(252 712)" fill="#fff"/>
    <circle id="Ellipse_3092" data-name="Ellipse 3092" cx="2" cy="2" r="2" transform="translate(258 712)" fill="#fff"/>
    <circle id="Ellipse_3093" data-name="Ellipse 3093" cx="2" cy="2" r="2" transform="translate(246 718)" fill="#fff"/>
    <circle id="Ellipse_3094" data-name="Ellipse 3094" cx="2" cy="2" r="2" transform="translate(252 718)" fill="#fff"/>
    <circle id="Ellipse_3095" data-name="Ellipse 3095" cx="2" cy="2" r="2" transform="translate(258 718)" fill="#fff"/>
    <circle id="Ellipse_3096" data-name="Ellipse 3096" cx="2" cy="2" r="2" transform="translate(246 724)" fill="#fff"/>
    <circle id="Ellipse_3097" data-name="Ellipse 3097" cx="2" cy="2" r="2" transform="translate(252 724)" fill="#fff"/>
    <circle id="Ellipse_3098" data-name="Ellipse 3098" cx="2" cy="2" r="2" transform="translate(258 724)" fill="#fff"/>
    <circle id="Ellipse_3099" data-name="Ellipse 3099" cx="2" cy="2" r="2" transform="translate(246 730)" fill="#fff"/>
    <circle id="Ellipse_3100" data-name="Ellipse 3100" cx="2" cy="2" r="2" transform="translate(252 730)" fill="#fff"/>
    <circle id="Ellipse_3101" data-name="Ellipse 3101" cx="2" cy="2" r="2" transform="translate(258 730)" fill="#fff"/>
    <circle id="Ellipse_3102" data-name="Ellipse 3102" cx="2" cy="2" r="2" transform="translate(246 736)" fill="#fff"/>
    <circle id="Ellipse_3103" data-name="Ellipse 3103" cx="2" cy="2" r="2" transform="translate(252 736)" fill="#fff"/>
    <circle id="Ellipse_3104" data-name="Ellipse 3104" cx="2" cy="2" r="2" transform="translate(258 736)" fill="#fff"/>
    <circle id="Ellipse_3105" data-name="Ellipse 3105" cx="2" cy="2" r="2" transform="translate(246 742)" fill="#fff"/>
    <circle id="Ellipse_3106" data-name="Ellipse 3106" cx="2" cy="2" r="2" transform="translate(252 742)" fill="#fff"/>
    <circle id="Ellipse_3107" data-name="Ellipse 3107" cx="2" cy="2" r="2" transform="translate(258 742)" fill="#fff"/>
    <circle id="Ellipse_3114" data-name="Ellipse 3114" cx="2" cy="2" r="2" transform="translate(264 694)" fill="#fff"/>
    <circle id="Ellipse_3115" data-name="Ellipse 3115" cx="2" cy="2" r="2" transform="translate(270 694)" fill="#fff"/>
    <circle id="Ellipse_3116" data-name="Ellipse 3116" cx="2" cy="2" r="2" transform="translate(276 694)" fill="#fff"/>
    <circle id="Ellipse_3117" data-name="Ellipse 3117" cx="2" cy="2" r="2" transform="translate(264 700)" fill="#fff"/>
    <circle id="Ellipse_3118" data-name="Ellipse 3118" cx="2" cy="2" r="2" transform="translate(270 700)" fill="#fff"/>
    <circle id="Ellipse_3119" data-name="Ellipse 3119" cx="2" cy="2" r="2" transform="translate(276 700)" fill="#fff"/>
    <circle id="Ellipse_3120" data-name="Ellipse 3120" cx="2" cy="2" r="2" transform="translate(264 706)" fill="#fff"/>
    <circle id="Ellipse_3121" data-name="Ellipse 3121" cx="2" cy="2" r="2" transform="translate(270 706)" fill="#fff"/>
    <circle id="Ellipse_3122" data-name="Ellipse 3122" cx="2" cy="2" r="2" transform="translate(276 706)" fill="#fff"/>
    <circle id="Ellipse_3123" data-name="Ellipse 3123" cx="2" cy="2" r="2" transform="translate(264 712)" fill="#fff"/>
    <circle id="Ellipse_3124" data-name="Ellipse 3124" cx="2" cy="2" r="2" transform="translate(270 712)" fill="#fff"/>
    <circle id="Ellipse_3125" data-name="Ellipse 3125" cx="2" cy="2" r="2" transform="translate(276 712)" fill="#fff"/>
    <circle id="Ellipse_3126" data-name="Ellipse 3126" cx="2" cy="2" r="2" transform="translate(264 718)" fill="#fff"/>
    <circle id="Ellipse_3127" data-name="Ellipse 3127" cx="2" cy="2" r="2" transform="translate(270 718)" fill="#fff"/>
    <circle id="Ellipse_3128" data-name="Ellipse 3128" cx="2" cy="2" r="2" transform="translate(276 718)" fill="#fff"/>
    <circle id="Ellipse_3129" data-name="Ellipse 3129" cx="2" cy="2" r="2" transform="translate(264 724)" fill="#fff"/>
    <circle id="Ellipse_3130" data-name="Ellipse 3130" cx="2" cy="2" r="2" transform="translate(270 724)" fill="#fff"/>
    <circle id="Ellipse_3131" data-name="Ellipse 3131" cx="2" cy="2" r="2" transform="translate(276 724)" fill="#fff"/>
    <circle id="Ellipse_3132" data-name="Ellipse 3132" cx="2" cy="2" r="2" transform="translate(264 730)" fill="#fff"/>
    <circle id="Ellipse_3133" data-name="Ellipse 3133" cx="2" cy="2" r="2" transform="translate(270 730)" fill="#fff"/>
    <circle id="Ellipse_3134" data-name="Ellipse 3134" cx="2" cy="2" r="2" transform="translate(276 730)" fill="#fff"/>
    <circle id="Ellipse_3135" data-name="Ellipse 3135" cx="2" cy="2" r="2" transform="translate(264 736)" fill="#fff"/>
    <circle id="Ellipse_3136" data-name="Ellipse 3136" cx="2" cy="2" r="2" transform="translate(270 736)" fill="#fff"/>
    <circle id="Ellipse_3137" data-name="Ellipse 3137" cx="2" cy="2" r="2" transform="translate(276 736)" fill="#fff"/>
    <circle id="Ellipse_3138" data-name="Ellipse 3138" cx="2" cy="2" r="2" transform="translate(264 742)" fill="#fff"/>
    <circle id="Ellipse_3139" data-name="Ellipse 3139" cx="2" cy="2" r="2" transform="translate(270 742)" fill="#fff"/>
    <circle id="Ellipse_3140" data-name="Ellipse 3140" cx="2" cy="2" r="2" transform="translate(276 742)" fill="#fff"/>
    <circle id="Ellipse_3141" data-name="Ellipse 3141" cx="2" cy="2" r="2" transform="translate(246 748)" fill="#fff"/>
    <circle id="Ellipse_3142" data-name="Ellipse 3142" cx="2" cy="2" r="2" transform="translate(252 748)" fill="#fff"/>
    <circle id="Ellipse_3143" data-name="Ellipse 3143" cx="2" cy="2" r="2" transform="translate(258 748)" fill="#fff"/>
    <circle id="Ellipse_3144" data-name="Ellipse 3144" cx="2" cy="2" r="2" transform="translate(246 754)" fill="#fff"/>
    <circle id="Ellipse_3145" data-name="Ellipse 3145" cx="2" cy="2" r="2" transform="translate(252 754)" fill="#fff"/>
    <circle id="Ellipse_3146" data-name="Ellipse 3146" cx="2" cy="2" r="2" transform="translate(258 754)" fill="#fff"/>
    <circle id="Ellipse_3147" data-name="Ellipse 3147" cx="2" cy="2" r="2" transform="translate(246 760)" fill="#fff"/>
    <circle id="Ellipse_3148" data-name="Ellipse 3148" cx="2" cy="2" r="2" transform="translate(252 760)" fill="#fff"/>
    <circle id="Ellipse_3149" data-name="Ellipse 3149" cx="2" cy="2" r="2" transform="translate(258 760)" fill="#fff"/>
    <circle id="Ellipse_3150" data-name="Ellipse 3150" cx="2" cy="2" r="2" transform="translate(246 766)" fill="#fff"/>
    <circle id="Ellipse_3151" data-name="Ellipse 3151" cx="2" cy="2" r="2" transform="translate(252 766)" fill="#fff"/>
    <circle id="Ellipse_3152" data-name="Ellipse 3152" cx="2" cy="2" r="2" transform="translate(258 766)" fill="#fff"/>
    <circle id="Ellipse_3153" data-name="Ellipse 3153" cx="2" cy="2" r="2" transform="translate(246 772)" fill="#fff"/>
    <circle id="Ellipse_3154" data-name="Ellipse 3154" cx="2" cy="2" r="2" transform="translate(252 772)" fill="#fff"/>
    <circle id="Ellipse_3155" data-name="Ellipse 3155" cx="2" cy="2" r="2" transform="translate(258 772)" fill="#fff"/>
    <circle id="Ellipse_3156" data-name="Ellipse 3156" cx="2" cy="2" r="2" transform="translate(246 778)" fill="#fff"/>
    <circle id="Ellipse_3157" data-name="Ellipse 3157" cx="2" cy="2" r="2" transform="translate(252 778)" fill="#fff"/>
    <circle id="Ellipse_3158" data-name="Ellipse 3158" cx="2" cy="2" r="2" transform="translate(258 778)" fill="#fff"/>
    <circle id="Ellipse_3159" data-name="Ellipse 3159" cx="2" cy="2" r="2" transform="translate(246 784)" fill="#fff"/>
    <circle id="Ellipse_3160" data-name="Ellipse 3160" cx="2" cy="2" r="2" transform="translate(252 784)" fill="#fff"/>
    <circle id="Ellipse_3161" data-name="Ellipse 3161" cx="2" cy="2" r="2" transform="translate(258 784)" fill="#fff"/>
    <circle id="Ellipse_3162" data-name="Ellipse 3162" cx="2" cy="2" r="2" transform="translate(246 790)" fill="#fff"/>
    <circle id="Ellipse_3163" data-name="Ellipse 3163" cx="2" cy="2" r="2" transform="translate(252 790)" fill="#fff"/>
    <circle id="Ellipse_3164" data-name="Ellipse 3164" cx="2" cy="2" r="2" transform="translate(258 790)" fill="#fff"/>
    <circle id="Ellipse_3165" data-name="Ellipse 3165" cx="2" cy="2" r="2" transform="translate(246 796)" fill="#fff"/>
    <circle id="Ellipse_3166" data-name="Ellipse 3166" cx="2" cy="2" r="2" transform="translate(252 796)" fill="#fff"/>
    <circle id="Ellipse_3167" data-name="Ellipse 3167" cx="2" cy="2" r="2" transform="translate(258 796)" fill="#fff"/>
    <circle id="Ellipse_3174" data-name="Ellipse 3174" cx="2" cy="2" r="2" transform="translate(264 748)" fill="#fff"/>
    <circle id="Ellipse_3175" data-name="Ellipse 3175" cx="2" cy="2" r="2" transform="translate(270 748)" fill="#fff"/>
    <circle id="Ellipse_3176" data-name="Ellipse 3176" cx="2" cy="2" r="2" transform="translate(276 748)" fill="#fff"/>
    <circle id="Ellipse_3177" data-name="Ellipse 3177" cx="2" cy="2" r="2" transform="translate(264 754)" fill="#fff"/>
    <circle id="Ellipse_3178" data-name="Ellipse 3178" cx="2" cy="2" r="2" transform="translate(270 754)" fill="#fff"/>
    <circle id="Ellipse_3179" data-name="Ellipse 3179" cx="2" cy="2" r="2" transform="translate(276 754)" fill="#fff"/>
    <circle id="Ellipse_3180" data-name="Ellipse 3180" cx="2" cy="2" r="2" transform="translate(264 760)" fill="#fff"/>
    <circle id="Ellipse_3181" data-name="Ellipse 3181" cx="2" cy="2" r="2" transform="translate(270 760)" fill="#fff"/>
    <circle id="Ellipse_3182" data-name="Ellipse 3182" cx="2" cy="2" r="2" transform="translate(276 760)" fill="#fff"/>
    <circle id="Ellipse_3183" data-name="Ellipse 3183" cx="2" cy="2" r="2" transform="translate(264 766)" fill="#fff"/>
    <circle id="Ellipse_3184" data-name="Ellipse 3184" cx="2" cy="2" r="2" transform="translate(270 766)" fill="#fff"/>
    <circle id="Ellipse_3185" data-name="Ellipse 3185" cx="2" cy="2" r="2" transform="translate(276 766)" fill="#fff"/>
    <circle id="Ellipse_3186" data-name="Ellipse 3186" cx="2" cy="2" r="2" transform="translate(264 772)" fill="#fff"/>
    <circle id="Ellipse_3187" data-name="Ellipse 3187" cx="2" cy="2" r="2" transform="translate(270 772)" fill="#fff"/>
    <circle id="Ellipse_3188" data-name="Ellipse 3188" cx="2" cy="2" r="2" transform="translate(276 772)" fill="#fff"/>
    <circle id="Ellipse_3189" data-name="Ellipse 3189" cx="2" cy="2" r="2" transform="translate(264 778)" fill="#fff"/>
    <circle id="Ellipse_3190" data-name="Ellipse 3190" cx="2" cy="2" r="2" transform="translate(270 778)" fill="#fff"/>
    <circle id="Ellipse_3191" data-name="Ellipse 3191" cx="2" cy="2" r="2" transform="translate(276 778)" fill="#fff"/>
    <circle id="Ellipse_3192" data-name="Ellipse 3192" cx="2" cy="2" r="2" transform="translate(264 784)" fill="#fff"/>
    <circle id="Ellipse_3193" data-name="Ellipse 3193" cx="2" cy="2" r="2" transform="translate(270 784)" fill="#fff"/>
    <circle id="Ellipse_3194" data-name="Ellipse 3194" cx="2" cy="2" r="2" transform="translate(276 784)" fill="#fff"/>
    <circle id="Ellipse_3195" data-name="Ellipse 3195" cx="2" cy="2" r="2" transform="translate(264 790)" fill="#fff"/>
    <circle id="Ellipse_3196" data-name="Ellipse 3196" cx="2" cy="2" r="2" transform="translate(270 790)" fill="#fff"/>
    <circle id="Ellipse_3197" data-name="Ellipse 3197" cx="2" cy="2" r="2" transform="translate(276 790)" fill="#fff"/>
    <circle id="Ellipse_3198" data-name="Ellipse 3198" cx="2" cy="2" r="2" transform="translate(264 796)" fill="#fff"/>
    <circle id="Ellipse_3199" data-name="Ellipse 3199" cx="2" cy="2" r="2" transform="translate(270 796)" fill="#fff"/>
    <circle id="Ellipse_3200" data-name="Ellipse 3200" cx="2" cy="2" r="2" transform="translate(276 796)" fill="#fff"/>
    <circle id="Ellipse_3213" data-name="Ellipse 3213" cx="2" cy="2" r="2" transform="translate(246 694)" fill="#fff"/>
    <circle id="Ellipse_3214" data-name="Ellipse 3214" cx="2" cy="2" r="2" transform="translate(252 694)" fill="#fff"/>
    <circle id="Ellipse_3215" data-name="Ellipse 3215" cx="2" cy="2" r="2" transform="translate(258 694)" fill="#fff"/>
    <circle id="Ellipse_3216" data-name="Ellipse 3216" cx="2" cy="2" r="2" transform="translate(246 700)" fill="#fff"/>
    <circle id="Ellipse_3217" data-name="Ellipse 3217" cx="2" cy="2" r="2" transform="translate(252 700)" fill="#fff"/>
    <circle id="Ellipse_3218" data-name="Ellipse 3218" cx="2" cy="2" r="2" transform="translate(258 700)" fill="#fff"/>
    <circle id="Ellipse_3219" data-name="Ellipse 3219" cx="2" cy="2" r="2" transform="translate(246 706)" fill="#fff"/>
    <circle id="Ellipse_3220" data-name="Ellipse 3220" cx="2" cy="2" r="2" transform="translate(252 706)" fill="#fff"/>
    <circle id="Ellipse_3221" data-name="Ellipse 3221" cx="2" cy="2" r="2" transform="translate(258 706)" fill="#fff"/>
    <circle id="Ellipse_3222" data-name="Ellipse 3222" cx="2" cy="2" r="2" transform="translate(246 712)" fill="#fff"/>
    <circle id="Ellipse_3223" data-name="Ellipse 3223" cx="2" cy="2" r="2" transform="translate(252 712)" fill="#fff"/>
    <circle id="Ellipse_3224" data-name="Ellipse 3224" cx="2" cy="2" r="2" transform="translate(258 712)" fill="#fff"/>
    <circle id="Ellipse_3225" data-name="Ellipse 3225" cx="2" cy="2" r="2" transform="translate(246 718)" fill="#fff"/>
    <circle id="Ellipse_3226" data-name="Ellipse 3226" cx="2" cy="2" r="2" transform="translate(252 718)" fill="#fff"/>
    <circle id="Ellipse_3227" data-name="Ellipse 3227" cx="2" cy="2" r="2" transform="translate(258 718)" fill="#fff"/>
    <circle id="Ellipse_3228" data-name="Ellipse 3228" cx="2" cy="2" r="2" transform="translate(246 724)" fill="#fff"/>
    <circle id="Ellipse_3229" data-name="Ellipse 3229" cx="2" cy="2" r="2" transform="translate(252 724)" fill="#fff"/>
    <circle id="Ellipse_3230" data-name="Ellipse 3230" cx="2" cy="2" r="2" transform="translate(258 724)" fill="#fff"/>
    <circle id="Ellipse_3231" data-name="Ellipse 3231" cx="2" cy="2" r="2" transform="translate(246 730)" fill="#fff"/>
    <circle id="Ellipse_3232" data-name="Ellipse 3232" cx="2" cy="2" r="2" transform="translate(252 730)" fill="#fff"/>
    <circle id="Ellipse_3233" data-name="Ellipse 3233" cx="2" cy="2" r="2" transform="translate(258 730)" fill="#fff"/>
    <circle id="Ellipse_3234" data-name="Ellipse 3234" cx="2" cy="2" r="2" transform="translate(246 736)" fill="#fff"/>
    <circle id="Ellipse_3235" data-name="Ellipse 3235" cx="2" cy="2" r="2" transform="translate(252 736)" fill="#fff"/>
    <circle id="Ellipse_3236" data-name="Ellipse 3236" cx="2" cy="2" r="2" transform="translate(258 736)" fill="#fff"/>
    <circle id="Ellipse_3237" data-name="Ellipse 3237" cx="2" cy="2" r="2" transform="translate(246 742)" fill="#fff"/>
    <circle id="Ellipse_3238" data-name="Ellipse 3238" cx="2" cy="2" r="2" transform="translate(252 742)" fill="#fff"/>
    <circle id="Ellipse_3239" data-name="Ellipse 3239" cx="2" cy="2" r="2" transform="translate(258 742)" fill="#fff"/>
    <circle id="Ellipse_3246" data-name="Ellipse 3246" cx="2" cy="2" r="2" transform="translate(264 694)" fill="#fff"/>
    <circle id="Ellipse_3247" data-name="Ellipse 3247" cx="2" cy="2" r="2" transform="translate(270 694)" fill="#fff"/>
    <circle id="Ellipse_3248" data-name="Ellipse 3248" cx="2" cy="2" r="2" transform="translate(276 694)" fill="#fff"/>
    <circle id="Ellipse_3249" data-name="Ellipse 3249" cx="2" cy="2" r="2" transform="translate(264 700)" fill="#fff"/>
    <circle id="Ellipse_3250" data-name="Ellipse 3250" cx="2" cy="2" r="2" transform="translate(270 700)" fill="#fff"/>
    <circle id="Ellipse_3251" data-name="Ellipse 3251" cx="2" cy="2" r="2" transform="translate(276 700)" fill="#fff"/>
    <circle id="Ellipse_3252" data-name="Ellipse 3252" cx="2" cy="2" r="2" transform="translate(264 706)" fill="#fff"/>
    <circle id="Ellipse_3253" data-name="Ellipse 3253" cx="2" cy="2" r="2" transform="translate(270 706)" fill="#fff"/>
    <circle id="Ellipse_3254" data-name="Ellipse 3254" cx="2" cy="2" r="2" transform="translate(276 706)" fill="#fff"/>
    <circle id="Ellipse_3255" data-name="Ellipse 3255" cx="2" cy="2" r="2" transform="translate(264 712)" fill="#fff"/>
    <circle id="Ellipse_3256" data-name="Ellipse 3256" cx="2" cy="2" r="2" transform="translate(270 712)" fill="#fff"/>
    <circle id="Ellipse_3257" data-name="Ellipse 3257" cx="2" cy="2" r="2" transform="translate(276 712)" fill="#fff"/>
    <circle id="Ellipse_3258" data-name="Ellipse 3258" cx="2" cy="2" r="2" transform="translate(264 718)" fill="#fff"/>
    <circle id="Ellipse_3259" data-name="Ellipse 3259" cx="2" cy="2" r="2" transform="translate(270 718)" fill="#fff"/>
    <circle id="Ellipse_3260" data-name="Ellipse 3260" cx="2" cy="2" r="2" transform="translate(276 718)" fill="#fff"/>
    <circle id="Ellipse_3261" data-name="Ellipse 3261" cx="2" cy="2" r="2" transform="translate(264 724)" fill="#fff"/>
    <circle id="Ellipse_3262" data-name="Ellipse 3262" cx="2" cy="2" r="2" transform="translate(270 724)" fill="#fff"/>
    <circle id="Ellipse_3263" data-name="Ellipse 3263" cx="2" cy="2" r="2" transform="translate(276 724)" fill="#fff"/>
    <circle id="Ellipse_3264" data-name="Ellipse 3264" cx="2" cy="2" r="2" transform="translate(264 730)" fill="#fff"/>
    <circle id="Ellipse_3265" data-name="Ellipse 3265" cx="2" cy="2" r="2" transform="translate(270 730)" fill="#fff"/>
    <circle id="Ellipse_3266" data-name="Ellipse 3266" cx="2" cy="2" r="2" transform="translate(276 730)" fill="#fff"/>
    <circle id="Ellipse_3267" data-name="Ellipse 3267" cx="2" cy="2" r="2" transform="translate(264 736)" fill="#fff"/>
    <circle id="Ellipse_3268" data-name="Ellipse 3268" cx="2" cy="2" r="2" transform="translate(270 736)" fill="#fff"/>
    <circle id="Ellipse_3269" data-name="Ellipse 3269" cx="2" cy="2" r="2" transform="translate(276 736)" fill="#fff"/>
    <circle id="Ellipse_3270" data-name="Ellipse 3270" cx="2" cy="2" r="2" transform="translate(264 742)" fill="#fff"/>
    <circle id="Ellipse_3271" data-name="Ellipse 3271" cx="2" cy="2" r="2" transform="translate(270 742)" fill="#fff"/>
    <circle id="Ellipse_3272" data-name="Ellipse 3272" cx="2" cy="2" r="2" transform="translate(276 742)" fill="#fff"/>
    <circle id="Ellipse_3273" data-name="Ellipse 3273" cx="2" cy="2" r="2" transform="translate(246 748)" fill="#fff"/>
    <circle id="Ellipse_3274" data-name="Ellipse 3274" cx="2" cy="2" r="2" transform="translate(252 748)" fill="#fff"/>
    <circle id="Ellipse_3275" data-name="Ellipse 3275" cx="2" cy="2" r="2" transform="translate(258 748)" fill="#fff"/>
    <circle id="Ellipse_3276" data-name="Ellipse 3276" cx="2" cy="2" r="2" transform="translate(246 754)" fill="#fff"/>
    <circle id="Ellipse_3277" data-name="Ellipse 3277" cx="2" cy="2" r="2" transform="translate(252 754)" fill="#fff"/>
    <circle id="Ellipse_3278" data-name="Ellipse 3278" cx="2" cy="2" r="2" transform="translate(258 754)" fill="#fff"/>
    <circle id="Ellipse_3279" data-name="Ellipse 3279" cx="2" cy="2" r="2" transform="translate(246 760)" fill="#fff"/>
    <circle id="Ellipse_3280" data-name="Ellipse 3280" cx="2" cy="2" r="2" transform="translate(252 760)" fill="#fff"/>
    <circle id="Ellipse_3281" data-name="Ellipse 3281" cx="2" cy="2" r="2" transform="translate(258 760)" fill="#fff"/>
    <circle id="Ellipse_3282" data-name="Ellipse 3282" cx="2" cy="2" r="2" transform="translate(246 766)" fill="#fff"/>
    <circle id="Ellipse_3283" data-name="Ellipse 3283" cx="2" cy="2" r="2" transform="translate(252 766)" fill="#fff"/>
    <circle id="Ellipse_3284" data-name="Ellipse 3284" cx="2" cy="2" r="2" transform="translate(258 766)" fill="#fff"/>
    <circle id="Ellipse_3285" data-name="Ellipse 3285" cx="2" cy="2" r="2" transform="translate(246 772)" fill="#fff"/>
    <circle id="Ellipse_3286" data-name="Ellipse 3286" cx="2" cy="2" r="2" transform="translate(252 772)" fill="#fff"/>
    <circle id="Ellipse_3287" data-name="Ellipse 3287" cx="2" cy="2" r="2" transform="translate(258 772)" fill="#fff"/>
    <circle id="Ellipse_3288" data-name="Ellipse 3288" cx="2" cy="2" r="2" transform="translate(246 778)" fill="#fff"/>
    <circle id="Ellipse_3289" data-name="Ellipse 3289" cx="2" cy="2" r="2" transform="translate(252 778)" fill="#fff"/>
    <circle id="Ellipse_3290" data-name="Ellipse 3290" cx="2" cy="2" r="2" transform="translate(258 778)" fill="#fff"/>
    <circle id="Ellipse_3291" data-name="Ellipse 3291" cx="2" cy="2" r="2" transform="translate(246 784)" fill="#fff"/>
    <circle id="Ellipse_3292" data-name="Ellipse 3292" cx="2" cy="2" r="2" transform="translate(252 784)" fill="#fff"/>
    <circle id="Ellipse_3293" data-name="Ellipse 3293" cx="2" cy="2" r="2" transform="translate(258 784)" fill="#fff"/>
    <circle id="Ellipse_3294" data-name="Ellipse 3294" cx="2" cy="2" r="2" transform="translate(246 790)" fill="#fff"/>
    <circle id="Ellipse_3295" data-name="Ellipse 3295" cx="2" cy="2" r="2" transform="translate(252 790)" fill="#fff"/>
    <circle id="Ellipse_3296" data-name="Ellipse 3296" cx="2" cy="2" r="2" transform="translate(258 790)" fill="#fff"/>
    <circle id="Ellipse_3297" data-name="Ellipse 3297" cx="2" cy="2" r="2" transform="translate(246 796)" fill="#fff"/>
    <circle id="Ellipse_3298" data-name="Ellipse 3298" cx="2" cy="2" r="2" transform="translate(252 796)" fill="#fff"/>
    <circle id="Ellipse_3299" data-name="Ellipse 3299" cx="2" cy="2" r="2" transform="translate(258 796)" fill="#fff"/>
    <circle id="Ellipse_3303" data-name="Ellipse 3303" cx="2" cy="2" r="2" transform="translate(264 748)" fill="#fff"/>
    <circle id="Ellipse_3304" data-name="Ellipse 3304" cx="2" cy="2" r="2" transform="translate(270 748)" fill="#fff"/>
    <circle id="Ellipse_3305" data-name="Ellipse 3305" cx="2" cy="2" r="2" transform="translate(276 748)" fill="#fff"/>
    <circle id="Ellipse_3306" data-name="Ellipse 3306" cx="2" cy="2" r="2" transform="translate(264 754)" fill="#fff"/>
    <circle id="Ellipse_3307" data-name="Ellipse 3307" cx="2" cy="2" r="2" transform="translate(270 754)" fill="#fff"/>
    <circle id="Ellipse_3308" data-name="Ellipse 3308" cx="2" cy="2" r="2" transform="translate(276 754)" fill="#fff"/>
    <circle id="Ellipse_3309" data-name="Ellipse 3309" cx="2" cy="2" r="2" transform="translate(264 760)" fill="#fff"/>
    <circle id="Ellipse_3310" data-name="Ellipse 3310" cx="2" cy="2" r="2" transform="translate(270 760)" fill="#fff"/>
    <circle id="Ellipse_3311" data-name="Ellipse 3311" cx="2" cy="2" r="2" transform="translate(276 760)" fill="#fff"/>
    <circle id="Ellipse_3312" data-name="Ellipse 3312" cx="2" cy="2" r="2" transform="translate(264 766)" fill="#fff"/>
    <circle id="Ellipse_3313" data-name="Ellipse 3313" cx="2" cy="2" r="2" transform="translate(270 766)" fill="#fff"/>
    <circle id="Ellipse_3314" data-name="Ellipse 3314" cx="2" cy="2" r="2" transform="translate(276 766)" fill="#fff"/>
    <circle id="Ellipse_3315" data-name="Ellipse 3315" cx="2" cy="2" r="2" transform="translate(264 772)" fill="#fff"/>
    <circle id="Ellipse_3316" data-name="Ellipse 3316" cx="2" cy="2" r="2" transform="translate(270 772)" fill="#fff"/>
    <circle id="Ellipse_3317" data-name="Ellipse 3317" cx="2" cy="2" r="2" transform="translate(276 772)" fill="#fff"/>
    <circle id="Ellipse_3318" data-name="Ellipse 3318" cx="2" cy="2" r="2" transform="translate(264 778)" fill="#fff"/>
    <circle id="Ellipse_3319" data-name="Ellipse 3319" cx="2" cy="2" r="2" transform="translate(270 778)" fill="#fff"/>
    <circle id="Ellipse_3320" data-name="Ellipse 3320" cx="2" cy="2" r="2" transform="translate(276 778)" fill="#fff"/>
    <circle id="Ellipse_3321" data-name="Ellipse 3321" cx="2" cy="2" r="2" transform="translate(264 784)" fill="#fff"/>
    <circle id="Ellipse_3322" data-name="Ellipse 3322" cx="2" cy="2" r="2" transform="translate(270 784)" fill="#fff"/>
    <circle id="Ellipse_3323" data-name="Ellipse 3323" cx="2" cy="2" r="2" transform="translate(276 784)" fill="#fff"/>
    <circle id="Ellipse_3324" data-name="Ellipse 3324" cx="2" cy="2" r="2" transform="translate(264 790)" fill="#fff"/>
    <circle id="Ellipse_3325" data-name="Ellipse 3325" cx="2" cy="2" r="2" transform="translate(270 790)" fill="#fff"/>
    <circle id="Ellipse_3326" data-name="Ellipse 3326" cx="2" cy="2" r="2" transform="translate(276 790)" fill="#fff"/>
    <circle id="Ellipse_3327" data-name="Ellipse 3327" cx="2" cy="2" r="2" transform="translate(264 796)" fill="#fff"/>
    <circle id="Ellipse_3328" data-name="Ellipse 3328" cx="2" cy="2" r="2" transform="translate(270 796)" fill="#fff"/>
    <circle id="Ellipse_3329" data-name="Ellipse 3329" cx="2" cy="2" r="2" transform="translate(276 796)" fill="#fff"/>
    <circle id="Ellipse_3345" data-name="Ellipse 3345" cx="2" cy="2" r="2" transform="translate(282 694)" fill="#fff"/>
    <circle id="Ellipse_3346" data-name="Ellipse 3346" cx="2" cy="2" r="2" transform="translate(288 694)" fill="#fff"/>
    <circle id="Ellipse_3347" data-name="Ellipse 3347" cx="2" cy="2" r="2" transform="translate(294 694)" fill="#fff"/>
    <circle id="Ellipse_3348" data-name="Ellipse 3348" cx="2" cy="2" r="2" transform="translate(282 700)" fill="#fff"/>
    <circle id="Ellipse_3349" data-name="Ellipse 3349" cx="2" cy="2" r="2" transform="translate(288 700)" fill="#fff"/>
    <circle id="Ellipse_3350" data-name="Ellipse 3350" cx="2" cy="2" r="2" transform="translate(294 700)" fill="#fff"/>
    <circle id="Ellipse_3351" data-name="Ellipse 3351" cx="2" cy="2" r="2" transform="translate(282 706)" fill="#fff"/>
    <circle id="Ellipse_3352" data-name="Ellipse 3352" cx="2" cy="2" r="2" transform="translate(288 706)" fill="#fff"/>
    <circle id="Ellipse_3353" data-name="Ellipse 3353" cx="2" cy="2" r="2" transform="translate(294 706)" fill="#fff"/>
    <circle id="Ellipse_3354" data-name="Ellipse 3354" cx="2" cy="2" r="2" transform="translate(282 712)" fill="#fff"/>
    <circle id="Ellipse_3355" data-name="Ellipse 3355" cx="2" cy="2" r="2" transform="translate(288 712)" fill="#fff"/>
    <circle id="Ellipse_3356" data-name="Ellipse 3356" cx="2" cy="2" r="2" transform="translate(294 712)" fill="#fff"/>
    <circle id="Ellipse_3357" data-name="Ellipse 3357" cx="2" cy="2" r="2" transform="translate(282 718)" fill="#fff"/>
    <circle id="Ellipse_3358" data-name="Ellipse 3358" cx="2" cy="2" r="2" transform="translate(288 718)" fill="#fff"/>
    <circle id="Ellipse_3359" data-name="Ellipse 3359" cx="2" cy="2" r="2" transform="translate(294 718)" fill="#fff"/>
    <circle id="Ellipse_3360" data-name="Ellipse 3360" cx="2" cy="2" r="2" transform="translate(282 724)" fill="#fff"/>
    <circle id="Ellipse_3361" data-name="Ellipse 3361" cx="2" cy="2" r="2" transform="translate(288 724)" fill="#fff"/>
    <circle id="Ellipse_3362" data-name="Ellipse 3362" cx="2" cy="2" r="2" transform="translate(294 724)" fill="#fff"/>
    <circle id="Ellipse_3363" data-name="Ellipse 3363" cx="2" cy="2" r="2" transform="translate(282 730)" fill="#fff"/>
    <circle id="Ellipse_3364" data-name="Ellipse 3364" cx="2" cy="2" r="2" transform="translate(288 730)" fill="#fff"/>
    <circle id="Ellipse_3365" data-name="Ellipse 3365" cx="2" cy="2" r="2" transform="translate(294 730)" fill="#fff"/>
    <circle id="Ellipse_3366" data-name="Ellipse 3366" cx="2" cy="2" r="2" transform="translate(282 736)" fill="#fff"/>
    <circle id="Ellipse_3367" data-name="Ellipse 3367" cx="2" cy="2" r="2" transform="translate(288 736)" fill="#fff"/>
    <circle id="Ellipse_3368" data-name="Ellipse 3368" cx="2" cy="2" r="2" transform="translate(294 736)" fill="#fff"/>
    <circle id="Ellipse_3369" data-name="Ellipse 3369" cx="2" cy="2" r="2" transform="translate(282 742)" fill="#fff"/>
    <circle id="Ellipse_3370" data-name="Ellipse 3370" cx="2" cy="2" r="2" transform="translate(288 742)" fill="#fff"/>
    <circle id="Ellipse_3371" data-name="Ellipse 3371" cx="2" cy="2" r="2" transform="translate(294 742)" fill="#fff"/>
    <circle id="Ellipse_3378" data-name="Ellipse 3378" cx="2" cy="2" r="2" transform="translate(300 694)" fill="#fff"/>
    <circle id="Ellipse_3379" data-name="Ellipse 3379" cx="2" cy="2" r="2" transform="translate(306 694)" fill="#fff"/>
    <circle id="Ellipse_3380" data-name="Ellipse 3380" cx="2" cy="2" r="2" transform="translate(312 694)" fill="#fff"/>
    <circle id="Ellipse_3381" data-name="Ellipse 3381" cx="2" cy="2" r="2" transform="translate(300 700)" fill="#fff"/>
    <circle id="Ellipse_3382" data-name="Ellipse 3382" cx="2" cy="2" r="2" transform="translate(306 700)" fill="#fff"/>
    <circle id="Ellipse_3383" data-name="Ellipse 3383" cx="2" cy="2" r="2" transform="translate(312 700)" fill="#fff"/>
    <circle id="Ellipse_3384" data-name="Ellipse 3384" cx="2" cy="2" r="2" transform="translate(300 706)" fill="#fff"/>
    <circle id="Ellipse_3385" data-name="Ellipse 3385" cx="2" cy="2" r="2" transform="translate(306 706)" fill="#fff"/>
    <circle id="Ellipse_3386" data-name="Ellipse 3386" cx="2" cy="2" r="2" transform="translate(312 706)" fill="#fff"/>
    <circle id="Ellipse_3387" data-name="Ellipse 3387" cx="2" cy="2" r="2" transform="translate(300 712)" fill="#fff"/>
    <circle id="Ellipse_3388" data-name="Ellipse 3388" cx="2" cy="2" r="2" transform="translate(306 712)" fill="#fff"/>
    <circle id="Ellipse_3389" data-name="Ellipse 3389" cx="2" cy="2" r="2" transform="translate(312 712)" fill="#fff"/>
    <circle id="Ellipse_3390" data-name="Ellipse 3390" cx="2" cy="2" r="2" transform="translate(300 718)" fill="#fff"/>
    <circle id="Ellipse_3391" data-name="Ellipse 3391" cx="2" cy="2" r="2" transform="translate(306 718)" fill="#fff"/>
    <circle id="Ellipse_3392" data-name="Ellipse 3392" cx="2" cy="2" r="2" transform="translate(312 718)" fill="#fff"/>
    <circle id="Ellipse_3393" data-name="Ellipse 3393" cx="2" cy="2" r="2" transform="translate(300 724)" fill="#fff"/>
    <circle id="Ellipse_3394" data-name="Ellipse 3394" cx="2" cy="2" r="2" transform="translate(306 724)" fill="#fff"/>
    <circle id="Ellipse_3395" data-name="Ellipse 3395" cx="2" cy="2" r="2" transform="translate(312 724)" fill="#fff"/>
    <circle id="Ellipse_3396" data-name="Ellipse 3396" cx="2" cy="2" r="2" transform="translate(300 730)" fill="#fff"/>
    <circle id="Ellipse_3397" data-name="Ellipse 3397" cx="2" cy="2" r="2" transform="translate(306 730)" fill="#fff"/>
    <circle id="Ellipse_3398" data-name="Ellipse 3398" cx="2" cy="2" r="2" transform="translate(312 730)" fill="#fff"/>
    <circle id="Ellipse_3399" data-name="Ellipse 3399" cx="2" cy="2" r="2" transform="translate(300 736)" fill="#fff"/>
    <circle id="Ellipse_3400" data-name="Ellipse 3400" cx="2" cy="2" r="2" transform="translate(306 736)" fill="#fff"/>
    <circle id="Ellipse_3401" data-name="Ellipse 3401" cx="2" cy="2" r="2" transform="translate(312 736)" fill="#fff"/>
    <circle id="Ellipse_3402" data-name="Ellipse 3402" cx="2" cy="2" r="2" transform="translate(300 742)" fill="#fff"/>
    <circle id="Ellipse_3403" data-name="Ellipse 3403" cx="2" cy="2" r="2" transform="translate(306 742)" fill="#fff"/>
    <circle id="Ellipse_3404" data-name="Ellipse 3404" cx="2" cy="2" r="2" transform="translate(312 742)" fill="#fff"/>
    <circle id="Ellipse_3405" data-name="Ellipse 3405" cx="2" cy="2" r="2" transform="translate(282 748)" fill="#fff"/>
    <circle id="Ellipse_3406" data-name="Ellipse 3406" cx="2" cy="2" r="2" transform="translate(288 748)" fill="#fff"/>
    <circle id="Ellipse_3407" data-name="Ellipse 3407" cx="2" cy="2" r="2" transform="translate(294 748)" fill="#fff"/>
    <circle id="Ellipse_3408" data-name="Ellipse 3408" cx="2" cy="2" r="2" transform="translate(282 754)" fill="#fff"/>
    <circle id="Ellipse_3409" data-name="Ellipse 3409" cx="2" cy="2" r="2" transform="translate(288 754)" fill="#fff"/>
    <circle id="Ellipse_3410" data-name="Ellipse 3410" cx="2" cy="2" r="2" transform="translate(294 754)" fill="#fff"/>
    <circle id="Ellipse_3411" data-name="Ellipse 3411" cx="2" cy="2" r="2" transform="translate(282 760)" fill="#fff"/>
    <circle id="Ellipse_3412" data-name="Ellipse 3412" cx="2" cy="2" r="2" transform="translate(288 760)" fill="#fff"/>
    <circle id="Ellipse_3413" data-name="Ellipse 3413" cx="2" cy="2" r="2" transform="translate(294 760)" fill="#fff"/>
    <circle id="Ellipse_3414" data-name="Ellipse 3414" cx="2" cy="2" r="2" transform="translate(282 766)" fill="#fff"/>
    <circle id="Ellipse_3415" data-name="Ellipse 3415" cx="2" cy="2" r="2" transform="translate(288 766)" fill="#fff"/>
    <circle id="Ellipse_3416" data-name="Ellipse 3416" cx="2" cy="2" r="2" transform="translate(294 766)" fill="#fff"/>
    <circle id="Ellipse_3417" data-name="Ellipse 3417" cx="2" cy="2" r="2" transform="translate(282 772)" fill="#fff"/>
    <circle id="Ellipse_3418" data-name="Ellipse 3418" cx="2" cy="2" r="2" transform="translate(288 772)" fill="#fff"/>
    <circle id="Ellipse_3419" data-name="Ellipse 3419" cx="2" cy="2" r="2" transform="translate(294 772)" fill="#fff"/>
    <circle id="Ellipse_3420" data-name="Ellipse 3420" cx="2" cy="2" r="2" transform="translate(282 778)" fill="#fff"/>
    <circle id="Ellipse_3421" data-name="Ellipse 3421" cx="2" cy="2" r="2" transform="translate(288 778)" fill="#fff"/>
    <circle id="Ellipse_3422" data-name="Ellipse 3422" cx="2" cy="2" r="2" transform="translate(294 778)" fill="#fff"/>
    <circle id="Ellipse_3423" data-name="Ellipse 3423" cx="2" cy="2" r="2" transform="translate(282 784)" fill="#fff"/>
    <circle id="Ellipse_3424" data-name="Ellipse 3424" cx="2" cy="2" r="2" transform="translate(288 784)" fill="#fff"/>
    <circle id="Ellipse_3425" data-name="Ellipse 3425" cx="2" cy="2" r="2" transform="translate(294 784)" fill="#fff"/>
    <circle id="Ellipse_3426" data-name="Ellipse 3426" cx="2" cy="2" r="2" transform="translate(282 790)" fill="#fff"/>
    <circle id="Ellipse_3427" data-name="Ellipse 3427" cx="2" cy="2" r="2" transform="translate(288 790)" fill="#fff"/>
    <circle id="Ellipse_3428" data-name="Ellipse 3428" cx="2" cy="2" r="2" transform="translate(294 790)" fill="#fff"/>
    <circle id="Ellipse_3429" data-name="Ellipse 3429" cx="2" cy="2" r="2" transform="translate(282 796)" fill="#fff"/>
    <circle id="Ellipse_3430" data-name="Ellipse 3430" cx="2" cy="2" r="2" transform="translate(288 796)" fill="#fff"/>
    <circle id="Ellipse_3431" data-name="Ellipse 3431" cx="2" cy="2" r="2" transform="translate(294 796)" fill="#fff"/>
    <circle id="Ellipse_3435" data-name="Ellipse 3435" cx="2" cy="2" r="2" transform="translate(300 748)" fill="#fff"/>
    <circle id="Ellipse_3436" data-name="Ellipse 3436" cx="2" cy="2" r="2" transform="translate(306 748)" fill="#fff"/>
    <circle id="Ellipse_3437" data-name="Ellipse 3437" cx="2" cy="2" r="2" transform="translate(312 748)" fill="#fff"/>
    <circle id="Ellipse_3438" data-name="Ellipse 3438" cx="2" cy="2" r="2" transform="translate(300 754)" fill="#fff"/>
    <circle id="Ellipse_3439" data-name="Ellipse 3439" cx="2" cy="2" r="2" transform="translate(306 754)" fill="#fff"/>
    <circle id="Ellipse_3440" data-name="Ellipse 3440" cx="2" cy="2" r="2" transform="translate(312 754)" fill="#fff"/>
    <circle id="Ellipse_3441" data-name="Ellipse 3441" cx="2" cy="2" r="2" transform="translate(300 760)" fill="#fff"/>
    <circle id="Ellipse_3442" data-name="Ellipse 3442" cx="2" cy="2" r="2" transform="translate(306 760)" fill="#fff"/>
    <circle id="Ellipse_3443" data-name="Ellipse 3443" cx="2" cy="2" r="2" transform="translate(312 760)" fill="#fff"/>
    <circle id="Ellipse_3444" data-name="Ellipse 3444" cx="2" cy="2" r="2" transform="translate(300 766)" fill="#fff"/>
    <circle id="Ellipse_3445" data-name="Ellipse 3445" cx="2" cy="2" r="2" transform="translate(306 766)" fill="#fff"/>
    <circle id="Ellipse_3446" data-name="Ellipse 3446" cx="2" cy="2" r="2" transform="translate(312 766)" fill="#fff"/>
    <circle id="Ellipse_3447" data-name="Ellipse 3447" cx="2" cy="2" r="2" transform="translate(300 772)" fill="#fff"/>
    <circle id="Ellipse_3448" data-name="Ellipse 3448" cx="2" cy="2" r="2" transform="translate(306 772)" fill="#fff"/>
    <circle id="Ellipse_3449" data-name="Ellipse 3449" cx="2" cy="2" r="2" transform="translate(312 772)" fill="#fff"/>
    <circle id="Ellipse_3450" data-name="Ellipse 3450" cx="2" cy="2" r="2" transform="translate(300 778)" fill="#fff"/>
    <circle id="Ellipse_3451" data-name="Ellipse 3451" cx="2" cy="2" r="2" transform="translate(306 778)" fill="#fff"/>
    <circle id="Ellipse_3452" data-name="Ellipse 3452" cx="2" cy="2" r="2" transform="translate(312 778)" fill="#fff"/>
    <circle id="Ellipse_3453" data-name="Ellipse 3453" cx="2" cy="2" r="2" transform="translate(300 784)" fill="#fff"/>
    <circle id="Ellipse_3454" data-name="Ellipse 3454" cx="2" cy="2" r="2" transform="translate(306 784)" fill="#fff"/>
    <circle id="Ellipse_3455" data-name="Ellipse 3455" cx="2" cy="2" r="2" transform="translate(312 784)" fill="#fff"/>
    <circle id="Ellipse_3456" data-name="Ellipse 3456" cx="2" cy="2" r="2" transform="translate(300 790)" fill="#fff"/>
    <circle id="Ellipse_3457" data-name="Ellipse 3457" cx="2" cy="2" r="2" transform="translate(306 790)" fill="#fff"/>
    <circle id="Ellipse_3458" data-name="Ellipse 3458" cx="2" cy="2" r="2" transform="translate(312 790)" fill="#fff"/>
    <circle id="Ellipse_3459" data-name="Ellipse 3459" cx="2" cy="2" r="2" transform="translate(300 796)" fill="#fff"/>
    <circle id="Ellipse_3460" data-name="Ellipse 3460" cx="2" cy="2" r="2" transform="translate(306 796)" fill="#fff"/>
    <circle id="Ellipse_3461" data-name="Ellipse 3461" cx="2" cy="2" r="2" transform="translate(312 796)" fill="#fff"/>
    <circle id="Ellipse_3171" data-name="Ellipse 3171" cx="2" cy="2" r="2" transform="translate(246 808)" fill="#fff"/>
    <circle id="Ellipse_3172" data-name="Ellipse 3172" cx="2" cy="2" r="2" transform="translate(252 808)" fill="#fff"/>
    <circle id="Ellipse_3173" data-name="Ellipse 3173" cx="2" cy="2" r="2" transform="translate(258 808)" fill="#fff"/>
    <circle id="Ellipse_3204" data-name="Ellipse 3204" cx="2" cy="2" r="2" transform="translate(264 808)" fill="#fff"/>
    <circle id="Ellipse_3205" data-name="Ellipse 3205" cx="2" cy="2" r="2" transform="translate(270 808)" fill="#fff"/>
    <circle id="Ellipse_3206" data-name="Ellipse 3206" cx="2" cy="2" r="2" transform="translate(276 808)" fill="#fff"/>
    <circle id="Ellipse_3333" data-name="Ellipse 3333" cx="2" cy="2" r="2" transform="translate(246 808)" fill="#fff"/>
    <circle id="Ellipse_3334" data-name="Ellipse 3334" cx="2" cy="2" r="2" transform="translate(252 808)" fill="#fff"/>
    <circle id="Ellipse_3335" data-name="Ellipse 3335" cx="2" cy="2" r="2" transform="translate(258 808)" fill="#fff"/>
    <circle id="Ellipse_3336" data-name="Ellipse 3336" cx="2" cy="2" r="2" transform="translate(264 808)" fill="#fff"/>
    <circle id="Ellipse_3337" data-name="Ellipse 3337" cx="2" cy="2" r="2" transform="translate(270 808)" fill="#fff"/>
    <circle id="Ellipse_3338" data-name="Ellipse 3338" cx="2" cy="2" r="2" transform="translate(276 808)" fill="#fff"/>
    <circle id="Ellipse_3465" data-name="Ellipse 3465" cx="2" cy="2" r="2" transform="translate(282 808)" fill="#fff"/>
    <circle id="Ellipse_3466" data-name="Ellipse 3466" cx="2" cy="2" r="2" transform="translate(288 808)" fill="#fff"/>
    <circle id="Ellipse_3467" data-name="Ellipse 3467" cx="2" cy="2" r="2" transform="translate(294 808)" fill="#fff"/>
    <circle id="Ellipse_3468" data-name="Ellipse 3468" cx="2" cy="2" r="2" transform="translate(300 808)" fill="#fff"/>
    <circle id="Ellipse_3469" data-name="Ellipse 3469" cx="2" cy="2" r="2" transform="translate(306 808)" fill="#fff"/>
    <circle id="Ellipse_3470" data-name="Ellipse 3470" cx="2" cy="2" r="2" transform="translate(312 808)" fill="#fff"/>
    <circle id="Ellipse_3168" data-name="Ellipse 3168" cx="2" cy="2" r="2" transform="translate(246 802)" fill="#fff"/>
    <circle id="Ellipse_3169" data-name="Ellipse 3169" cx="2" cy="2" r="2" transform="translate(252 802)" fill="#fff"/>
    <circle id="Ellipse_3170" data-name="Ellipse 3170" cx="2" cy="2" r="2" transform="translate(258 802)" fill="#fff"/>
    <circle id="Ellipse_3201" data-name="Ellipse 3201" cx="2" cy="2" r="2" transform="translate(264 802)" fill="#fff"/>
    <circle id="Ellipse_3202" data-name="Ellipse 3202" cx="2" cy="2" r="2" transform="translate(270 802)" fill="#fff"/>
    <circle id="Ellipse_3203" data-name="Ellipse 3203" cx="2" cy="2" r="2" transform="translate(276 802)" fill="#fff"/>
    <circle id="Ellipse_3300" data-name="Ellipse 3300" cx="2" cy="2" r="2" transform="translate(246 802)" fill="#fff"/>
    <circle id="Ellipse_3301" data-name="Ellipse 3301" cx="2" cy="2" r="2" transform="translate(252 802)" fill="#fff"/>
    <circle id="Ellipse_3302" data-name="Ellipse 3302" cx="2" cy="2" r="2" transform="translate(258 802)" fill="#fff"/>
    <circle id="Ellipse_3330" data-name="Ellipse 3330" cx="2" cy="2" r="2" transform="translate(264 802)" fill="#fff"/>
    <circle id="Ellipse_3331" data-name="Ellipse 3331" cx="2" cy="2" r="2" transform="translate(270 802)" fill="#fff"/>
    <circle id="Ellipse_3332" data-name="Ellipse 3332" cx="2" cy="2" r="2" transform="translate(276 802)" fill="#fff"/>
    <circle id="Ellipse_3432" data-name="Ellipse 3432" cx="2" cy="2" r="2" transform="translate(282 802)" fill="#fff"/>
    <circle id="Ellipse_3433" data-name="Ellipse 3433" cx="2" cy="2" r="2" transform="translate(288 802)" fill="#fff"/>
    <circle id="Ellipse_3434" data-name="Ellipse 3434" cx="2" cy="2" r="2" transform="translate(294 802)" fill="#fff"/>
    <circle id="Ellipse_3462" data-name="Ellipse 3462" cx="2" cy="2" r="2" transform="translate(300 802)" fill="#fff"/>
    <circle id="Ellipse_3463" data-name="Ellipse 3463" cx="2" cy="2" r="2" transform="translate(306 802)" fill="#fff"/>
    <circle id="Ellipse_3464" data-name="Ellipse 3464" cx="2" cy="2" r="2" transform="translate(312 802)" fill="#fff"/>
  </g>
</svg>
