<svg xmlns="http://www.w3.org/2000/svg" xmlns:xlink="http://www.w3.org/1999/xlink" width="375" height="812" viewBox="0 0 375 812">
  <defs>
    <clipPath id="clip-iPhone_X_XS_4">
      <rect width="375" height="812"/>
    </clipPath>
  </defs>
  <g id="iPhone_X_XS_4" data-name="iPhone X/XS – 4" clip-path="url(#clip-iPhone_X_XS_4)">
    <rect width="375" height="812" fill="#fff"/>
    <text id="START_THAT_RUN" data-name="START THAT RUN" transform="translate(39 45)" fill="#707070" font-size="35" font-family="HelveticaNeue-Bold, Helvetica Neue" font-weight="700"><tspan x="0" y="0">START THAT RUN</tspan></text>
    <text id="Previous_Runs" data-name="Previous Runs" transform="translate(25 102)" fill="#707070" font-size="50" font-family="HelveticaNeue-Bold, Helvetica Neue" font-weight="700"><tspan x="0" y="0">Previous Runs</tspan></text>
    <g id="Rectangle_6" data-name="Rectangle 6" transform="translate(14 136)" fill="#707070" stroke="#707070" stroke-width="1">
      <rect width="348" height="46" rx="6" stroke="none"/>
      <rect x="0.5" y="0.5" width="347" height="45" rx="5.5" fill="none"/>
    </g>
    <text id="Date" transform="translate(154 170)" fill="#fff" font-size="30" font-family="HelveticaNeue-Bold, Helvetica Neue" font-weight="700"><tspan x="0" y="0">Date</tspan></text>
    <g id="Rectangle_14" data-name="Rectangle 14" transform="translate(14 211)" fill="#707070" stroke="#707070" stroke-width="1">
      <rect width="348" height="46" rx="6" stroke="none"/>
      <rect x="0.5" y="0.5" width="347" height="45" rx="5.5" fill="none"/>
    </g>
    <text id="Date-2" data-name="Date" transform="translate(154 245)" fill="#fff" font-size="30" font-family="HelveticaNeue-Bold, Helvetica Neue" font-weight="700"><tspan x="0" y="0">Date</tspan></text>
    <g id="Rectangle_15" data-name="Rectangle 15" transform="translate(14 286)" fill="#707070" stroke="#707070" stroke-width="1">
      <rect width="348" height="46" rx="6" stroke="none"/>
      <rect x="0.5" y="0.5" width="347" height="45" rx="5.5" fill="none"/>
    </g>
    <text id="Date-3" data-name="Date" transform="translate(154 320)" fill="#fff" font-size="30" font-family="HelveticaNeue-Bold, Helvetica Neue" font-weight="700"><tspan x="0" y="0">Date</tspan></text>
    <g id="Rectangle_16" data-name="Rectangle 16" transform="translate(14 361)" fill="#707070" stroke="#707070" stroke-width="1">
      <rect width="348" height="46" rx="6" stroke="none"/>
      <rect x="0.5" y="0.5" width="347" height="45" rx="5.5" fill="none"/>
    </g>
    <text id="Date-4" data-name="Date" transform="translate(154 395)" fill="#fff" font-size="30" font-family="HelveticaNeue-Bold, Helvetica Neue" font-weight="700"><tspan x="0" y="0">Date</tspan></text>
    <g id="Rectangle_17" data-name="Rectangle 17" transform="translate(14 436)" fill="#707070" stroke="#707070" stroke-width="1">
      <rect width="348" height="46" rx="6" stroke="none"/>
      <rect x="0.5" y="0.5" width="347" height="45" rx="5.5" fill="none"/>
    </g>
    <text id="Date-5" data-name="Date" transform="translate(154 470)" fill="#fff" font-size="30" font-family="HelveticaNeue-Bold, Helvetica Neue" font-weight="700"><tspan x="0" y="0">Date</tspan></text>
    <g id="Rectangle_18" data-name="Rectangle 18" transform="translate(14 511)" fill="#707070" stroke="#707070" stroke-width="1">
      <rect width="348" height="46" rx="6" stroke="none"/>
      <rect x="0.5" y="0.5" width="347" height="45" rx="5.5" fill="none"/>
    </g>
    <text id="Date-6" data-name="Date" transform="translate(154 545)" fill="#fff" font-size="30" font-family="HelveticaNeue-Bold, Helvetica Neue" font-weight="700"><tspan x="0" y="0">Date</tspan></text>
    <g id="Rectangle_19" data-name="Rectangle 19" transform="translate(14 586)" fill="#707070" stroke="#707070" stroke-width="1">
      <rect width="348" height="46" rx="6" stroke="none"/>
      <rect x="0.5" y="0.5" width="347" height="45" rx="5.5" fill="none"/>
    </g>
    <text id="Date-7" data-name="Date" transform="translate(154 620)" fill="#fff" font-size="30" font-family="HelveticaNeue-Bold, Helvetica Neue" font-weight="700"><tspan x="0" y="0">Date</tspan></text>
    <g id="Rectangle_20" data-name="Rectangle 20" transform="translate(14 661)" fill="#707070" stroke="#707070" stroke-width="1">
      <rect width="348" height="46" rx="6" stroke="none"/>
      <rect x="0.5" y="0.5" width="347" height="45" rx="5.5" fill="none"/>
    </g>
    <text id="Date-8" data-name="Date" transform="translate(154 695)" fill="#fff" font-size="30" font-family="HelveticaNeue-Bold, Helvetica Neue" font-weight="700"><tspan x="0" y="0">Date</tspan></text>
    <g id="Rectangle_21" data-name="Rectangle 21" transform="translate(14 736)" fill="#707070" stroke="#707070" stroke-width="1">
      <rect width="348" height="46" rx="6" stroke="none"/>
      <rect x="0.5" y="0.5" width="347" height="45" rx="5.5" fill="none"/>
    </g>
    <text id="Date-9" data-name="Date" transform="translate(154 770)" fill="#fff" font-size="30" font-family="HelveticaNeue-Bold, Helvetica Neue" font-weight="700"><tspan x="0" y="0">Date</tspan></text>
  </g>
</svg>
