<svg xmlns="http://www.w3.org/2000/svg" width="16.545" height="16.545" viewBox="0 0 16.545 16.545">
  <path id="ic_add_to_photos_24px" d="M3.554,5.109H2V15.99a1.559,1.559,0,0,0,1.554,1.554H14.436V15.99H3.554ZM15.99,2H6.663A1.559,1.559,0,0,0,5.109,3.554v9.327a1.559,1.559,0,0,0,1.554,1.554H15.99a1.559,1.559,0,0,0,1.554-1.554V3.554A1.559,1.559,0,0,0,15.99,2Zm-.777,7H12.1V12.1H10.55V9H7.441V7.441H10.55V4.332H12.1V7.441h3.109Z" transform="translate(-1.5 -1.5)" fill="#fff" stroke="#fff" stroke-width="1"/>
</svg>
