<svg xmlns="http://www.w3.org/2000/svg" xmlns:xlink="http://www.w3.org/1999/xlink" width="375" height="812" viewBox="0 0 375 812">
  <defs>
    <clipPath id="clip-iPhone_X_XS_11">
      <rect width="375" height="812"/>
    </clipPath>
  </defs>
  <g id="iPhone_X_XS_11" data-name="iPhone X/XS – 11" clip-path="url(#clip-iPhone_X_XS_11)">
    <rect width="375" height="812" fill="#c0a4f2"/>
    <rect id="Rectangle_1" data-name="Rectangle 1" width="443" height="701" transform="translate(67 56)" fill="#f9dc56"/>
    <rect id="Rectangle_3" data-name="Rectangle 3" width="443" height="139" transform="translate(-121 92)" fill="#00f6b7"/>
    <line id="Line_116" data-name="Line 116" x2="139" y2="139" transform="translate(236.5 77.5)" fill="none" stroke="#f9dc56" stroke-width="10"/>
    <g id="Rectangle_2" data-name="Rectangle 2" transform="translate(31 31)" fill="none" stroke="#fff" stroke-width="1">
      <rect width="314" height="751" rx="8" stroke="none"/>
      <rect x="0.5" y="0.5" width="313" height="750" rx="7.5" fill="none"/>
    </g>
    <line id="Line_117" data-name="Line 117" x2="63" y2="63" transform="translate(272.5 83.5)" fill="none" stroke="#f9dc56" stroke-width="10"/>
    <line id="Line_118" data-name="Line 118" x2="134" y2="134" transform="translate(214.5 87.5)" fill="none" stroke="#f9dc56" stroke-width="10"/>
    <line id="Line_119" data-name="Line 119" x2="148" y2="148" transform="translate(182.5 87.5)" fill="none" stroke="#f9dc56" stroke-width="10"/>
    <line id="Line_120" data-name="Line 120" x2="148" y2="148" transform="translate(150.5 87.5)" fill="none" stroke="#f9dc56" stroke-width="10"/>
    <line id="Line_121" data-name="Line 121" x2="148" y2="148" transform="translate(115.5 87.5)" fill="none" stroke="#f9dc56" stroke-width="10"/>
    <line id="Line_122" data-name="Line 122" x2="148" y2="148" transform="translate(88.5 92.5)" fill="none" stroke="#f9dc56" stroke-width="10"/>
    <text id="Edit_Runs" data-name="Edit Runs" transform="translate(0 178)" fill="#fff" font-size="65" font-family="SourceCodePro-Regular, Source Code Pro" letter-spacing="-0.01em"><tspan x="0" y="0">Edit</tspan><tspan y="0" font-size="20"> </tspan><tspan y="0">Runs</tspan></text>
    <line id="Line_33" data-name="Line 33" x2="83" transform="translate(292.5 702.5)" fill="none" stroke="#fff" stroke-width="1"/>
    <line id="Line_34" data-name="Line 34" x2="83" transform="translate(292.5 707.5)" fill="none" stroke="#fff" stroke-width="1"/>
    <line id="Line_35" data-name="Line 35" x2="83" transform="translate(292.5 712.5)" fill="none" stroke="#fff" stroke-width="1"/>
    <line id="Line_36" data-name="Line 36" x2="83" transform="translate(292.5 717.5)" fill="none" stroke="#fff" stroke-width="1"/>
    <line id="Line_37" data-name="Line 37" x2="83" transform="translate(292.5 722.5)" fill="none" stroke="#fff" stroke-width="1"/>
    <line id="Line_38" data-name="Line 38" x2="83" transform="translate(292.5 727.5)" fill="none" stroke="#fff" stroke-width="1"/>
    <line id="Line_39" data-name="Line 39" x2="83" transform="translate(292.5 732.5)" fill="none" stroke="#fff" stroke-width="1"/>
    <line id="Line_40" data-name="Line 40" x2="83" transform="translate(292.5 737.5)" fill="none" stroke="#fff" stroke-width="1"/>
    <line id="Line_41" data-name="Line 41" x2="83" transform="translate(292.5 742.5)" fill="none" stroke="#fff" stroke-width="1"/>
    <line id="Line_42" data-name="Line 42" x2="83" transform="translate(292.5 747.5)" fill="none" stroke="#fff" stroke-width="1"/>
    <line id="Line_43" data-name="Line 43" x2="83" transform="translate(292.5 752.5)" fill="none" stroke="#fff" stroke-width="1"/>
    <line id="Line_44" data-name="Line 44" x2="83" transform="translate(292.5 757.5)" fill="none" stroke="#fff" stroke-width="1"/>
    <line id="Line_45" data-name="Line 45" x2="83" transform="translate(292.5 762.5)" fill="none" stroke="#fff" stroke-width="1"/>
    <line id="Line_46" data-name="Line 46" x2="83" transform="translate(292.5 767.5)" fill="none" stroke="#fff" stroke-width="1"/>
    <line id="Line_47" data-name="Line 47" x2="83" transform="translate(292.5 772.5)" fill="none" stroke="#fff" stroke-width="1"/>
    <line id="Line_48" data-name="Line 48" x2="83" transform="translate(292.5 777.5)" fill="none" stroke="#fff" stroke-width="1"/>
    <line id="Line_49" data-name="Line 49" x2="83" transform="translate(292.5 782.5)" fill="none" stroke="#fff" stroke-width="1"/>
    <line id="Line_50" data-name="Line 50" x2="83" transform="translate(292.5 787.5)" fill="none" stroke="#fff" stroke-width="1"/>
    <line id="Line_51" data-name="Line 51" x2="83" transform="translate(292.5 792.5)" fill="none" stroke="#fff" stroke-width="1"/>
    <line id="Line_52" data-name="Line 52" x2="83" transform="translate(292.5 797.5)" fill="none" stroke="#fff" stroke-width="1"/>
    <line id="Line_53" data-name="Line 53" x2="83" transform="translate(292.5 802.5)" fill="none" stroke="#fff" stroke-width="1"/>
    <line id="Line_54" data-name="Line 54" x2="83" transform="translate(292.5 807.5)" fill="none" stroke="#fff" stroke-width="1"/>
    <line id="Line_165" data-name="Line 165" x2="83" transform="translate(292.5 557.5)" fill="none" stroke="#fff" stroke-width="1"/>
    <line id="Line_166" data-name="Line 166" x2="83" transform="translate(292.5 562.5)" fill="none" stroke="#fff" stroke-width="1"/>
    <line id="Line_167" data-name="Line 167" x2="83" transform="translate(292.5 567.5)" fill="none" stroke="#fff" stroke-width="1"/>
    <line id="Line_168" data-name="Line 168" x2="83" transform="translate(292.5 572.5)" fill="none" stroke="#fff" stroke-width="1"/>
    <line id="Line_169" data-name="Line 169" x2="83" transform="translate(292.5 577.5)" fill="none" stroke="#fff" stroke-width="1"/>
    <line id="Line_170" data-name="Line 170" x2="83" transform="translate(292.5 582.5)" fill="none" stroke="#fff" stroke-width="1"/>
    <line id="Line_171" data-name="Line 171" x2="83" transform="translate(292.5 587.5)" fill="none" stroke="#fff" stroke-width="1"/>
    <line id="Line_172" data-name="Line 172" x2="83" transform="translate(292.5 592.5)" fill="none" stroke="#fff" stroke-width="1"/>
    <line id="Line_173" data-name="Line 173" x2="83" transform="translate(292.5 597.5)" fill="none" stroke="#fff" stroke-width="1"/>
    <line id="Line_174" data-name="Line 174" x2="83" transform="translate(292.5 602.5)" fill="none" stroke="#fff" stroke-width="1"/>
    <line id="Line_175" data-name="Line 175" x2="83" transform="translate(292.5 607.5)" fill="none" stroke="#fff" stroke-width="1"/>
    <line id="Line_176" data-name="Line 176" x2="83" transform="translate(292.5 612.5)" fill="none" stroke="#fff" stroke-width="1"/>
    <line id="Line_177" data-name="Line 177" x2="83" transform="translate(292.5 617.5)" fill="none" stroke="#fff" stroke-width="1"/>
    <line id="Line_178" data-name="Line 178" x2="83" transform="translate(292.5 622.5)" fill="none" stroke="#fff" stroke-width="1"/>
    <line id="Line_179" data-name="Line 179" x2="83" transform="translate(292.5 627.5)" fill="none" stroke="#fff" stroke-width="1"/>
    <line id="Line_180" data-name="Line 180" x2="83" transform="translate(292.5 632.5)" fill="none" stroke="#fff" stroke-width="1"/>
    <line id="Line_181" data-name="Line 181" x2="83" transform="translate(292.5 637.5)" fill="none" stroke="#fff" stroke-width="1"/>
    <line id="Line_182" data-name="Line 182" x2="83" transform="translate(292.5 642.5)" fill="none" stroke="#fff" stroke-width="1"/>
    <line id="Line_183" data-name="Line 183" x2="83" transform="translate(292.5 647.5)" fill="none" stroke="#fff" stroke-width="1"/>
    <line id="Line_184" data-name="Line 184" x2="83" transform="translate(292.5 652.5)" fill="none" stroke="#fff" stroke-width="1"/>
    <line id="Line_185" data-name="Line 185" x2="83" transform="translate(292.5 657.5)" fill="none" stroke="#fff" stroke-width="1"/>
    <line id="Line_186" data-name="Line 186" x2="83" transform="translate(292.5 662.5)" fill="none" stroke="#fff" stroke-width="1"/>
    <line id="Line_55" data-name="Line 55" x2="83" transform="translate(292.5 667.5)" fill="none" stroke="#fff" stroke-width="1"/>
    <line id="Line_56" data-name="Line 56" x2="83" transform="translate(292.5 672.5)" fill="none" stroke="#fff" stroke-width="1"/>
    <line id="Line_57" data-name="Line 57" x2="83" transform="translate(292.5 677.5)" fill="none" stroke="#fff" stroke-width="1"/>
    <line id="Line_58" data-name="Line 58" x2="83" transform="translate(292.5 682.5)" fill="none" stroke="#fff" stroke-width="1"/>
    <line id="Line_59" data-name="Line 59" x2="83" transform="translate(292.5 687.5)" fill="none" stroke="#fff" stroke-width="1"/>
    <line id="Line_60" data-name="Line 60" x2="83" transform="translate(292.5 692.5)" fill="none" stroke="#fff" stroke-width="1"/>
    <line id="Line_61" data-name="Line 61" x2="83" transform="translate(292.5 697.5)" fill="none" stroke="#fff" stroke-width="1"/>
    <line id="Line_187" data-name="Line 187" x2="83" transform="translate(32.5 380.5)" fill="none" stroke="#fff" stroke-width="1"/>
    <line id="Line_188" data-name="Line 188" x2="83" transform="translate(32.5 385.5)" fill="none" stroke="#fff" stroke-width="1"/>
    <line id="Line_189" data-name="Line 189" x2="83" transform="translate(32.5 390.5)" fill="none" stroke="#fff" stroke-width="1"/>
    <line id="Line_190" data-name="Line 190" x2="83" transform="translate(32.5 395.5)" fill="none" stroke="#fff" stroke-width="1"/>
    <line id="Line_191" data-name="Line 191" x2="83" transform="translate(32.5 400.5)" fill="none" stroke="#fff" stroke-width="1"/>
    <line id="Line_192" data-name="Line 192" x2="83" transform="translate(32.5 405.5)" fill="none" stroke="#fff" stroke-width="1"/>
    <line id="Line_193" data-name="Line 193" x2="83" transform="translate(32.5 410.5)" fill="none" stroke="#fff" stroke-width="1"/>
    <line id="Line_194" data-name="Line 194" x2="83" transform="translate(32.5 415.5)" fill="none" stroke="#fff" stroke-width="1"/>
    <line id="Line_195" data-name="Line 195" x2="83" transform="translate(32.5 420.5)" fill="none" stroke="#fff" stroke-width="1"/>
    <line id="Line_196" data-name="Line 196" x2="83" transform="translate(32.5 425.5)" fill="none" stroke="#fff" stroke-width="1"/>
    <line id="Line_197" data-name="Line 197" x2="83" transform="translate(32.5 430.5)" fill="none" stroke="#fff" stroke-width="1"/>
    <line id="Line_198" data-name="Line 198" x2="83" transform="translate(32.5 435.5)" fill="none" stroke="#fff" stroke-width="1"/>
    <line id="Line_199" data-name="Line 199" x2="83" transform="translate(32.5 440.5)" fill="none" stroke="#fff" stroke-width="1"/>
    <line id="Line_200" data-name="Line 200" x2="83" transform="translate(32.5 445.5)" fill="none" stroke="#fff" stroke-width="1"/>
    <line id="Line_201" data-name="Line 201" x2="83" transform="translate(32.5 450.5)" fill="none" stroke="#fff" stroke-width="1"/>
    <line id="Line_202" data-name="Line 202" x2="83" transform="translate(32.5 455.5)" fill="none" stroke="#fff" stroke-width="1"/>
    <line id="Line_203" data-name="Line 203" x2="83" transform="translate(32.5 460.5)" fill="none" stroke="#fff" stroke-width="1"/>
    <line id="Line_204" data-name="Line 204" x2="83" transform="translate(32.5 465.5)" fill="none" stroke="#fff" stroke-width="1"/>
    <line id="Line_205" data-name="Line 205" x2="83" transform="translate(32.5 470.5)" fill="none" stroke="#fff" stroke-width="1"/>
    <line id="Line_206" data-name="Line 206" x2="83" transform="translate(32.5 475.5)" fill="none" stroke="#fff" stroke-width="1"/>
    <line id="Line_207" data-name="Line 207" x2="83" transform="translate(32.5 480.5)" fill="none" stroke="#fff" stroke-width="1"/>
    <line id="Line_208" data-name="Line 208" x2="83" transform="translate(32.5 485.5)" fill="none" stroke="#fff" stroke-width="1"/>
    <line id="Line_209" data-name="Line 209" x2="83" transform="translate(32.5 235.5)" fill="none" stroke="#fff" stroke-width="1"/>
    <line id="Line_210" data-name="Line 210" x2="83" transform="translate(32.5 240.5)" fill="none" stroke="#fff" stroke-width="1"/>
    <line id="Line_211" data-name="Line 211" x2="83" transform="translate(32.5 245.5)" fill="none" stroke="#fff" stroke-width="1"/>
    <line id="Line_212" data-name="Line 212" x2="83" transform="translate(32.5 250.5)" fill="none" stroke="#fff" stroke-width="1"/>
    <line id="Line_213" data-name="Line 213" x2="83" transform="translate(32.5 255.5)" fill="none" stroke="#fff" stroke-width="1"/>
    <line id="Line_214" data-name="Line 214" x2="83" transform="translate(32.5 260.5)" fill="none" stroke="#fff" stroke-width="1"/>
    <line id="Line_215" data-name="Line 215" x2="83" transform="translate(32.5 265.5)" fill="none" stroke="#fff" stroke-width="1"/>
    <line id="Line_216" data-name="Line 216" x2="83" transform="translate(32.5 270.5)" fill="none" stroke="#fff" stroke-width="1"/>
    <line id="Line_217" data-name="Line 217" x2="83" transform="translate(32.5 275.5)" fill="none" stroke="#fff" stroke-width="1"/>
    <line id="Line_218" data-name="Line 218" x2="83" transform="translate(32.5 280.5)" fill="none" stroke="#fff" stroke-width="1"/>
    <line id="Line_219" data-name="Line 219" x2="83" transform="translate(32.5 285.5)" fill="none" stroke="#fff" stroke-width="1"/>
    <line id="Line_220" data-name="Line 220" x2="83" transform="translate(32.5 290.5)" fill="none" stroke="#fff" stroke-width="1"/>
    <line id="Line_221" data-name="Line 221" x2="83" transform="translate(32.5 295.5)" fill="none" stroke="#fff" stroke-width="1"/>
    <line id="Line_222" data-name="Line 222" x2="83" transform="translate(32.5 300.5)" fill="none" stroke="#fff" stroke-width="1"/>
    <line id="Line_223" data-name="Line 223" x2="83" transform="translate(32.5 305.5)" fill="none" stroke="#fff" stroke-width="1"/>
    <line id="Line_224" data-name="Line 224" x2="83" transform="translate(32.5 310.5)" fill="none" stroke="#fff" stroke-width="1"/>
    <line id="Line_225" data-name="Line 225" x2="83" transform="translate(32.5 315.5)" fill="none" stroke="#fff" stroke-width="1"/>
    <line id="Line_226" data-name="Line 226" x2="83" transform="translate(32.5 320.5)" fill="none" stroke="#fff" stroke-width="1"/>
    <line id="Line_227" data-name="Line 227" x2="83" transform="translate(32.5 325.5)" fill="none" stroke="#fff" stroke-width="1"/>
    <line id="Line_228" data-name="Line 228" x2="83" transform="translate(32.5 330.5)" fill="none" stroke="#fff" stroke-width="1"/>
    <line id="Line_229" data-name="Line 229" x2="83" transform="translate(32.5 335.5)" fill="none" stroke="#fff" stroke-width="1"/>
    <line id="Line_230" data-name="Line 230" x2="83" transform="translate(32.5 340.5)" fill="none" stroke="#fff" stroke-width="1"/>
    <line id="Line_231" data-name="Line 231" x2="83" transform="translate(32.5 345.5)" fill="none" stroke="#fff" stroke-width="1"/>
    <line id="Line_232" data-name="Line 232" x2="83" transform="translate(32.5 350.5)" fill="none" stroke="#fff" stroke-width="1"/>
    <line id="Line_233" data-name="Line 233" x2="83" transform="translate(32.5 355.5)" fill="none" stroke="#fff" stroke-width="1"/>
    <line id="Line_234" data-name="Line 234" x2="83" transform="translate(32.5 360.5)" fill="none" stroke="#fff" stroke-width="1"/>
    <line id="Line_235" data-name="Line 235" x2="83" transform="translate(32.5 365.5)" fill="none" stroke="#fff" stroke-width="1"/>
    <line id="Line_236" data-name="Line 236" x2="83" transform="translate(32.5 370.5)" fill="none" stroke="#fff" stroke-width="1"/>
    <line id="Line_237" data-name="Line 237" x2="83" transform="translate(32.5 375.5)" fill="none" stroke="#fff" stroke-width="1"/>
    <line id="Line_238" data-name="Line 238" x2="83" transform="translate(32.5 490.5)" fill="none" stroke="#fff" stroke-width="1"/>
    <line id="Line_239" data-name="Line 239" x2="83" transform="translate(32.5 495.5)" fill="none" stroke="#fff" stroke-width="1"/>
    <line id="Line_240" data-name="Line 240" x2="83" transform="translate(32.5 500.5)" fill="none" stroke="#fff" stroke-width="1"/>
    <line id="Line_241" data-name="Line 241" x2="83" transform="translate(32.5 505.5)" fill="none" stroke="#fff" stroke-width="1"/>
    <line id="Line_242" data-name="Line 242" x2="83" transform="translate(32.5 510.5)" fill="none" stroke="#fff" stroke-width="1"/>
    <line id="Line_243" data-name="Line 243" x2="83" transform="translate(32.5 515.5)" fill="none" stroke="#fff" stroke-width="1"/>
    <line id="Line_244" data-name="Line 244" x2="83" transform="translate(32.5 520.5)" fill="none" stroke="#fff" stroke-width="1"/>
    <path id="ic_home_24px" d="M8.218,16.213V11.55h3.109v4.663h3.886V10h2.332L9.772,3,2,10H4.332v6.218Z" transform="translate(76 66.441)" fill="none" stroke="#fff" stroke-width="1"/>
    <g id="ic_border_color_24px" transform="translate(176.169 64)">
      <path id="Path_81" data-name="Path 81" d="M14.687,5.44,11.772,2.525,4,10.3v2.915H6.915Zm2.3-2.3a.774.774,0,0,0,0-1.1L15.169.225a.774.774,0,0,0-1.1,0L12.55,1.748l2.915,2.915Z" transform="translate(-0.891 0.002)" fill="#fff" stroke="#f8fcff" stroke-width="1"/>
      <path id="Path_82" data-name="Path 82" d="M0,20H18.654v3.109H0Z" transform="translate(0 -4.453)" fill="#fff" stroke="#f8fcff" stroke-width="1"/>
    </g>
    <path id="ic_add_to_photos_24px" d="M3.554,5.109H2V15.99a1.559,1.559,0,0,0,1.554,1.554H14.436V15.99H3.554ZM15.99,2H6.663A1.559,1.559,0,0,0,5.109,3.554v9.327a1.559,1.559,0,0,0,1.554,1.554H15.99a1.559,1.559,0,0,0,1.554-1.554V3.554A1.559,1.559,0,0,0,15.99,2Zm-.777,7H12.1V12.1H10.55V9H7.441V7.441H10.55V4.332H12.1V7.441h3.109Z" transform="translate(125.307 65.109)" fill="none" stroke="#fff" stroke-width="1"/>
    <path id="ic_remove_red_eye_24px" d="M9.55,4.5A9.192,9.192,0,0,0,1,10.329a9.184,9.184,0,0,0,17.1,0A9.192,9.192,0,0,0,9.55,4.5Zm0,9.715a3.886,3.886,0,1,1,3.886-3.886A3.888,3.888,0,0,1,9.55,14.215ZM9.55,8a2.332,2.332,0,1,0,2.332,2.332A2.329,2.329,0,0,0,9.55,8Z" transform="translate(227.585 66.495)" fill="none" stroke="#fff" stroke-width="1"/>
    <path id="ic_local_library_24px" d="M10,9.423A10.223,10.223,0,0,0,3,6.663v8.55a10.223,10.223,0,0,1,7,2.759,10.259,10.259,0,0,1,7-2.759V6.663A10.223,10.223,0,0,0,10,9.423Zm0-2.759A2.332,2.332,0,1,0,7.663,4.332,2.329,2.329,0,0,0,10,6.663Z" transform="translate(276.007 66.109)" fill="none" stroke="#fff" stroke-width="1"/>
    <rect id="Rectangle_13" data-name="Rectangle 13" width="248" height="39" rx="3" transform="translate(74 251)" fill="#fff"/>
    <rect id="Rectangle_14" data-name="Rectangle 14" width="248" height="39" rx="3" transform="translate(74 311)" fill="#fff"/>
    <rect id="Rectangle_15" data-name="Rectangle 15" width="248" height="39" rx="3" transform="translate(74 371)" fill="#fff"/>
    <rect id="Rectangle_16" data-name="Rectangle 16" width="248" height="39" rx="3" transform="translate(74 431)" fill="#fff"/>
    <rect id="Rectangle_17" data-name="Rectangle 17" width="248" height="39" rx="3" transform="translate(74 491)" fill="#fff"/>
    <rect id="Rectangle_18" data-name="Rectangle 18" width="248" height="39" rx="3" transform="translate(74 549)" fill="#fff"/>
    <rect id="Rectangle_19" data-name="Rectangle 19" width="248" height="39" rx="3" transform="translate(74 609)" fill="#fff"/>
    <rect id="Rectangle_20" data-name="Rectangle 20" width="248" height="39" rx="3" transform="translate(74 669)" fill="#fff"/>
    <line id="Line_251" data-name="Line 251" y2="471" transform="translate(214.5 251.5)" fill="none" stroke="#f9dc56" stroke-width="1"/>
    <text id="Run_One" data-name="Run One" transform="translate(87 277)" fill="#00f6b7" font-size="20" font-family="SourceCodePro-Light, Source Code Pro" font-weight="300" letter-spacing="-0.005em"><tspan x="0" y="0">Run One</tspan></text>
    <text id="Run_Two" data-name="Run Two" transform="translate(86 337)" fill="#00f6b7" font-size="20" font-family="SourceCodePro-Light, Source Code Pro" font-weight="300" letter-spacing="-0.005em"><tspan x="0" y="0">Run Two</tspan></text>
    <text id="Run_Three" data-name="Run Three" transform="translate(86 397)" fill="#00f6b7" font-size="20" font-family="SourceCodePro-Light, Source Code Pro" font-weight="300" letter-spacing="-0.005em"><tspan x="0" y="0">Run Three</tspan></text>
    <text id="Run_Four" data-name="Run Four" transform="translate(86 457)" fill="#00f6b7" font-size="20" font-family="SourceCodePro-Light, Source Code Pro" font-weight="300" letter-spacing="-0.005em"><tspan x="0" y="0">Run Four</tspan></text>
    <text id="Run_Five" data-name="Run Five" transform="translate(86 516)" fill="#00f6b7" font-size="20" font-family="SourceCodePro-Light, Source Code Pro" font-weight="300" letter-spacing="-0.005em"><tspan x="0" y="0">Run Five</tspan></text>
    <text id="Run_Six" data-name="Run Six" transform="translate(86 575)" fill="#00f6b7" font-size="20" font-family="SourceCodePro-Light, Source Code Pro" font-weight="300" letter-spacing="-0.005em"><tspan x="0" y="0">Run Six</tspan></text>
    <text id="Run_Seven" data-name="Run Seven" transform="translate(86 635)" fill="#00f6b7" font-size="20" font-family="SourceCodePro-Light, Source Code Pro" font-weight="300" letter-spacing="-0.005em"><tspan x="0" y="0">Run Seven</tspan></text>
    <text id="Run_Eight" data-name="Run Eight" transform="translate(86 697)" fill="#00f6b7" font-size="20" font-family="SourceCodePro-Light, Source Code Pro" font-weight="300" letter-spacing="-0.005em"><tspan x="0" y="0">Run Eight</tspan></text>
    <text id="_01_01_19" data-name="01/01/19" transform="translate(221 277)" fill="#00f6b7" font-size="20" font-family="SourceCodePro-Light, Source Code Pro" font-weight="300" letter-spacing="-0.005em"><tspan x="0" y="0">01/01/19</tspan></text>
    <text id="_01_02_19" data-name="01/02/19" transform="translate(221 338)" fill="#00f6b7" font-size="20" font-family="SourceCodePro-Light, Source Code Pro" font-weight="300" letter-spacing="-0.005em"><tspan x="0" y="0">01/02/19</tspan></text>
    <text id="_01_03_19" data-name="01/03/19" transform="translate(221 396)" fill="#00f6b7" font-size="20" font-family="SourceCodePro-Light, Source Code Pro" font-weight="300" letter-spacing="-0.005em"><tspan x="0" y="0">01/03/19</tspan></text>
    <text id="_01_04_19" data-name="01/04/19" transform="translate(221 458)" fill="#00f6b7" font-size="20" font-family="SourceCodePro-Light, Source Code Pro" font-weight="300" letter-spacing="-0.005em"><tspan x="0" y="0">01/04/19</tspan></text>
    <text id="_01_05_19" data-name="01/05/19" transform="translate(221 518)" fill="#00f6b7" font-size="20" font-family="SourceCodePro-Light, Source Code Pro" font-weight="300" letter-spacing="-0.005em"><tspan x="0" y="0">01/05/19</tspan></text>
    <text id="_01_06_19" data-name="01/06/19" transform="translate(221 575)" fill="#00f6b7" font-size="20" font-family="SourceCodePro-Light, Source Code Pro" font-weight="300" letter-spacing="-0.005em"><tspan x="0" y="0">01/06/19</tspan></text>
    <text id="_01_07_19" data-name="01/07/19" transform="translate(221 636)" fill="#00f6b7" font-size="20" font-family="SourceCodePro-Light, Source Code Pro" font-weight="300" letter-spacing="-0.005em"><tspan x="0" y="0">01/07/19</tspan></text>
    <text id="_01_08_19" data-name="01/08/19" transform="translate(221 696)" fill="#00f6b7" font-size="20" font-family="SourceCodePro-Light, Source Code Pro" font-weight="300" letter-spacing="-0.005em"><tspan x="0" y="0">01/08/19</tspan></text>
    <rect id="Rectangle_21" data-name="Rectangle 21" width="248" height="39" rx="3" transform="translate(74 251)" fill="#fff"/>
    <rect id="Rectangle_22" data-name="Rectangle 22" width="248" height="39" rx="3" transform="translate(74 311)" fill="#fff"/>
    <rect id="Rectangle_23" data-name="Rectangle 23" width="248" height="39" rx="3" transform="translate(74 371)" fill="#fff"/>
    <rect id="Rectangle_24" data-name="Rectangle 24" width="248" height="39" rx="3" transform="translate(74 431)" fill="#fff"/>
    <rect id="Rectangle_25" data-name="Rectangle 25" width="248" height="39" rx="3" transform="translate(74 491)" fill="#fff"/>
    <rect id="Rectangle_26" data-name="Rectangle 26" width="248" height="39" rx="3" transform="translate(74 549)" fill="#fff"/>
    <rect id="Rectangle_27" data-name="Rectangle 27" width="248" height="39" rx="3" transform="translate(74 609)" fill="#fff"/>
    <rect id="Rectangle_28" data-name="Rectangle 28" width="248" height="39" rx="3" transform="translate(74 669)" fill="#fff"/>
    <line id="Line_252" data-name="Line 252" y2="471" transform="translate(214.5 251.5)" fill="none" stroke="#f9dc56" stroke-width="1"/>
    <text id="Run_One-2" data-name="Run One" transform="translate(87 277)" fill="#00f6b7" font-size="20" font-family="SourceCodePro-Light, Source Code Pro" font-weight="300" letter-spacing="-0.005em"><tspan x="0" y="0">Run One</tspan></text>
    <text id="Run_Two-2" data-name="Run Two" transform="translate(86 337)" fill="#00f6b7" font-size="20" font-family="SourceCodePro-Light, Source Code Pro" font-weight="300" letter-spacing="-0.005em"><tspan x="0" y="0">Run Two</tspan></text>
    <text id="Run_Three-2" data-name="Run Three" transform="translate(86 397)" fill="#00f6b7" font-size="20" font-family="SourceCodePro-Light, Source Code Pro" font-weight="300" letter-spacing="-0.005em"><tspan x="0" y="0">Run Three</tspan></text>
    <text id="Run_Four-2" data-name="Run Four" transform="translate(86 457)" fill="#00f6b7" font-size="20" font-family="SourceCodePro-Light, Source Code Pro" font-weight="300" letter-spacing="-0.005em"><tspan x="0" y="0">Run Four</tspan></text>
    <text id="Run_Five-2" data-name="Run Five" transform="translate(86 516)" fill="#00f6b7" font-size="20" font-family="SourceCodePro-Light, Source Code Pro" font-weight="300" letter-spacing="-0.005em"><tspan x="0" y="0">Run Five</tspan></text>
    <text id="Run_Six-2" data-name="Run Six" transform="translate(86 575)" fill="#00f6b7" font-size="20" font-family="SourceCodePro-Light, Source Code Pro" font-weight="300" letter-spacing="-0.005em"><tspan x="0" y="0">Run Six</tspan></text>
    <text id="Run_Seven-2" data-name="Run Seven" transform="translate(86 635)" fill="#00f6b7" font-size="20" font-family="SourceCodePro-Light, Source Code Pro" font-weight="300" letter-spacing="-0.005em"><tspan x="0" y="0">Run Seven</tspan></text>
    <text id="Run_Eight-2" data-name="Run Eight" transform="translate(86 697)" fill="#00f6b7" font-size="20" font-family="SourceCodePro-Light, Source Code Pro" font-weight="300" letter-spacing="-0.005em"><tspan x="0" y="0">Run Eight</tspan></text>
    <text id="_01_01_19-2" data-name="01/01/19" transform="translate(221 277)" fill="#00f6b7" font-size="20" font-family="SourceCodePro-Light, Source Code Pro" font-weight="300" letter-spacing="-0.005em"><tspan x="0" y="0">01/01/19</tspan></text>
    <text id="_01_02_19-2" data-name="01/02/19" transform="translate(221 338)" fill="#00f6b7" font-size="20" font-family="SourceCodePro-Light, Source Code Pro" font-weight="300" letter-spacing="-0.005em"><tspan x="0" y="0">01/02/19</tspan></text>
    <text id="_01_03_19-2" data-name="01/03/19" transform="translate(221 396)" fill="#00f6b7" font-size="20" font-family="SourceCodePro-Light, Source Code Pro" font-weight="300" letter-spacing="-0.005em"><tspan x="0" y="0">01/03/19</tspan></text>
    <text id="_01_04_19-2" data-name="01/04/19" transform="translate(221 458)" fill="#00f6b7" font-size="20" font-family="SourceCodePro-Light, Source Code Pro" font-weight="300" letter-spacing="-0.005em"><tspan x="0" y="0">01/04/19</tspan></text>
    <text id="_01_05_19-2" data-name="01/05/19" transform="translate(221 518)" fill="#00f6b7" font-size="20" font-family="SourceCodePro-Light, Source Code Pro" font-weight="300" letter-spacing="-0.005em"><tspan x="0" y="0">01/05/19</tspan></text>
    <text id="_01_06_19-2" data-name="01/06/19" transform="translate(221 575)" fill="#00f6b7" font-size="20" font-family="SourceCodePro-Light, Source Code Pro" font-weight="300" letter-spacing="-0.005em"><tspan x="0" y="0">01/06/19</tspan></text>
    <text id="_01_07_19-2" data-name="01/07/19" transform="translate(221 636)" fill="#00f6b7" font-size="20" font-family="SourceCodePro-Light, Source Code Pro" font-weight="300" letter-spacing="-0.005em"><tspan x="0" y="0">01/07/19</tspan></text>
    <text id="_01_08_19-2" data-name="01/08/19" transform="translate(221 696)" fill="#00f6b7" font-size="20" font-family="SourceCodePro-Light, Source Code Pro" font-weight="300" letter-spacing="-0.005em"><tspan x="0" y="0">01/08/19</tspan></text>
  </g>
</svg>
