<svg xmlns="http://www.w3.org/2000/svg" xmlns:xlink="http://www.w3.org/1999/xlink" width="375" height="812" viewBox="0 0 375 812">
  <defs>
    <clipPath id="clip-iPhone_X_XS_9">
      <rect width="375" height="812"/>
    </clipPath>
  </defs>
  <g id="iPhone_X_XS_9" data-name="iPhone X/XS – 9" clip-path="url(#clip-iPhone_X_XS_9)">
    <rect width="375" height="812" fill="#ffa3a7"/>
    <rect id="Rectangle_1" data-name="Rectangle 1" width="443" height="701" transform="translate(67 56)" fill="#a8cfe3"/>
    <rect id="Rectangle_3" data-name="Rectangle 3" width="443" height="547" transform="translate(-235 166)" fill="#ffb9bb"/>
    <text id="Run_" data-name="Run!" transform="translate(131 143)" fill="#fff" font-size="70" font-family="SourceCodePro-Regular, Source Code Pro"><tspan x="0" y="0">Run!</tspan></text>
    <g id="Rectangle_2" data-name="Rectangle 2" transform="translate(31 31)" fill="none" stroke="#fff" stroke-width="1">
      <rect width="314" height="751" rx="8" stroke="none"/>
      <rect x="0.5" y="0.5" width="313" height="750" rx="7.5" fill="none"/>
    </g>
    <line id="Line_1" data-name="Line 1" x2="97" transform="translate(325.5 121.5)" fill="none" stroke="#fff" stroke-width="1"/>
    <line id="Line_2" data-name="Line 2" x2="97" transform="translate(325.5 126.5)" fill="none" stroke="#fff" stroke-width="1"/>
    <line id="Line_3" data-name="Line 3" x2="97" transform="translate(325.5 131.5)" fill="none" stroke="#fff" stroke-width="1"/>
    <line id="Line_4" data-name="Line 4" x2="97" transform="translate(325.5 136.5)" fill="none" stroke="#fff" stroke-width="1"/>
    <line id="Line_5" data-name="Line 5" x2="97" transform="translate(325.5 141.5)" fill="none" stroke="#fff" stroke-width="1"/>
    <line id="Line_6" data-name="Line 6" x2="97" transform="translate(325.5 146.5)" fill="none" stroke="#fff" stroke-width="1"/>
    <line id="Line_7" data-name="Line 7" x2="97" transform="translate(325.5 151.5)" fill="none" stroke="#fff" stroke-width="1"/>
    <line id="Line_8" data-name="Line 8" x2="97" transform="translate(325.5 156.5)" fill="none" stroke="#fff" stroke-width="1"/>
    <line id="Line_9" data-name="Line 9" x2="97" transform="translate(325.5 161.5)" fill="none" stroke="#fff" stroke-width="1"/>
    <line id="Line_10" data-name="Line 10" x2="97" transform="translate(325.5 166.5)" fill="none" stroke="#fff" stroke-width="1"/>
    <line id="Line_11" data-name="Line 11" x2="97" transform="translate(325.5 171.5)" fill="none" stroke="#fff" stroke-width="1"/>
    <line id="Line_12" data-name="Line 12" x2="97" transform="translate(325.5 176.5)" fill="none" stroke="#fff" stroke-width="1"/>
    <line id="Line_13" data-name="Line 13" x2="97" transform="translate(325.5 181.5)" fill="none" stroke="#fff" stroke-width="1"/>
    <line id="Line_14" data-name="Line 14" x2="97" transform="translate(325.5 186.5)" fill="none" stroke="#fff" stroke-width="1"/>
    <line id="Line_15" data-name="Line 15" x2="97" transform="translate(325.5 191.5)" fill="none" stroke="#fff" stroke-width="1"/>
    <line id="Line_16" data-name="Line 16" x2="97" transform="translate(325.5 196.5)" fill="none" stroke="#fff" stroke-width="1"/>
    <line id="Line_17" data-name="Line 17" x2="97" transform="translate(325.5 201.5)" fill="none" stroke="#fff" stroke-width="1"/>
    <line id="Line_18" data-name="Line 18" x2="97" transform="translate(325.5 206.5)" fill="none" stroke="#fff" stroke-width="1"/>
    <line id="Line_19" data-name="Line 19" x2="97" transform="translate(325.5 211.5)" fill="none" stroke="#fff" stroke-width="1"/>
    <line id="Line_20" data-name="Line 20" x2="97" transform="translate(325.5 216.5)" fill="none" stroke="#fff" stroke-width="1"/>
    <line id="Line_21" data-name="Line 21" x2="97" transform="translate(325.5 221.5)" fill="none" stroke="#fff" stroke-width="1"/>
    <line id="Line_22" data-name="Line 22" x2="97" transform="translate(325.5 226.5)" fill="none" stroke="#fff" stroke-width="1"/>
    <line id="Line_23" data-name="Line 23" x2="97" transform="translate(325.5 231.5)" fill="none" stroke="#fff" stroke-width="1"/>
    <line id="Line_24" data-name="Line 24" x2="97" transform="translate(325.5 236.5)" fill="none" stroke="#fff" stroke-width="1"/>
    <line id="Line_25" data-name="Line 25" x2="97" transform="translate(325.5 241.5)" fill="none" stroke="#fff" stroke-width="1"/>
    <line id="Line_26" data-name="Line 26" x2="97" transform="translate(325.5 246.5)" fill="none" stroke="#fff" stroke-width="1"/>
    <line id="Line_27" data-name="Line 27" x2="97" transform="translate(325.5 251.5)" fill="none" stroke="#fff" stroke-width="1"/>
    <line id="Line_28" data-name="Line 28" x2="97" transform="translate(325.5 256.5)" fill="none" stroke="#fff" stroke-width="1"/>
    <line id="Line_29" data-name="Line 29" x2="97" transform="translate(325.5 261.5)" fill="none" stroke="#fff" stroke-width="1"/>
    <line id="Line_30" data-name="Line 30" x2="97" transform="translate(325.5 266.5)" fill="none" stroke="#fff" stroke-width="1"/>
    <line id="Line_31" data-name="Line 31" x2="97" transform="translate(325.5 271.5)" fill="none" stroke="#fff" stroke-width="1"/>
    <line id="Line_32" data-name="Line 32" x2="97" transform="translate(325.5 276.5)" fill="none" stroke="#fff" stroke-width="1"/>
    <line id="Line_33" data-name="Line 33" x2="97" transform="translate(-48.5 537.5)" fill="none" stroke="#fff" stroke-width="1"/>
    <line id="Line_34" data-name="Line 34" x2="97" transform="translate(-48.5 542.5)" fill="none" stroke="#fff" stroke-width="1"/>
    <line id="Line_35" data-name="Line 35" x2="97" transform="translate(-48.5 547.5)" fill="none" stroke="#fff" stroke-width="1"/>
    <line id="Line_36" data-name="Line 36" x2="97" transform="translate(-48.5 552.5)" fill="none" stroke="#fff" stroke-width="1"/>
    <line id="Line_37" data-name="Line 37" x2="97" transform="translate(-48.5 557.5)" fill="none" stroke="#fff" stroke-width="1"/>
    <line id="Line_38" data-name="Line 38" x2="97" transform="translate(-48.5 562.5)" fill="none" stroke="#fff" stroke-width="1"/>
    <line id="Line_39" data-name="Line 39" x2="97" transform="translate(-48.5 567.5)" fill="none" stroke="#fff" stroke-width="1"/>
    <line id="Line_40" data-name="Line 40" x2="97" transform="translate(-48.5 572.5)" fill="none" stroke="#fff" stroke-width="1"/>
    <line id="Line_41" data-name="Line 41" x2="97" transform="translate(-48.5 577.5)" fill="none" stroke="#fff" stroke-width="1"/>
    <line id="Line_42" data-name="Line 42" x2="97" transform="translate(-48.5 582.5)" fill="none" stroke="#fff" stroke-width="1"/>
    <line id="Line_43" data-name="Line 43" x2="97" transform="translate(-48.5 587.5)" fill="none" stroke="#fff" stroke-width="1"/>
    <line id="Line_44" data-name="Line 44" x2="97" transform="translate(-48.5 592.5)" fill="none" stroke="#fff" stroke-width="1"/>
    <line id="Line_45" data-name="Line 45" x2="97" transform="translate(-48.5 597.5)" fill="none" stroke="#fff" stroke-width="1"/>
    <line id="Line_46" data-name="Line 46" x2="97" transform="translate(-48.5 602.5)" fill="none" stroke="#fff" stroke-width="1"/>
    <line id="Line_47" data-name="Line 47" x2="97" transform="translate(-48.5 607.5)" fill="none" stroke="#fff" stroke-width="1"/>
    <line id="Line_48" data-name="Line 48" x2="97" transform="translate(-48.5 612.5)" fill="none" stroke="#fff" stroke-width="1"/>
    <line id="Line_49" data-name="Line 49" x2="97" transform="translate(-48.5 617.5)" fill="none" stroke="#fff" stroke-width="1"/>
    <line id="Line_50" data-name="Line 50" x2="97" transform="translate(-48.5 622.5)" fill="none" stroke="#fff" stroke-width="1"/>
    <line id="Line_51" data-name="Line 51" x2="97" transform="translate(-48.5 627.5)" fill="none" stroke="#fff" stroke-width="1"/>
    <line id="Line_52" data-name="Line 52" x2="97" transform="translate(-48.5 632.5)" fill="none" stroke="#fff" stroke-width="1"/>
    <line id="Line_53" data-name="Line 53" x2="97" transform="translate(-48.5 637.5)" fill="none" stroke="#fff" stroke-width="1"/>
    <line id="Line_54" data-name="Line 54" x2="97" transform="translate(-48.5 642.5)" fill="none" stroke="#fff" stroke-width="1"/>
    <line id="Line_55" data-name="Line 55" x2="97" transform="translate(-48.5 647.5)" fill="none" stroke="#fff" stroke-width="1"/>
    <line id="Line_56" data-name="Line 56" x2="97" transform="translate(-48.5 652.5)" fill="none" stroke="#fff" stroke-width="1"/>
    <line id="Line_57" data-name="Line 57" x2="97" transform="translate(-48.5 657.5)" fill="none" stroke="#fff" stroke-width="1"/>
    <line id="Line_58" data-name="Line 58" x2="97" transform="translate(-48.5 662.5)" fill="none" stroke="#fff" stroke-width="1"/>
    <line id="Line_59" data-name="Line 59" x2="97" transform="translate(-48.5 667.5)" fill="none" stroke="#fff" stroke-width="1"/>
    <line id="Line_60" data-name="Line 60" x2="97" transform="translate(-48.5 672.5)" fill="none" stroke="#fff" stroke-width="1"/>
    <line id="Line_61" data-name="Line 61" x2="97" transform="translate(-48.5 677.5)" fill="none" stroke="#fff" stroke-width="1"/>
    <line id="Line_62" data-name="Line 62" x2="97" transform="translate(-48.5 682.5)" fill="none" stroke="#fff" stroke-width="1"/>
    <line id="Line_63" data-name="Line 63" x2="97" transform="translate(-48.5 687.5)" fill="none" stroke="#fff" stroke-width="1"/>
    <line id="Line_64" data-name="Line 64" x2="97" transform="translate(-48.5 692.5)" fill="none" stroke="#fff" stroke-width="1"/>
    <line id="Line_65" data-name="Line 65" x2="97" transform="translate(-48.5 697.5)" fill="none" stroke="#fff" stroke-width="1"/>
    <line id="Line_66" data-name="Line 66" x2="97" transform="translate(-48.5 702.5)" fill="none" stroke="#fff" stroke-width="1"/>
    <line id="Line_67" data-name="Line 67" x2="97" transform="translate(-48.5 707.5)" fill="none" stroke="#fff" stroke-width="1"/>
    <line id="Line_68" data-name="Line 68" x2="97" transform="translate(-48.5 712.5)" fill="none" stroke="#fff" stroke-width="1"/>
    <line id="Line_69" data-name="Line 69" x2="97" transform="translate(-48.5 717.5)" fill="none" stroke="#fff" stroke-width="1"/>
    <line id="Line_70" data-name="Line 70" x2="97" transform="translate(-48.5 722.5)" fill="none" stroke="#fff" stroke-width="1"/>
    <line id="Line_71" data-name="Line 71" x2="97" transform="translate(-48.5 727.5)" fill="none" stroke="#fff" stroke-width="1"/>
    <line id="Line_72" data-name="Line 72" x2="97" transform="translate(-48.5 732.5)" fill="none" stroke="#fff" stroke-width="1"/>
    <line id="Line_73" data-name="Line 73" x2="97" transform="translate(-48.5 737.5)" fill="none" stroke="#fff" stroke-width="1"/>
    <line id="Line_74" data-name="Line 74" x2="97" transform="translate(-48.5 742.5)" fill="none" stroke="#fff" stroke-width="1"/>
    <line id="Line_75" data-name="Line 75" x2="97" transform="translate(-48.5 747.5)" fill="none" stroke="#fff" stroke-width="1"/>
    <line id="Line_76" data-name="Line 76" x2="97" transform="translate(-48.5 752.5)" fill="none" stroke="#fff" stroke-width="1"/>
    <circle id="Ellipse_271" data-name="Ellipse 271" cx="1" cy="1" r="1" transform="translate(69 726)" fill="#fff"/>
    <circle id="Ellipse_272" data-name="Ellipse 272" cx="1" cy="1" r="1" transform="translate(69 732)" fill="#fff"/>
    <circle id="Ellipse_273" data-name="Ellipse 273" cx="1" cy="1" r="1" transform="translate(69 738)" fill="#fff"/>
    <circle id="Ellipse_274" data-name="Ellipse 274" cx="1" cy="1" r="1" transform="translate(75 726)" fill="#fff"/>
    <circle id="Ellipse_275" data-name="Ellipse 275" cx="1" cy="1" r="1" transform="translate(75 732)" fill="#fff"/>
    <circle id="Ellipse_276" data-name="Ellipse 276" cx="1" cy="1" r="1" transform="translate(75 738)" fill="#fff"/>
    <circle id="Ellipse_277" data-name="Ellipse 277" cx="1" cy="1" r="1" transform="translate(81 726)" fill="#fff"/>
    <circle id="Ellipse_278" data-name="Ellipse 278" cx="1" cy="1" r="1" transform="translate(81 732)" fill="#fff"/>
    <circle id="Ellipse_279" data-name="Ellipse 279" cx="1" cy="1" r="1" transform="translate(81 738)" fill="#fff"/>
    <circle id="Ellipse_280" data-name="Ellipse 280" cx="1" cy="1" r="1" transform="translate(87 726)" fill="#fff"/>
    <circle id="Ellipse_281" data-name="Ellipse 281" cx="1" cy="1" r="1" transform="translate(87 732)" fill="#fff"/>
    <circle id="Ellipse_282" data-name="Ellipse 282" cx="1" cy="1" r="1" transform="translate(87 738)" fill="#fff"/>
    <circle id="Ellipse_283" data-name="Ellipse 283" cx="1" cy="1" r="1" transform="translate(93 726)" fill="#fff"/>
    <circle id="Ellipse_284" data-name="Ellipse 284" cx="1" cy="1" r="1" transform="translate(93 732)" fill="#fff"/>
    <circle id="Ellipse_285" data-name="Ellipse 285" cx="1" cy="1" r="1" transform="translate(93 738)" fill="#fff"/>
    <circle id="Ellipse_286" data-name="Ellipse 286" cx="1" cy="1" r="1" transform="translate(99 726)" fill="#fff"/>
    <circle id="Ellipse_287" data-name="Ellipse 287" cx="1" cy="1" r="1" transform="translate(99 732)" fill="#fff"/>
    <circle id="Ellipse_288" data-name="Ellipse 288" cx="1" cy="1" r="1" transform="translate(99 738)" fill="#fff"/>
    <circle id="Ellipse_289" data-name="Ellipse 289" cx="1" cy="1" r="1" transform="translate(105 726)" fill="#fff"/>
    <circle id="Ellipse_290" data-name="Ellipse 290" cx="1" cy="1" r="1" transform="translate(105 732)" fill="#fff"/>
    <circle id="Ellipse_291" data-name="Ellipse 291" cx="1" cy="1" r="1" transform="translate(105 738)" fill="#fff"/>
    <circle id="Ellipse_292" data-name="Ellipse 292" cx="1" cy="1" r="1" transform="translate(111 726)" fill="#fff"/>
    <circle id="Ellipse_293" data-name="Ellipse 293" cx="1" cy="1" r="1" transform="translate(111 732)" fill="#fff"/>
    <circle id="Ellipse_294" data-name="Ellipse 294" cx="1" cy="1" r="1" transform="translate(111 738)" fill="#fff"/>
    <circle id="Ellipse_295" data-name="Ellipse 295" cx="1" cy="1" r="1" transform="translate(117 726)" fill="#fff"/>
    <circle id="Ellipse_296" data-name="Ellipse 296" cx="1" cy="1" r="1" transform="translate(117 732)" fill="#fff"/>
    <circle id="Ellipse_297" data-name="Ellipse 297" cx="1" cy="1" r="1" transform="translate(117 738)" fill="#fff"/>
    <circle id="Ellipse_298" data-name="Ellipse 298" cx="1" cy="1" r="1" transform="translate(123 726)" fill="#fff"/>
    <circle id="Ellipse_299" data-name="Ellipse 299" cx="1" cy="1" r="1" transform="translate(123 732)" fill="#fff"/>
    <circle id="Ellipse_300" data-name="Ellipse 300" cx="1" cy="1" r="1" transform="translate(123 738)" fill="#fff"/>
    <circle id="Ellipse_301" data-name="Ellipse 301" cx="1" cy="1" r="1" transform="translate(129 726)" fill="#fff"/>
    <circle id="Ellipse_302" data-name="Ellipse 302" cx="1" cy="1" r="1" transform="translate(129 732)" fill="#fff"/>
    <circle id="Ellipse_303" data-name="Ellipse 303" cx="1" cy="1" r="1" transform="translate(129 738)" fill="#fff"/>
    <circle id="Ellipse_304" data-name="Ellipse 304" cx="1" cy="1" r="1" transform="translate(135 726)" fill="#fff"/>
    <circle id="Ellipse_305" data-name="Ellipse 305" cx="1" cy="1" r="1" transform="translate(135 732)" fill="#fff"/>
    <circle id="Ellipse_306" data-name="Ellipse 306" cx="1" cy="1" r="1" transform="translate(135 738)" fill="#fff"/>
    <circle id="Ellipse_307" data-name="Ellipse 307" cx="1" cy="1" r="1" transform="translate(141 726)" fill="#fff"/>
    <circle id="Ellipse_308" data-name="Ellipse 308" cx="1" cy="1" r="1" transform="translate(141 732)" fill="#fff"/>
    <circle id="Ellipse_309" data-name="Ellipse 309" cx="1" cy="1" r="1" transform="translate(141 738)" fill="#fff"/>
    <circle id="Ellipse_310" data-name="Ellipse 310" cx="1" cy="1" r="1" transform="translate(147 726)" fill="#fff"/>
    <circle id="Ellipse_311" data-name="Ellipse 311" cx="1" cy="1" r="1" transform="translate(147 732)" fill="#fff"/>
    <circle id="Ellipse_312" data-name="Ellipse 312" cx="1" cy="1" r="1" transform="translate(147 738)" fill="#fff"/>
    <circle id="Ellipse_313" data-name="Ellipse 313" cx="1" cy="1" r="1" transform="translate(153 726)" fill="#fff"/>
    <circle id="Ellipse_314" data-name="Ellipse 314" cx="1" cy="1" r="1" transform="translate(153 732)" fill="#fff"/>
    <circle id="Ellipse_315" data-name="Ellipse 315" cx="1" cy="1" r="1" transform="translate(153 738)" fill="#fff"/>
    <circle id="Ellipse_316" data-name="Ellipse 316" cx="1" cy="1" r="1" transform="translate(159 726)" fill="#fff"/>
    <circle id="Ellipse_317" data-name="Ellipse 317" cx="1" cy="1" r="1" transform="translate(159 732)" fill="#fff"/>
    <circle id="Ellipse_318" data-name="Ellipse 318" cx="1" cy="1" r="1" transform="translate(159 738)" fill="#fff"/>
    <circle id="Ellipse_319" data-name="Ellipse 319" cx="1" cy="1" r="1" transform="translate(165 726)" fill="#fff"/>
    <circle id="Ellipse_320" data-name="Ellipse 320" cx="1" cy="1" r="1" transform="translate(165 732)" fill="#fff"/>
    <circle id="Ellipse_321" data-name="Ellipse 321" cx="1" cy="1" r="1" transform="translate(165 738)" fill="#fff"/>
    <circle id="Ellipse_322" data-name="Ellipse 322" cx="1" cy="1" r="1" transform="translate(171 726)" fill="#fff"/>
    <circle id="Ellipse_323" data-name="Ellipse 323" cx="1" cy="1" r="1" transform="translate(171 732)" fill="#fff"/>
    <circle id="Ellipse_324" data-name="Ellipse 324" cx="1" cy="1" r="1" transform="translate(171 738)" fill="#fff"/>
    <circle id="Ellipse_325" data-name="Ellipse 325" cx="1" cy="1" r="1" transform="translate(177 726)" fill="#fff"/>
    <circle id="Ellipse_326" data-name="Ellipse 326" cx="1" cy="1" r="1" transform="translate(177 732)" fill="#fff"/>
    <circle id="Ellipse_327" data-name="Ellipse 327" cx="1" cy="1" r="1" transform="translate(177 738)" fill="#fff"/>
    <circle id="Ellipse_328" data-name="Ellipse 328" cx="1" cy="1" r="1" transform="translate(183 726)" fill="#fff"/>
    <circle id="Ellipse_329" data-name="Ellipse 329" cx="1" cy="1" r="1" transform="translate(183 732)" fill="#fff"/>
    <circle id="Ellipse_330" data-name="Ellipse 330" cx="1" cy="1" r="1" transform="translate(183 738)" fill="#fff"/>
    <circle id="Ellipse_331" data-name="Ellipse 331" cx="1" cy="1" r="1" transform="translate(189 726)" fill="#fff"/>
    <circle id="Ellipse_332" data-name="Ellipse 332" cx="1" cy="1" r="1" transform="translate(189 732)" fill="#fff"/>
    <circle id="Ellipse_333" data-name="Ellipse 333" cx="1" cy="1" r="1" transform="translate(189 738)" fill="#fff"/>
    <circle id="Ellipse_334" data-name="Ellipse 334" cx="1" cy="1" r="1" transform="translate(195 726)" fill="#fff"/>
    <circle id="Ellipse_335" data-name="Ellipse 335" cx="1" cy="1" r="1" transform="translate(195 732)" fill="#fff"/>
    <circle id="Ellipse_336" data-name="Ellipse 336" cx="1" cy="1" r="1" transform="translate(195 738)" fill="#fff"/>
    <circle id="Ellipse_337" data-name="Ellipse 337" cx="1" cy="1" r="1" transform="translate(201 726)" fill="#fff"/>
    <circle id="Ellipse_338" data-name="Ellipse 338" cx="1" cy="1" r="1" transform="translate(201 732)" fill="#fff"/>
    <circle id="Ellipse_339" data-name="Ellipse 339" cx="1" cy="1" r="1" transform="translate(201 738)" fill="#fff"/>
    <circle id="Ellipse_340" data-name="Ellipse 340" cx="1" cy="1" r="1" transform="translate(207 726)" fill="#fff"/>
    <circle id="Ellipse_341" data-name="Ellipse 341" cx="1" cy="1" r="1" transform="translate(207 732)" fill="#fff"/>
    <circle id="Ellipse_342" data-name="Ellipse 342" cx="1" cy="1" r="1" transform="translate(207 738)" fill="#fff"/>
    <circle id="Ellipse_343" data-name="Ellipse 343" cx="1" cy="1" r="1" transform="translate(69 744)" fill="#fff"/>
    <circle id="Ellipse_344" data-name="Ellipse 344" cx="1" cy="1" r="1" transform="translate(75 744)" fill="#fff"/>
    <circle id="Ellipse_345" data-name="Ellipse 345" cx="1" cy="1" r="1" transform="translate(81 744)" fill="#fff"/>
    <circle id="Ellipse_346" data-name="Ellipse 346" cx="1" cy="1" r="1" transform="translate(87 744)" fill="#fff"/>
    <circle id="Ellipse_347" data-name="Ellipse 347" cx="1" cy="1" r="1" transform="translate(93 744)" fill="#fff"/>
    <circle id="Ellipse_348" data-name="Ellipse 348" cx="1" cy="1" r="1" transform="translate(99 744)" fill="#fff"/>
    <circle id="Ellipse_349" data-name="Ellipse 349" cx="1" cy="1" r="1" transform="translate(105 744)" fill="#fff"/>
    <circle id="Ellipse_350" data-name="Ellipse 350" cx="1" cy="1" r="1" transform="translate(111 744)" fill="#fff"/>
    <circle id="Ellipse_351" data-name="Ellipse 351" cx="1" cy="1" r="1" transform="translate(117 744)" fill="#fff"/>
    <circle id="Ellipse_352" data-name="Ellipse 352" cx="1" cy="1" r="1" transform="translate(123 744)" fill="#fff"/>
    <circle id="Ellipse_353" data-name="Ellipse 353" cx="1" cy="1" r="1" transform="translate(129 744)" fill="#fff"/>
    <circle id="Ellipse_354" data-name="Ellipse 354" cx="1" cy="1" r="1" transform="translate(135 744)" fill="#fff"/>
    <circle id="Ellipse_355" data-name="Ellipse 355" cx="1" cy="1" r="1" transform="translate(141 744)" fill="#fff"/>
    <circle id="Ellipse_356" data-name="Ellipse 356" cx="1" cy="1" r="1" transform="translate(147 744)" fill="#fff"/>
    <circle id="Ellipse_357" data-name="Ellipse 357" cx="1" cy="1" r="1" transform="translate(153 744)" fill="#fff"/>
    <circle id="Ellipse_358" data-name="Ellipse 358" cx="1" cy="1" r="1" transform="translate(159 744)" fill="#fff"/>
    <circle id="Ellipse_359" data-name="Ellipse 359" cx="1" cy="1" r="1" transform="translate(165 744)" fill="#fff"/>
    <circle id="Ellipse_360" data-name="Ellipse 360" cx="1" cy="1" r="1" transform="translate(171 744)" fill="#fff"/>
    <circle id="Ellipse_361" data-name="Ellipse 361" cx="1" cy="1" r="1" transform="translate(177 744)" fill="#fff"/>
    <circle id="Ellipse_362" data-name="Ellipse 362" cx="1" cy="1" r="1" transform="translate(183 744)" fill="#fff"/>
    <circle id="Ellipse_363" data-name="Ellipse 363" cx="1" cy="1" r="1" transform="translate(189 744)" fill="#fff"/>
    <circle id="Ellipse_364" data-name="Ellipse 364" cx="1" cy="1" r="1" transform="translate(195 744)" fill="#fff"/>
    <circle id="Ellipse_365" data-name="Ellipse 365" cx="1" cy="1" r="1" transform="translate(201 744)" fill="#fff"/>
    <circle id="Ellipse_366" data-name="Ellipse 366" cx="1" cy="1" r="1" transform="translate(207 744)" fill="#fff"/>
    <circle id="Ellipse_367" data-name="Ellipse 367" cx="1" cy="1" r="1" transform="translate(69 738)" fill="#fff"/>
    <circle id="Ellipse_368" data-name="Ellipse 368" cx="1" cy="1" r="1" transform="translate(75 738)" fill="#fff"/>
    <circle id="Ellipse_369" data-name="Ellipse 369" cx="1" cy="1" r="1" transform="translate(81 738)" fill="#fff"/>
    <circle id="Ellipse_370" data-name="Ellipse 370" cx="1" cy="1" r="1" transform="translate(87 738)" fill="#fff"/>
    <circle id="Ellipse_371" data-name="Ellipse 371" cx="1" cy="1" r="1" transform="translate(93 738)" fill="#fff"/>
    <circle id="Ellipse_372" data-name="Ellipse 372" cx="1" cy="1" r="1" transform="translate(99 738)" fill="#fff"/>
    <circle id="Ellipse_373" data-name="Ellipse 373" cx="1" cy="1" r="1" transform="translate(105 738)" fill="#fff"/>
    <circle id="Ellipse_374" data-name="Ellipse 374" cx="1" cy="1" r="1" transform="translate(111 738)" fill="#fff"/>
    <circle id="Ellipse_375" data-name="Ellipse 375" cx="1" cy="1" r="1" transform="translate(117 738)" fill="#fff"/>
    <circle id="Ellipse_376" data-name="Ellipse 376" cx="1" cy="1" r="1" transform="translate(123 738)" fill="#fff"/>
    <circle id="Ellipse_377" data-name="Ellipse 377" cx="1" cy="1" r="1" transform="translate(129 738)" fill="#fff"/>
    <circle id="Ellipse_378" data-name="Ellipse 378" cx="1" cy="1" r="1" transform="translate(135 738)" fill="#fff"/>
    <circle id="Ellipse_379" data-name="Ellipse 379" cx="1" cy="1" r="1" transform="translate(141 738)" fill="#fff"/>
    <circle id="Ellipse_380" data-name="Ellipse 380" cx="1" cy="1" r="1" transform="translate(147 738)" fill="#fff"/>
    <circle id="Ellipse_381" data-name="Ellipse 381" cx="1" cy="1" r="1" transform="translate(153 738)" fill="#fff"/>
    <circle id="Ellipse_382" data-name="Ellipse 382" cx="1" cy="1" r="1" transform="translate(159 738)" fill="#fff"/>
    <circle id="Ellipse_383" data-name="Ellipse 383" cx="1" cy="1" r="1" transform="translate(165 738)" fill="#fff"/>
    <circle id="Ellipse_384" data-name="Ellipse 384" cx="1" cy="1" r="1" transform="translate(171 738)" fill="#fff"/>
    <circle id="Ellipse_385" data-name="Ellipse 385" cx="1" cy="1" r="1" transform="translate(177 738)" fill="#fff"/>
    <circle id="Ellipse_386" data-name="Ellipse 386" cx="1" cy="1" r="1" transform="translate(183 738)" fill="#fff"/>
    <circle id="Ellipse_387" data-name="Ellipse 387" cx="1" cy="1" r="1" transform="translate(189 738)" fill="#fff"/>
    <circle id="Ellipse_388" data-name="Ellipse 388" cx="1" cy="1" r="1" transform="translate(195 738)" fill="#fff"/>
    <circle id="Ellipse_389" data-name="Ellipse 389" cx="1" cy="1" r="1" transform="translate(201 738)" fill="#fff"/>
    <circle id="Ellipse_390" data-name="Ellipse 390" cx="1" cy="1" r="1" transform="translate(207 738)" fill="#fff"/>
    <path id="ic_home_24px" d="M16,32.75V22.25h7v10.5h8.75v-14H37L19.5,3,2,18.75H7.25v14Z" transform="translate(151 214)" fill="none" stroke="#fff" stroke-width="1"/>
    <g id="ic_border_color_24px" transform="translate(146 414.75)">
      <path id="Path_81" data-name="Path 81" d="M28.063,12.252,21.5,5.689,4,23.189v6.563h6.563Zm5.18-5.18a1.743,1.743,0,0,0,0-2.468L29.148.509a1.743,1.743,0,0,0-2.468,0l-3.43,3.43L29.813,10.5Z" transform="translate(3 0.002)" fill="none" stroke="#f8fcff" stroke-width="1"/>
      <path id="Path_82" data-name="Path 82" d="M0,20H42v7H0Z" transform="translate(0 15.004)" fill="none" stroke="#f8fcff" stroke-width="1"/>
    </g>
    <path id="ic_add_to_photos_24px" d="M5.5,9H2V33.5A3.51,3.51,0,0,0,5.5,37H30V33.5H5.5Zm28-7h-21A3.51,3.51,0,0,0,9,5.5v21A3.51,3.51,0,0,0,12.5,30h21A3.51,3.51,0,0,0,37,26.5V5.5A3.51,3.51,0,0,0,33.5,2ZM31.75,17.75h-7v7h-3.5v-7h-7v-3.5h7v-7h3.5v7h7Z" transform="translate(149.25 311.25)" fill="none" stroke="#fff" stroke-width="1"/>
    <path id="ic_remove_red_eye_24px" d="M20.25,4.5A20.7,20.7,0,0,0,1,17.625a20.679,20.679,0,0,0,38.5,0A20.7,20.7,0,0,0,20.25,4.5Zm0,21.875A8.75,8.75,0,1,1,29,17.625,8.753,8.753,0,0,1,20.25,26.375Zm0-14a5.25,5.25,0,1,0,5.25,5.25A5.243,5.243,0,0,0,20.25,12.375Z" transform="translate(148.5 518.75)" fill="none" stroke="#fff" stroke-width="1"/>
    <path id="ic_local_library_24px" d="M18.75,18.713A23.018,23.018,0,0,0,3,12.5V31.75a23.018,23.018,0,0,1,15.75,6.212A23.1,23.1,0,0,1,34.5,31.75V12.5A23.018,23.018,0,0,0,18.75,18.713Zm0-6.213A5.25,5.25,0,1,0,13.5,7.25,5.243,5.243,0,0,0,18.75,12.5Z" transform="translate(146.5 614)" fill="none" stroke="#fff" stroke-width="1"/>
    <text id="Home" transform="translate(217 242)" fill="#fff" font-size="30" font-family="SourceCodePro-Light, Source Code Pro" font-weight="300" letter-spacing="-0.005em"><tspan x="0" y="0">Home</tspan></text>
    <text id="Add" transform="translate(215 343)" fill="#fff" font-size="30" font-family="SourceCodePro-Light, Source Code Pro" font-weight="300" letter-spacing="-0.005em"><tspan x="0" y="0">Add</tspan></text>
    <text id="Edit" transform="translate(217 444)" fill="#fff" font-size="30" font-family="SourceCodePro-Light, Source Code Pro" font-weight="300" letter-spacing="-0.005em"><tspan x="0" y="0">Edit</tspan></text>
    <text id="View" transform="translate(215 554)" fill="#fff" font-size="30" font-family="SourceCodePro-Light, Source Code Pro" font-weight="300" letter-spacing="-0.005em"><tspan x="0" y="0">View</tspan></text>
    <text id="Route" transform="translate(215 655)" fill="#fff" font-size="30" font-family="SourceCodePro-Light, Source Code Pro" font-weight="300" letter-spacing="-0.005em"><tspan x="0" y="0">Route</tspan></text>
  </g>
</svg>
