<svg xmlns="http://www.w3.org/2000/svg" xmlns:xlink="http://www.w3.org/1999/xlink" width="375" height="812" viewBox="0 0 375 812">
  <defs>
    <clipPath id="clip-iPhone_X_XS_14">
      <rect width="375" height="812"/>
    </clipPath>
  </defs>
  <g id="iPhone_X_XS_14" data-name="iPhone X/XS – 14" clip-path="url(#clip-iPhone_X_XS_14)">
    <rect width="375" height="812" fill="#ff4656"/>
    <rect id="Rectangle_4" data-name="Rectangle 4" width="443" height="139" transform="translate(-136 92)" fill="#f0de84"/>
    <rect id="Rectangle_1" data-name="Rectangle 1" width="443" height="604" transform="translate(122 278)" fill="#f1ba85"/>
    <g id="Rectangle_2" data-name="Rectangle 2" transform="translate(31 31)" fill="none" stroke="#fff" stroke-width="1">
      <rect width="314" height="751" rx="8" stroke="none"/>
      <rect x="0.5" y="0.5" width="313" height="750" rx="7.5" fill="none"/>
    </g>
    <line id="Line_33" data-name="Line 33" x2="97" transform="translate(-17.5 329.5)" fill="none" stroke="#fff" stroke-width="1"/>
    <line id="Line_34" data-name="Line 34" x2="97" transform="translate(-17.5 334.5)" fill="none" stroke="#fff" stroke-width="1"/>
    <line id="Line_35" data-name="Line 35" x2="97" transform="translate(-17.5 339.5)" fill="none" stroke="#fff" stroke-width="1"/>
    <line id="Line_36" data-name="Line 36" x2="97" transform="translate(-17.5 344.5)" fill="none" stroke="#fff" stroke-width="1"/>
    <line id="Line_37" data-name="Line 37" x2="97" transform="translate(-17.5 349.5)" fill="none" stroke="#fff" stroke-width="1"/>
    <line id="Line_38" data-name="Line 38" x2="97" transform="translate(-17.5 354.5)" fill="none" stroke="#fff" stroke-width="1"/>
    <line id="Line_39" data-name="Line 39" x2="97" transform="translate(-17.5 359.5)" fill="none" stroke="#fff" stroke-width="1"/>
    <line id="Line_40" data-name="Line 40" x2="97" transform="translate(-17.5 364.5)" fill="none" stroke="#fff" stroke-width="1"/>
    <line id="Line_41" data-name="Line 41" x2="97" transform="translate(-17.5 369.5)" fill="none" stroke="#fff" stroke-width="1"/>
    <line id="Line_42" data-name="Line 42" x2="97" transform="translate(-17.5 374.5)" fill="none" stroke="#fff" stroke-width="1"/>
    <line id="Line_43" data-name="Line 43" x2="97" transform="translate(-17.5 379.5)" fill="none" stroke="#fff" stroke-width="1"/>
    <line id="Line_44" data-name="Line 44" x2="97" transform="translate(-17.5 384.5)" fill="none" stroke="#fff" stroke-width="1"/>
    <line id="Line_45" data-name="Line 45" x2="97" transform="translate(-17.5 389.5)" fill="none" stroke="#fff" stroke-width="1"/>
    <line id="Line_46" data-name="Line 46" x2="97" transform="translate(-17.5 394.5)" fill="none" stroke="#fff" stroke-width="1"/>
    <line id="Line_47" data-name="Line 47" x2="97" transform="translate(-17.5 399.5)" fill="none" stroke="#fff" stroke-width="1"/>
    <line id="Line_48" data-name="Line 48" x2="97" transform="translate(-17.5 404.5)" fill="none" stroke="#fff" stroke-width="1"/>
    <line id="Line_49" data-name="Line 49" x2="97" transform="translate(-17.5 409.5)" fill="none" stroke="#fff" stroke-width="1"/>
    <line id="Line_50" data-name="Line 50" x2="97" transform="translate(-17.5 414.5)" fill="none" stroke="#fff" stroke-width="1"/>
    <line id="Line_51" data-name="Line 51" x2="97" transform="translate(-17.5 419.5)" fill="none" stroke="#fff" stroke-width="1"/>
    <line id="Line_52" data-name="Line 52" x2="97" transform="translate(-17.5 424.5)" fill="none" stroke="#fff" stroke-width="1"/>
    <line id="Line_53" data-name="Line 53" x2="97" transform="translate(-17.5 429.5)" fill="none" stroke="#fff" stroke-width="1"/>
    <line id="Line_54" data-name="Line 54" x2="97" transform="translate(-17.5 434.5)" fill="none" stroke="#fff" stroke-width="1"/>
    <line id="Line_55" data-name="Line 55" x2="97" transform="translate(-17.5 439.5)" fill="none" stroke="#fff" stroke-width="1"/>
    <line id="Line_56" data-name="Line 56" x2="97" transform="translate(-17.5 444.5)" fill="none" stroke="#fff" stroke-width="1"/>
    <line id="Line_57" data-name="Line 57" x2="97" transform="translate(-17.5 449.5)" fill="none" stroke="#fff" stroke-width="1"/>
    <line id="Line_58" data-name="Line 58" x2="97" transform="translate(-17.5 454.5)" fill="none" stroke="#fff" stroke-width="1"/>
    <line id="Line_59" data-name="Line 59" x2="97" transform="translate(-17.5 459.5)" fill="none" stroke="#fff" stroke-width="1"/>
    <line id="Line_60" data-name="Line 60" x2="97" transform="translate(-17.5 464.5)" fill="none" stroke="#fff" stroke-width="1"/>
    <line id="Line_61" data-name="Line 61" x2="97" transform="translate(-17.5 469.5)" fill="none" stroke="#fff" stroke-width="1"/>
    <line id="Line_62" data-name="Line 62" x2="97" transform="translate(-17.5 474.5)" fill="none" stroke="#fff" stroke-width="1"/>
    <line id="Line_63" data-name="Line 63" x2="97" transform="translate(-17.5 479.5)" fill="none" stroke="#fff" stroke-width="1"/>
    <line id="Line_64" data-name="Line 64" x2="97" transform="translate(-17.5 484.5)" fill="none" stroke="#fff" stroke-width="1"/>
    <line id="Line_65" data-name="Line 65" x2="97" transform="translate(-17.5 489.5)" fill="none" stroke="#fff" stroke-width="1"/>
    <line id="Line_66" data-name="Line 66" x2="97" transform="translate(-17.5 494.5)" fill="none" stroke="#fff" stroke-width="1"/>
    <line id="Line_67" data-name="Line 67" x2="97" transform="translate(-17.5 499.5)" fill="none" stroke="#fff" stroke-width="1"/>
    <line id="Line_68" data-name="Line 68" x2="97" transform="translate(-17.5 504.5)" fill="none" stroke="#fff" stroke-width="1"/>
    <line id="Line_69" data-name="Line 69" x2="97" transform="translate(-17.5 509.5)" fill="none" stroke="#fff" stroke-width="1"/>
    <line id="Line_70" data-name="Line 70" x2="97" transform="translate(-17.5 514.5)" fill="none" stroke="#fff" stroke-width="1"/>
    <line id="Line_71" data-name="Line 71" x2="97" transform="translate(-17.5 519.5)" fill="none" stroke="#fff" stroke-width="1"/>
    <line id="Line_72" data-name="Line 72" x2="97" transform="translate(-17.5 524.5)" fill="none" stroke="#fff" stroke-width="1"/>
    <line id="Line_73" data-name="Line 73" x2="97" transform="translate(-17.5 529.5)" fill="none" stroke="#fff" stroke-width="1"/>
    <line id="Line_74" data-name="Line 74" x2="97" transform="translate(-17.5 534.5)" fill="none" stroke="#fff" stroke-width="1"/>
    <line id="Line_75" data-name="Line 75" x2="97" transform="translate(-17.5 539.5)" fill="none" stroke="#fff" stroke-width="1"/>
    <line id="Line_76" data-name="Line 76" x2="97" transform="translate(-17.5 544.5)" fill="none" stroke="#fff" stroke-width="1"/>
    <line id="Line_123" data-name="Line 123" x2="97" transform="translate(-17.5 549.5)" fill="none" stroke="#fff" stroke-width="1"/>
    <line id="Line_124" data-name="Line 124" x2="97" transform="translate(-17.5 554.5)" fill="none" stroke="#fff" stroke-width="1"/>
    <line id="Line_125" data-name="Line 125" x2="97" transform="translate(-17.5 559.5)" fill="none" stroke="#fff" stroke-width="1"/>
    <line id="Line_126" data-name="Line 126" x2="97" transform="translate(-17.5 564.5)" fill="none" stroke="#fff" stroke-width="1"/>
    <line id="Line_127" data-name="Line 127" x2="97" transform="translate(-17.5 569.5)" fill="none" stroke="#fff" stroke-width="1"/>
    <line id="Line_128" data-name="Line 128" x2="97" transform="translate(-17.5 574.5)" fill="none" stroke="#fff" stroke-width="1"/>
    <line id="Line_129" data-name="Line 129" x2="97" transform="translate(-17.5 579.5)" fill="none" stroke="#fff" stroke-width="1"/>
    <line id="Line_130" data-name="Line 130" x2="97" transform="translate(-17.5 584.5)" fill="none" stroke="#fff" stroke-width="1"/>
    <line id="Line_131" data-name="Line 131" x2="97" transform="translate(-17.5 589.5)" fill="none" stroke="#fff" stroke-width="1"/>
    <line id="Line_132" data-name="Line 132" x2="97" transform="translate(-17.5 594.5)" fill="none" stroke="#fff" stroke-width="1"/>
    <line id="Line_133" data-name="Line 133" x2="97" transform="translate(-17.5 599.5)" fill="none" stroke="#fff" stroke-width="1"/>
    <line id="Line_134" data-name="Line 134" x2="97" transform="translate(-17.5 604.5)" fill="none" stroke="#fff" stroke-width="1"/>
    <line id="Line_135" data-name="Line 135" x2="97" transform="translate(-17.5 609.5)" fill="none" stroke="#fff" stroke-width="1"/>
    <line id="Line_136" data-name="Line 136" x2="97" transform="translate(-17.5 614.5)" fill="none" stroke="#fff" stroke-width="1"/>
    <line id="Line_137" data-name="Line 137" x2="97" transform="translate(-17.5 619.5)" fill="none" stroke="#fff" stroke-width="1"/>
    <line id="Line_138" data-name="Line 138" x2="97" transform="translate(-17.5 624.5)" fill="none" stroke="#fff" stroke-width="1"/>
    <line id="Line_139" data-name="Line 139" x2="97" transform="translate(-17.5 629.5)" fill="none" stroke="#fff" stroke-width="1"/>
    <line id="Line_140" data-name="Line 140" x2="97" transform="translate(-17.5 634.5)" fill="none" stroke="#fff" stroke-width="1"/>
    <line id="Line_141" data-name="Line 141" x2="97" transform="translate(-17.5 639.5)" fill="none" stroke="#fff" stroke-width="1"/>
    <line id="Line_142" data-name="Line 142" x2="97" transform="translate(-17.5 644.5)" fill="none" stroke="#fff" stroke-width="1"/>
    <line id="Line_143" data-name="Line 143" x2="97" transform="translate(-17.5 649.5)" fill="none" stroke="#fff" stroke-width="1"/>
    <line id="Line_144" data-name="Line 144" x2="97" transform="translate(-17.5 654.5)" fill="none" stroke="#fff" stroke-width="1"/>
    <line id="Line_145" data-name="Line 145" x2="97" transform="translate(-17.5 659.5)" fill="none" stroke="#fff" stroke-width="1"/>
    <line id="Line_146" data-name="Line 146" x2="97" transform="translate(-17.5 664.5)" fill="none" stroke="#fff" stroke-width="1"/>
    <line id="Line_147" data-name="Line 147" x2="97" transform="translate(-17.5 669.5)" fill="none" stroke="#fff" stroke-width="1"/>
    <line id="Line_148" data-name="Line 148" x2="97" transform="translate(-17.5 674.5)" fill="none" stroke="#fff" stroke-width="1"/>
    <line id="Line_149" data-name="Line 149" x2="97" transform="translate(-17.5 679.5)" fill="none" stroke="#fff" stroke-width="1"/>
    <line id="Line_150" data-name="Line 150" x2="97" transform="translate(-17.5 684.5)" fill="none" stroke="#fff" stroke-width="1"/>
    <line id="Line_151" data-name="Line 151" x2="97" transform="translate(-17.5 689.5)" fill="none" stroke="#fff" stroke-width="1"/>
    <line id="Line_152" data-name="Line 152" x2="97" transform="translate(-17.5 694.5)" fill="none" stroke="#fff" stroke-width="1"/>
    <line id="Line_153" data-name="Line 153" x2="97" transform="translate(-17.5 699.5)" fill="none" stroke="#fff" stroke-width="1"/>
    <line id="Line_154" data-name="Line 154" x2="97" transform="translate(-17.5 704.5)" fill="none" stroke="#fff" stroke-width="1"/>
    <line id="Line_155" data-name="Line 155" x2="97" transform="translate(-17.5 709.5)" fill="none" stroke="#fff" stroke-width="1"/>
    <line id="Line_156" data-name="Line 156" x2="97" transform="translate(-17.5 714.5)" fill="none" stroke="#fff" stroke-width="1"/>
    <line id="Line_157" data-name="Line 157" x2="97" transform="translate(-17.5 719.5)" fill="none" stroke="#fff" stroke-width="1"/>
    <line id="Line_158" data-name="Line 158" x2="97" transform="translate(-17.5 724.5)" fill="none" stroke="#fff" stroke-width="1"/>
    <line id="Line_159" data-name="Line 159" x2="97" transform="translate(-17.5 729.5)" fill="none" stroke="#fff" stroke-width="1"/>
    <line id="Line_160" data-name="Line 160" x2="97" transform="translate(-17.5 734.5)" fill="none" stroke="#fff" stroke-width="1"/>
    <line id="Line_161" data-name="Line 161" x2="97" transform="translate(-17.5 739.5)" fill="none" stroke="#fff" stroke-width="1"/>
    <line id="Line_162" data-name="Line 162" x2="97" transform="translate(-17.5 744.5)" fill="none" stroke="#fff" stroke-width="1"/>
    <line id="Line_163" data-name="Line 163" x2="97" transform="translate(-17.5 749.5)" fill="none" stroke="#fff" stroke-width="1"/>
    <line id="Line_164" data-name="Line 164" x2="97" transform="translate(-17.5 754.5)" fill="none" stroke="#fff" stroke-width="1"/>
    <text id="Routes" transform="translate(50 187)" fill="#fff" font-size="70" font-family="SourceCodePro-Regular, Source Code Pro"><tspan x="0" y="0">Routes</tspan></text>
    <path id="ic_home_24px" d="M8.218,16.213V11.55h3.109v4.663h3.886V10h2.332L9.772,3,2,10H4.332v6.218Z" transform="translate(76 66.441)" fill="none" stroke="#fff" stroke-width="1"/>
    <g id="ic_border_color_24px" transform="translate(176.169 64)">
      <path id="Path_81" data-name="Path 81" d="M14.687,5.44,11.772,2.525,4,10.3v2.915H6.915Zm2.3-2.3a.774.774,0,0,0,0-1.1L15.169.225a.774.774,0,0,0-1.1,0L12.55,1.748l2.915,2.915Z" transform="translate(-0.891 0.002)" fill="none" stroke="#f8fcff" stroke-width="1"/>
      <path id="Path_82" data-name="Path 82" d="M0,20H18.654v3.109H0Z" transform="translate(0 -4.453)" fill="none" stroke="#f8fcff" stroke-width="1"/>
    </g>
    <path id="ic_add_to_photos_24px" d="M3.554,5.109H2V15.99a1.559,1.559,0,0,0,1.554,1.554H14.436V15.99H3.554ZM15.99,2H6.663A1.559,1.559,0,0,0,5.109,3.554v9.327a1.559,1.559,0,0,0,1.554,1.554H15.99a1.559,1.559,0,0,0,1.554-1.554V3.554A1.559,1.559,0,0,0,15.99,2Zm-.777,7H12.1V12.1H10.55V9H7.441V7.441H10.55V4.332H12.1V7.441h3.109Z" transform="translate(125.307 65.109)" fill="none" stroke="#fff" stroke-width="1"/>
    <path id="ic_remove_red_eye_24px" d="M9.55,4.5A9.192,9.192,0,0,0,1,10.329a9.184,9.184,0,0,0,17.1,0A9.192,9.192,0,0,0,9.55,4.5Zm0,9.715a3.886,3.886,0,1,1,3.886-3.886A3.888,3.888,0,0,1,9.55,14.215ZM9.55,8a2.332,2.332,0,1,0,2.332,2.332A2.329,2.329,0,0,0,9.55,8Z" transform="translate(227.585 66.495)" fill="none" stroke="#fff" stroke-width="1"/>
    <path id="ic_local_library_24px" d="M10,9.423A10.223,10.223,0,0,0,3,6.663v8.55a10.223,10.223,0,0,1,7,2.759,10.259,10.259,0,0,1,7-2.759V6.663A10.223,10.223,0,0,0,10,9.423Zm0-2.759A2.332,2.332,0,1,0,7.663,4.332,2.329,2.329,0,0,0,10,6.663Z" transform="translate(276.007 66.109)" fill="#fff" stroke="#fff" stroke-width="1"/>
    <rect id="Rectangle_13" data-name="Rectangle 13" width="248" height="39" rx="3" transform="translate(74 251)" fill="#fff"/>
    <rect id="Rectangle_14" data-name="Rectangle 14" width="248" height="39" rx="3" transform="translate(74 311)" fill="#fff"/>
    <rect id="Rectangle_15" data-name="Rectangle 15" width="248" height="39" rx="3" transform="translate(74 371)" fill="#fff"/>
    <rect id="Rectangle_16" data-name="Rectangle 16" width="248" height="39" rx="3" transform="translate(74 431)" fill="#fff"/>
    <rect id="Rectangle_17" data-name="Rectangle 17" width="248" height="39" rx="3" transform="translate(74 491)" fill="#fff"/>
    <rect id="Rectangle_18" data-name="Rectangle 18" width="248" height="39" rx="3" transform="translate(74 549)" fill="#fff"/>
    <rect id="Rectangle_19" data-name="Rectangle 19" width="248" height="39" rx="3" transform="translate(74 609)" fill="#fff"/>
    <rect id="Rectangle_20" data-name="Rectangle 20" width="248" height="39" rx="3" transform="translate(74 669)" fill="#fff"/>
    <text id="Run_One" data-name="Run One" transform="translate(184 277)" fill="#f1ba85" font-size="20" font-family="SourceCodePro-Light, Source Code Pro" font-weight="300" letter-spacing="-0.005em"><tspan x="-41.7" y="0">Run One</tspan></text>
    <text id="Run_Two" data-name="Run Two" transform="translate(183 337)" fill="#f1ba85" font-size="20" font-family="SourceCodePro-Light, Source Code Pro" font-weight="300" letter-spacing="-0.005em"><tspan x="-41.7" y="0">Run Two</tspan></text>
    <text id="Run_Three" data-name="Run Three" transform="translate(195 397)" fill="#f1ba85" font-size="20" font-family="SourceCodePro-Light, Source Code Pro" font-weight="300" letter-spacing="-0.005em"><tspan x="-53.6" y="0">Run Three</tspan></text>
    <text id="Run_Four" data-name="Run Four" transform="translate(189 457)" fill="#f1ba85" font-size="20" font-family="SourceCodePro-Light, Source Code Pro" font-weight="300" letter-spacing="-0.005em"><tspan x="-47.65" y="0">Run Four</tspan></text>
    <text id="Run_Five" data-name="Run Five" transform="translate(189 516)" fill="#f1ba85" font-size="20" font-family="SourceCodePro-Light, Source Code Pro" font-weight="300" letter-spacing="-0.005em"><tspan x="-47.65" y="0">Run Five</tspan></text>
    <text id="Run_Six" data-name="Run Six" transform="translate(183 575)" fill="#f1ba85" font-size="20" font-family="SourceCodePro-Light, Source Code Pro" font-weight="300" letter-spacing="-0.005em"><tspan x="-41.7" y="0">Run Six</tspan></text>
    <text id="Run_Seven" data-name="Run Seven" transform="translate(195 635)" fill="#f1ba85" font-size="20" font-family="SourceCodePro-Light, Source Code Pro" font-weight="300" letter-spacing="-0.005em"><tspan x="-53.6" y="0">Run Seven</tspan></text>
    <text id="Run_Eight" data-name="Run Eight" transform="translate(195 697)" fill="#f1ba85" font-size="20" font-family="SourceCodePro-Light, Source Code Pro" font-weight="300" letter-spacing="-0.005em"><tspan x="-53.6" y="0">Run Eight</tspan></text>
  </g>
</svg>
